<?xml version="1.0" encoding="utf-8"?>
<!-- Generator: Adobe Illustrator 27.4.0, SVG Export Plug-In . SVG Version: 6.00 Build 0)  -->
<svg version="1.1" id="fa5e9963-be56-4fcb-a961-77b5aada95f1"
	 xmlns="http://www.w3.org/2000/svg" xmlns:xlink="http://www.w3.org/1999/xlink" x="0px" y="0px" viewBox="0 0 1013.6 769.8"
	 style="enable-background:new 0 0 1013.6 769.8;" xml:space="preserve">
<style type="text/css">
	.st0{opacity:0.1;fill:#FF5C2C;enable-background:new    ;}
	.st1{opacity:0.1;}
	.st2{fill:#FF5C2C;}
	.st3{fill:#192534;}
	.st4{fill:#1BB1DC;}
	.st5{fill:#FBBEBE;}
	.st6{fill:#F2F2F2;}
	.st7{opacity:0.1;enable-background:new    ;}
	.st8{fill:#01E7C0;}
	.st9{fill:#FF6E39;}
	.st10{fill:#BE000F;}
	.st11{fill:#55ACEE;}
	.st12{fill:#3B5998;}
	.st13{fill:#DD4B39;}
	.st14{fill:#E53C5F;}
	.st15{fill:#007BB6;}
	.st16{fill:#464A5F;}
	.st17{fill:#9C9CA1;}
	.st18{fill:#939498;}
</style>
<path class="st0" d="M935.2,718.2L831.5,538.6c-0.9-1.6-2.9-2.1-4.5-1.2c-0.5,0.3-0.9,0.7-1.2,1.2L722,718.2
	c-0.9,1.6-0.4,3.6,1.1,4.5c0.5,0.3,1.1,0.5,1.7,0.5h30.9c1.8,0,3.3,1.5,3.3,3.3v38.3c0,1.8,1.5,3.3,3.3,3.3h40.3
	c1.8,0,3.3-1.5,3.3-3.3v-18.5c0-1.8,1.5-3.3,3.3-3.3h38.4c1.8,0,3.3,1.5,3.3,3.3v18.5c0,1.8,1.5,3.3,3.3,3.3h40.4
	c1.8,0,3.3-1.5,3.3-3.3v-38.4c0-1.8,1.5-3.3,3.3-3.3h30.9c1.8,0,3.3-1.5,3.3-3.3C935.7,719.3,935.5,718.7,935.2,718.2z M790.6,738.1
	c-0.6,0.6-1.5,1-2.3,1h-14.6c-1.8,0-3.3-1.5-3.3-3.3c0-1.8,1.5-3.3,3.3-3.3h14.6c1.8,0,3.3,1.5,3.3,3.3
	C791.6,736.7,791.2,737.5,790.6,738.1L790.6,738.1z M885.9,738.1c-0.6,0.6-1.5,1-2.3,1H869c-1.8,0-3.3-1.5-3.3-3.3
	c0-1.8,1.5-3.3,3.3-3.3h14.5c1.8,0,3.3,1.5,3.3,3.3C886.9,736.7,886.5,737.5,885.9,738.1L885.9,738.1z"/>
<path class="st0" d="M294.1,719.8L190.4,540.2c-0.9-1.6-2.9-2.1-4.5-1.2c-0.5,0.3-0.9,0.7-1.2,1.2L95.1,695.3
	c11.2,14.1,23.8,27.1,37.5,38.7h14.6c1.8,0,3.3,1.5,3.3,3.3c0,1.8-1.5,3.3-3.3,3.3H141c7.5,5.7,15.6,10.7,24,14.9v-7.7
	c0-1.8,1.5-3.3,3.3-3.3h38.5c1.8,0,3.3,1.5,3.3,3.3v18.5c0,0.5,0.1,1,0.3,1.4c0.5,1.2,1.7,1.9,3,1.9h40.4c1,0,2-0.5,2.6-1.3
	c0.4-0.6,0.7-1.3,0.7-2v-38.3c0-1.8,1.5-3.3,3.3-3.3h30.9c1.8,0,3.3-1.5,3.3-3.4C294.6,720.8,294.4,720.3,294.1,719.8z M225.6,735
	c0.6-0.6,1.5-1,2.3-1h14.6c1.8,0,3.3,1.5,3.3,3.3c0,1.8-1.5,3.3-3.3,3.3h-14.6c-1.8,0-3.3-1.5-3.3-3.3
	C224.6,736.4,224.9,735.6,225.6,735L225.6,735z M160.4,668.5c-1.8,0-3.3-1.5-3.3-3.3v-25.1c0-1.8,1.5-3.3,3.3-3.3h54.3
	c1.8,0,3.3,1.5,3.3,3.3v25.1c0,1.8-1.5,3.3-3.3,3.3H160.4z"/>
<path class="st0" d="M704.1,397.1H575.8v-27.8c0-3.7-3-6.6-6.6-6.6l0,0h-37.7v-29.6c0-2.3-1.9-4.2-4.2-4.2h-48.6
	c-2.3,0-4.2,1.9-4.2,4.2v29.6h-44.3c-3.7,0-6.6,3-6.6,6.6v0v27.8H301.2c-0.7,0-1.3,0.6-1.3,1.4V767c0,0.7,0.6,1.3,1.3,1.3h81.3
	c0.7,0,1.4-0.6,1.4-1.3v-49.6c0-0.7,0.6-1.3,1.4-1.3h34.4c0.7,0,1.3,0.6,1.3,1.3V767c0,0.7,0.6,1.3,1.3,1.3H583
	c0.7,0,1.3-0.6,1.3-1.3v-49.6c0-0.7,0.6-1.3,1.3-1.3h34.4c0.7,0,1.3,0.6,1.3,1.3V767c0,0.7,0.6,1.3,1.3,1.3h81.3
	c0.7,0,1.3-0.6,1.3-1.3V398.4C705.5,397.7,704.9,397.1,704.1,397.1z M369.3,698.8c0,0.7-0.6,1.3-1.3,1.3h0h-50.2
	c-0.7,0-1.3-0.6-1.3-1.3c0,0,0,0,0,0v-17.2c0-0.7,0.6-1.3,1.4-1.3H368c0.7,0,1.3,0.6,1.3,1.3V698.8z M369.3,654.5
	c0,0.7-0.6,1.3-1.3,1.3c0,0,0,0,0,0h-50.2c-0.7,0-1.3-0.6-1.4-1.3c0,0,0,0,0,0v-17.1c0-0.7,0.6-1.3,1.3-1.3c0,0,0,0,0,0H368
	c0.7,0,1.3,0.6,1.3,1.3c0,0,0,0,0,0V654.5z M369.3,610.1c0,0.7-0.6,1.3-1.3,1.3h-50.2c-0.7,0-1.4-0.6-1.4-1.3V593
	c0-0.7,0.6-1.3,1.4-1.3H368c0.7,0,1.3,0.6,1.3,1.3V610.1z M369.3,565.8c0,0.7-0.6,1.3-1.3,1.3c0,0,0,0,0,0h-50.2
	c-0.7,0-1.3-0.6-1.4-1.3c0,0,0,0,0,0v-17.1c0-0.7,0.6-1.3,1.3-1.3c0,0,0,0,0,0H368c0.7,0,1.3,0.6,1.3,1.3c0,0,0,0,0,0V565.8z
	 M369.3,521.5c0,0.7-0.6,1.3-1.3,1.3h-50.2c-0.7,0-1.4-0.6-1.4-1.3v-17.2c0-0.7,0.6-1.3,1.3-1.3c0,0,0,0,0,0H368
	c0.7,0,1.3,0.6,1.3,1.3l0,0V521.5z M369.3,477.1c0,0.7-0.6,1.3-1.3,1.3h0h-50.2c-0.7,0-1.3-0.6-1.3-1.3c0,0,0,0,0,0V460
	c0-0.7,0.6-1.3,1.4-1.3H368c0.7,0,1.3,0.6,1.3,1.3V477.1z M369.3,432.8c0,0.7-0.6,1.3-1.3,1.3c0,0,0,0,0,0h-50.2
	c-0.7,0-1.3-0.6-1.4-1.3c0,0,0,0,0,0v-17.1c0-0.7,0.6-1.3,1.3-1.4c0,0,0,0,0,0H368c0.7,0,1.3,0.6,1.3,1.3c0,0,0,0,0,0V432.8z
	 M488.4,698.8c0,0.7-0.6,1.3-1.3,1.3c0,0,0,0,0,0h-50.3c-0.7,0-1.3-0.6-1.3-1.3v-17.1c0-0.7,0.6-1.3,1.3-1.3H487
	c0.7,0,1.3,0.6,1.3,1.3L488.4,698.8z M488.4,654.4c0,0.7-0.6,1.3-1.3,1.3c0,0,0,0,0,0h-50.3c-0.7,0-1.3-0.6-1.3-1.3v-17.1
	c0-0.7,0.6-1.3,1.3-1.3H487c0.7,0,1.3,0.6,1.3,1.3c0,0,0,0,0,0L488.4,654.4z M488.4,610.1c0,0.7-0.6,1.3-1.3,1.3h-50.3
	c-0.7,0-1.3-0.6-1.3-1.3V593c0-0.7,0.6-1.3,1.3-1.3H487c0.7,0,1.3,0.6,1.3,1.3L488.4,610.1z M488.4,565.8c0,0.7-0.6,1.3-1.3,1.3
	c0,0,0,0,0,0h-50.3c-0.7,0-1.3-0.6-1.3-1.3v-17.1c0-0.7,0.6-1.3,1.3-1.3H487c0.7,0,1.3,0.6,1.3,1.3c0,0,0,0,0,0L488.4,565.8z
	 M488.4,521.4c0,0.7-0.6,1.3-1.3,1.3h-50.3c-0.7,0-1.3-0.6-1.3-1.3v-17.1c0-0.7,0.6-1.3,1.3-1.3H487c0.7,0,1.3,0.6,1.3,1.3
	c0,0,0,0,0,0L488.4,521.4z M488.4,477.1c0,0.7-0.6,1.3-1.3,1.3c0,0,0,0,0,0h-50.3c-0.7,0-1.3-0.6-1.3-1.3V460c0-0.7,0.6-1.3,1.3-1.3
	H487c0.7,0,1.3,0.6,1.3,1.3L488.4,477.1z M488.4,432.8c0,0.7-0.6,1.3-1.3,1.4c0,0,0,0,0,0h-50.3c-0.7,0-1.3-0.6-1.3-1.4v-17.1
	c0-0.7,0.6-1.4,1.3-1.4H487c0.7,0,1.3,0.6,1.3,1.3c0,0,0,0,0,0L488.4,432.8z M569.8,698.8c0,0.7-0.6,1.3-1.3,1.3c0,0,0,0,0,0h-50.2
	c-0.7,0-1.3-0.6-1.3-1.3v-17.1c0-0.7,0.6-1.3,1.3-1.3h50.2c0.7,0,1.3,0.6,1.3,1.3L569.8,698.8z M569.8,654.4c0,0.7-0.6,1.3-1.3,1.3
	c0,0,0,0,0,0h-50.2c-0.7,0-1.3-0.6-1.3-1.3v-17.1c0-0.7,0.6-1.3,1.3-1.3h50.2c0.7,0,1.3,0.6,1.3,1.3c0,0,0,0,0,0L569.8,654.4z
	 M569.8,610.1c0,0.7-0.6,1.3-1.3,1.3h-50.2c-0.7,0-1.3-0.6-1.3-1.3V593c0-0.7,0.6-1.3,1.3-1.3h50.2c0.7,0,1.3,0.6,1.3,1.3
	L569.8,610.1z M569.8,565.8c0,0.7-0.6,1.3-1.3,1.3c0,0,0,0,0,0h-50.2c-0.7,0-1.3-0.6-1.3-1.3v-17.1c0-0.7,0.6-1.3,1.3-1.3h50.2
	c0.7,0,1.3,0.6,1.3,1.3c0,0,0,0,0,0L569.8,565.8z M569.8,521.4c0,0.7-0.6,1.3-1.3,1.3h-50.2c-0.7,0-1.3-0.6-1.3-1.3v-17.1
	c0-0.7,0.6-1.3,1.3-1.3h50.2c0.7,0,1.3,0.6,1.3,1.3c0,0,0,0,0,0L569.8,521.4z M569.8,477.1c0,0.7-0.6,1.3-1.3,1.3c0,0,0,0,0,0h-50.2
	c-0.7,0-1.3-0.6-1.3-1.3V460c0-0.7,0.6-1.3,1.3-1.3h50.2c0.7,0,1.3,0.6,1.3,1.3L569.8,477.1z M569.8,432.8c0,0.7-0.6,1.3-1.3,1.4
	c0,0,0,0,0,0h-50.2c-0.7,0-1.3-0.6-1.3-1.4v-17.1c0-0.7,0.6-1.4,1.3-1.4h50.2c0.7,0,1.3,0.6,1.3,1.3c0,0,0,0,0,0L569.8,432.8z
	 M688.9,698.8c0,0.7-0.6,1.3-1.3,1.3h-50.2c-0.7,0-1.3-0.6-1.3-1.3c0,0,0,0,0,0v-17.1c0-0.7,0.6-1.3,1.3-1.3h50.2
	c0.7,0,1.3,0.6,1.3,1.3L688.9,698.8z M688.9,654.4c0,0.7-0.6,1.3-1.3,1.3h-50.2c-0.7,0-1.3-0.6-1.3-1.3c0,0,0,0,0,0v-17.1
	c0-0.7,0.6-1.3,1.3-1.3c0,0,0,0,0,0h50.2c0.7,0,1.3,0.6,1.3,1.3L688.9,654.4z M688.9,610.1c0,0.7-0.6,1.3-1.3,1.3h-50.2
	c-0.7,0-1.3-0.6-1.3-1.3V593c0-0.7,0.6-1.3,1.3-1.3h50.2c0.7,0,1.3,0.6,1.3,1.3L688.9,610.1z M688.9,565.8c0,0.7-0.6,1.3-1.3,1.3
	h-50.2c-0.7,0-1.3-0.6-1.3-1.3c0,0,0,0,0,0v-17.1c0-0.7,0.6-1.3,1.3-1.3c0,0,0,0,0,0h50.2c0.7,0,1.3,0.6,1.3,1.3L688.9,565.8z
	 M688.9,521.4c0,0.7-0.6,1.3-1.3,1.3h-50.2c-0.7,0-1.3-0.6-1.3-1.3v-17.1c0-0.7,0.6-1.3,1.3-1.3c0,0,0,0,0,0h50.2
	c0.7,0,1.3,0.6,1.3,1.3L688.9,521.4z M688.9,477.1c0,0.7-0.6,1.3-1.3,1.3h-50.2c-0.7,0-1.3-0.6-1.3-1.3c0,0,0,0,0,0V460
	c0-0.7,0.6-1.3,1.3-1.3h50.2c0.7,0,1.3,0.6,1.3,1.3L688.9,477.1z M688.9,432.8c0,0.7-0.6,1.4-1.3,1.4h-50.2c-0.7,0-1.3-0.6-1.3-1.3
	c0,0,0,0,0,0v-17.1c0-0.7,0.6-1.3,1.3-1.4c0,0,0,0,0,0h50.2c0.7,0,1.3,0.6,1.3,1.4L688.9,432.8z"/>
<g class="st1">
	<path class="st2" d="M89.9,644.6c0,4.3-1.1,8.6-3.2,12.4c4.3,7.7,4.3,17.1,0,24.8c1.1,1.9,1.9,3.9,2.4,6
		c-10.9-14.4-21-29.4-30.1-45l0,0c0.2-3.7,1.3-7.3,3.2-10.6c-2.1-3.7-3.3-8-3.2-12.3c0-2.9,0.5-5.8,1.5-8.6c0.5-1.3,1.1-2.6,1.8-3.8
		c2.8-4.8,7.3-7.9,12.2-7.9s9.4,3.1,12.2,7.9c0.7,1.2,1.3,2.4,1.7,3.7c1,2.8,1.5,5.8,1.5,8.7c0,4.3-1.1,8.6-3.2,12.4
		C88.8,636,90,640.3,89.9,644.6z"/>
	<ellipse class="st2" cx="74.4" cy="595.1" rx="15.5" ry="20.3"/>
	<ellipse class="st2" cx="74.4" cy="570.3" rx="15.5" ry="20.3"/>
	<path class="st2" d="M148.2,446.7c0,16.6-5.6,32.8-15.9,45.8c25.3,32.2,19.7,78.8-12.4,104.1c-9.2,7.3-20,12.2-31.6,14.5
		c-1.8,0.4-3.6,0.6-5.4,0.9c-5.6,0.7-11.3,0.7-17,0.1c-1.9-0.2-3.7-0.5-5.6-0.8c-8.1-1.5-15.9-4.3-23-8.4
		C24,575.6,12.4,547.6,2.5,519c2.6-9.6,7.1-18.6,13.3-26.5c-15.5-19.7-20-45.9-11.9-69.6l56.3,18.9L7.3,414.4
		c2.4-4.8,5.2-9.3,8.5-13.5c-25.3-32.2-19.8-78.8,12.4-104.1c32.2-25.3,78.8-19.8,104.1,12.4c2.2,2.8,4.2,5.7,5.9,8.7l-54.4,40
		l59-30.6c7.6,18.9,7.1,40.2-1.4,58.7l-44-0.3l40.7,6.7c-1.7,3-3.7,5.8-5.8,8.5C142.7,413.9,148.3,430.1,148.2,446.7z"/>
	<path class="st0" d="M148.2,538.4c0,35.4-25.1,65.9-59.8,72.7c-1.8,0.4-3.6,0.6-5.4,0.9c-5.6,0.7-11.3,0.7-17,0.1
		c-1.9-0.2-3.7-0.5-5.6-0.8c-8.1-1.5-15.9-4.3-23-8.4c-13.3-27.2-25-55.2-34.9-83.8c2.6-9.6,7.1-18.6,13.3-26.5
		C5.5,479.5-0.1,463.3,0,446.7c0-8.3,142.3,33.2,132.4,45.8C142.7,505.6,148.3,521.7,148.2,538.4z"/>
</g>
<g class="st1">
	<path class="st2" d="M982.5,625.3c-2.9,9.3-6,18.5-9.2,27.4c-0.9-2.6-1.3-5.4-1.3-8.2C972,635.6,976.4,628,982.5,625.3z"/>
	<path class="st2" d="M1013.6,465.8c0,17.6-3.5,45.3-10,77c-5.7,27.9-12.7,55.4-21.2,82.6c-2.9,9.3-6,18.5-9.2,27.4
		c-3.7,10.2-7.5,20.1-11.5,29.6c-38.6-14.2-58.4-56.9-44.2-95.5c2.7-7.3,6.5-14.2,11.3-20.3c-15.5-19.7-20-46-12-69.8l56.3,18.9
		l-52.8-27.5c2.3-4.8,5.2-9.3,8.5-13.5c-25.4-32.3-19.7-79.1,12.6-104.4c5.1-4,10.6-7.3,16.5-9.8c22.7,15.5,39.8,37.9,48.8,63.9
		l-9.8,7.2l10.5-5.4c3.5,10.8,5.6,22,6.1,33.3h-2.9l3,0.5C1013.5,461.9,1013.6,463.9,1013.6,465.8z"/>
	<path class="st0" d="M1003.6,542.8c-5.7,27.9-12.7,55.4-21.2,82.6c-2.9,9.3-6,18.5-9.2,27.4c-3.7,10.2-7.5,20.1-11.5,29.6
		c-38.6-14.2-58.4-56.9-44.2-95.5c2.7-7.3,6.5-14.2,11.3-20.3c-10.3-13.1-15.9-29.3-15.9-45.9C913,515.6,964.7,528.8,1003.6,542.8z"
		/>
</g>
<path class="st0" d="M323.5,123.2c-5.6-1.1-11.5-0.4-16.7,1.8c-6.4,2.9-13.7,2.9-20.1,0c-7.6-3.3-16.2-3.2-23.7,0.5
	c-2.1,1.1-4.4,1.7-6.8,1.7c-9.6,0-17.6-9.7-19.2-22.4c1.9-1.4,3.5-3.2,4.8-5.2c5.6-9.1,14.4-14.9,24.1-14.9s18.4,5.8,24,14.7
	c3.4,5.5,9.5,8.8,16,8.7h0.2C313.7,108.1,320.3,114.3,323.5,123.2z"/>
<path class="st0" d="M352.8,83.1L337.3,93l9.4-17.1c-2.7-2.1-6-3.3-9.4-3.4H337c-1.1,0-2.2-0.1-3.2-0.2l-5.3,3.3l2.3-4.1
	c-3.7-1.3-7-3.8-9.2-7l-9.4,6l6-10.8c-5.5-6.6-12.9-10.7-21.1-10.7c-9.8,0-18.5,5.8-24.1,14.9c-3.4,5.5-9.5,8.8-16,8.6h-0.5
	c-10.8,0-19.6,12.3-19.6,27.4s8.8,27.4,19.6,27.4c2.4,0,4.7-0.6,6.8-1.7c7.4-3.6,16.1-3.8,23.7-0.5c6.4,2.9,13.7,2.9,20.1,0.1
	c7.5-3.3,16.1-3.1,23.5,0.4c2.1,1.1,4.4,1.7,6.7,1.7c10.8,0,19.6-12.2,19.6-27.4C356.9,94.1,355.5,88.3,352.8,83.1z"/>
<path class="st0" d="M768.5,286.7c-4-0.8-8-0.3-11.7,1.3c-4.5,2-9.6,2-14.1,0c-5.3-2.3-11.4-2.2-16.6,0.3c-1.5,0.8-3.1,1.2-4.8,1.2
	c-6.7,0-12.3-6.8-13.5-15.7c1.3-1,2.5-2.2,3.4-3.6c3.9-6.4,10-10.4,16.9-10.4s12.9,4,16.8,10.3c2.4,3.9,6.6,6.2,11.2,6.1h0.2
	C761.6,276.1,766.3,280.4,768.5,286.7z"/>
<path class="st0" d="M789,258.6l-10.9,6.9l6.6-12c-1.9-1.5-4.2-2.3-6.6-2.4H778c-0.8,0-1.5,0-2.2-0.2l-3.7,2.3l1.6-2.9
	c-2.6-0.9-4.9-2.6-6.4-4.9l-6.6,4.2l4.2-7.6c-3.8-4.6-9-7.5-14.8-7.5c-6.8,0-13,4.1-16.9,10.4c-2.4,3.9-6.6,6.1-11.2,6h-0.4
	c-7.6,0-13.7,8.6-13.7,19.2s6.1,19.2,13.7,19.2c1.7,0,3.3-0.4,4.8-1.2c5.2-2.5,11.3-2.6,16.6-0.3c2.2,1,4.6,1.5,7.1,1.5
	c2.4,0,4.8-0.5,7-1.5c5.3-2.3,11.3-2.2,16.4,0.3c1.5,0.8,3.1,1.2,4.7,1.2c7.6,0,13.7-8.6,13.7-19.2
	C791.9,266.2,790.9,262.2,789,258.6z"/>
<path class="st0" d="M191.2,241.7c4-0.7,8-0.3,11.7,1.3c4.5,2,9.6,2,14.1,0c5.3-2.3,11.4-2.2,16.6,0.3c1.5,0.8,3.1,1.2,4.8,1.2
	c6.7,0,12.3-6.8,13.5-15.7c-1.3-1-2.5-2.2-3.4-3.6c-3.9-6.4-10-10.4-16.9-10.4s-12.9,4-16.8,10.3c-2.4,3.9-6.6,6.2-11.2,6.1h-0.2
	C198.1,231.1,193.5,235.4,191.2,241.7z"/>
<path class="st0" d="M170.7,213.6l10.9,6.9l-6.6-12c1.9-1.5,4.2-2.3,6.6-2.4h0.2c0.8,0,1.5,0,2.2-0.2l3.7,2.3l-1.6-2.9
	c2.6-0.9,4.9-2.6,6.5-4.9l6.6,4.2l-4.2-7.6c3.9-4.6,9-7.5,14.8-7.5c6.9,0,13,4.1,16.9,10.4c2.4,3.9,6.6,6.1,11.2,6h0.4
	c7.6,0,13.7,8.6,13.7,19.2s-6.1,19.2-13.7,19.2c-1.7,0-3.3-0.4-4.8-1.2c-5.2-2.5-11.3-2.6-16.6-0.3c-2.2,1-4.6,1.5-7.1,1.5
	c-2.4,0-4.8-0.5-7-1.5c-5.3-2.3-11.3-2.2-16.4,0.3c-1.5,0.8-3.1,1.2-4.7,1.2c-7.6,0-13.7-8.6-13.7-19.2
	C167.9,221.3,168.8,217.2,170.7,213.6z"/>
<path class="st3" d="M254.3,402l219.4,106c5.7,2.7,13.4,4.2,20.9,4.2s15.2-1.4,20.9-4.2l219.4-106c11.5-5.6,11.5-14.7,0-20.2
	l-219.4-106c-5.7-2.7-13.4-4.1-20.9-4.1s-15.2,1.4-20.9,4.1l-219.4,106C242.8,387.3,242.8,396.4,254.3,402z"/>
<path class="st3" d="M734.9,510.5c0,0-40.1-19.3-45.4-21.9s-6.7-2.5-12.3,0.1s-161.8,78.1-161.8,78.1c-5.8,2.7-13.4,4.2-20.9,4.2
	s-15.2-1.4-20.9-4.2c0,0-152.1-73.4-159.3-76.9c-7.8-3.8-10-3.8-17-0.4L254,510.5c-11.5,5.6-11.5,14.7,0,20.2l219.4,106
	c5.7,2.7,13.4,4.2,20.9,4.2s15.2-1.4,20.9-4.2l219.4-106C746.5,525.2,746.5,516.2,734.9,510.5L734.9,510.5z"/>
<path class="st3" d="M734.9,639.3c0,0-40.1-19.3-45.4-21.9s-6.7-2.5-12.3,0.1s-161.7,78.2-161.7,78.2c-5.8,2.7-13.4,4.2-20.9,4.2
	s-15.2-1.4-20.9-4.2c0,0-152.1-73.4-159.3-76.9c-7.8-3.8-10-3.8-17-0.4l-43.3,20.9c-11.5,5.6-11.5,14.7,0,20.2l219.4,106
	c5.7,2.8,13.4,4.2,20.9,4.2s15.2-1.4,20.9-4.2l219.4-106C746.5,654,746.5,644.9,734.9,639.3z"/>
<ellipse class="st3" cx="361.4" cy="211.8" rx="47.6" ry="66.2"/>
<rect x="356.1" y="320.3" class="st4" width="42.4" height="42.4"/>
<path class="st5" d="M323.8,524.4l13.9,19.6c0-8,3.7-15.5,10-20.3c-6-5.9-12.6-11.2-19.7-15.8c-0.3-0.3-0.7-0.4-1.1-0.4
	c-0.3,0.1-0.6,0.3-0.9,0.6c-2.1,2.5-4.7,5.7-5.6,8.8C319.6,519.9,322.1,522,323.8,524.4z"/>
<path class="st6" d="M351.5,521.7c2.1,0,4.1,1,6,2.1c2.5,1.2,4.8,2.7,6.9,4.5c2.1,1.8,3.4,4.5,3.5,7.2c0,2.2-0.9,4.3-1.7,6.4
	c-3.7,9.7-4.6,20.2-2.6,30.4c0.6,3.3,1.6,6.8,0.6,10c-0.9,2.9-3.4,5.1-5.7,7.1c-3.8,3.1-7.9,6.2-12.8,6.8s-10.5-2-11.6-6.7
	c-0.6-2.8,0.4-5.7,1.1-8.5c1.7-6.7,1.6-13.7,1.6-20.6c0.1-2.1-0.1-4.2-0.5-6.2c-0.3-1.4-0.9-2.8-1.4-4.2c-1.3-3.8-1.8-8-0.4-11.8
	c0.8-1.9,1.9-3.7,3.2-5.3C341.1,528.4,344.8,521.7,351.5,521.7z"/>
<path class="st5" d="M343.9,228.6c0.1,2.5,0.2,5.1-0.9,7.3c-1,2-2.9,3.3-4.6,4.6l-5.9,4.3c-0.3,0.2-0.6,0.5-0.7,0.8
	c0,0.4,0.3,0.8,0.6,1c2.4,1.9,5.2,3.2,8.2,3.8c2.1,0.4,4.2,0.5,6.4,0.5c11.1,0.3,22.4,0.6,33.2-2.3c1.9-0.4,3.8-1.2,5.5-2.3
	c1.7-1.1,2.8-2.9,3.1-4.9c-2.7-0.1-5.2-1.8-7.4-3.3s-4.6-3.2-5.3-5.8c-0.5-1.6-0.2-3.4-0.6-5c-0.6-2.7-2.8-4.6-5.2-6
	c-6.1-3.5-13.4-3.7-20.1-5.5c-2.4-0.6-6.7-3.5-6.9,0.4C343.1,220.2,343.7,224.5,343.9,228.6z"/>
<path class="st7" d="M343.9,228.6c0.1,2.5,0.2,5.1-0.9,7.3c-1,2-2.9,3.3-4.6,4.6l-5.9,4.3c-0.3,0.2-0.6,0.5-0.7,0.8
	c0,0.4,0.3,0.8,0.6,1c2.4,1.9,5.2,3.2,8.2,3.8c2.1,0.4,4.2,0.5,6.4,0.5c11.1,0.3,22.4,0.6,33.2-2.3c1.9-0.4,3.8-1.2,5.5-2.3
	c1.7-1.1,2.8-2.9,3.1-4.9c-2.7-0.1-5.2-1.8-7.4-3.3s-4.6-3.2-5.3-5.8c-0.5-1.6-0.2-3.4-0.6-5c-0.6-2.7-2.8-4.6-5.2-6
	c-6.1-3.5-13.4-3.7-20.1-5.5c-2.4-0.6-6.7-3.5-6.9,0.4C343.1,220.2,343.7,224.5,343.9,228.6z"/>
<path class="st8" d="M333.1,367.6c-8.6-2.1-17.7,1-25.6,5.2s-15.1,9.6-23.4,12.8c-6.7,2.5-14.1,3.6-19.7,8.1c-5,4-7.9,10.1-9.8,16.2
	c-1.2,3.4-1.7,7.1-1.4,10.7c0.5,2.8,1.4,5.5,2.6,8c5.8,12.8,13.1,24.9,20.4,37c13.1,21.6,26.3,43.4,43.3,62.1
	c5.4-3.7,4.9-12.7,10.3-16.5c1.4-1,3-1.5,4.1-2.7c2.5-2.6,1.5-6.9,0.4-10.4c-7.4-21.4-16.2-42.4-26.4-62.7
	c14.6,0.1,26.9-11.3,41.2-13.9c4-0.6,8-0.9,12.1-0.8c14.2-0.3,28.4-1.3,42.6-3c5.1-0.6,10.5-1.5,14.4-5c4-3.6,5.4-9.2,6.6-14.4
	c2.5-10.9,8.9-20.5,12.8-30.9c1-2.7,2-5.4,3.2-8c1.1-2.2,2.4-4.3,3.5-6.5c3.6-7,5.6-14.7,7.4-22.3c2.1-9.2,4-18.6,5.9-27.8
	c1.3-6.4,3.8-13.3,0.8-19c-1.7-3.2-4.9-5.4-8.3-7c-3.6-1.6-7.5-2.7-11.4-2.1c-7.6,1.2-12.8,8.2-17.1,14.6l-6.7,10.1
	c-1.6,2.3-3.1,4.7-4.4,7.2c-2.5,4.9-3.9,10.4-5.8,15.5c-5.2,13.9-15,26.5-28.3,33.2c-3.5,1.8-7.3,3.1-10.8,4.8
	c-2.8,1.3-5.5,2.9-8.3,4.2C349.8,367.9,341.3,369.6,333.1,367.6z"/>
<circle class="st5" cx="366.7" cy="203.9" r="26.5"/>
<path class="st2" d="M378.3,234c-1.1,3-2.3,6.1-4.4,8.5c-3.8,4.4-9.9,5.9-15.7,6.1c-6.4,0.3-12.8-0.8-18.8-3.2c-2.6-1-5.2-2.3-7.9-2
	c-4,0.4-6.9,3.7-10.4,5.6c-1.7,1-3.6,1.6-5.5,2.4c-9.1,4.1-15.7,12.3-17.5,22.1c-2,11.3,7.1,22,12.6,32.1c2.4,4.4,5.2,8.7,6.6,13.5
	c2.2,8.1,0.1,16.8-2.8,24.8s-6.4,15.8-7,24.2c-0.2,2.5,0.7,5.8,3.2,5.8c0.9-0.1,1.8-0.5,2.5-1c4.4-2.5,9.6-3.5,14.6-2.7
	c3.5,0.6,6.9,2,10.4,2.5c6.9,1,13.8-1.4,20.3-3.8c6.2-2.3,12.7-4.8,17.1-9.7c3.3-3.7,5.2-8.5,8.7-12.1c4.5-4.8,11.3-7.1,15-12.4
	c2.2-3.1,3.1-7,4.4-10.6s3.2-7.3,6.6-9.1c-1.8-3.2-3.8-6.5-3.6-10.2c0.2-3.2,2-6,3.2-8.9c0.9-1.9,1.5-3.9,2.2-5.9l2.2-6.4
	c0.6-1.8,1.2-3.5,1.6-5.3c0.8-3,1.1-6.2,1.9-9.2c2.2-7.8,7.9-14,13.2-20.1c-4.6-1.8-9.4-3.1-14.2-4.1c-1.6-0.2-3.2-0.6-4.8-1.2
	c-1.8-0.8-3.2-2-4.9-2.9c-2.6-1.4-5.7-1.7-8.6-2.2C391.7,237.5,384.9,236,378.3,234z"/>
<path class="st5" d="M289,351.7c-0.2,2.3-0.2,4.7,0.2,7c0.6,2.4,1.6,4.7,2.9,6.8c5.5,10.5,10,21.5,14.5,32.5
	c1.3,2.8,2.3,5.8,2.9,8.8c0.4,2.3,0.5,4.6,0.8,6.9c0.3,2.3,0.9,4.5,1.8,6.6c1.1,2.3,6.8,14.3,9,15.5c4.7,2.6,11.1,0.2,14.1-4.3
	s-1-20.4-2.4-25.5s-4.2-9.9-6.9-14.6c-4.6-8.2-8.8-16.6-12.5-25.3c-3.2-7.4-6.1-15.4-4.7-23.3c0.8-4.5,2.8-8.6,4.4-12.8
	s2.6-9,1.3-13.3c-0.2-0.8-0.5-1.5-1-2.1c-0.8-0.8-1.7-1.5-2.8-1.8c-4.7-1.9-14.2-3.5-16.3,2.8c-0.8,2.6-1,5.5-1.7,8.1
	c-1.1,4.2-1.9,8.6-2.3,12.9C289.5,341.6,289.2,346.7,289,351.7z"/>
<path class="st5" d="M386,370.5c-5.9,7-11.6,14.1-17.2,21.3l14.4,10.7c0.5-1.9,1.2-3.7,2.1-5.5c1-1.7,2.1-3.3,3.4-4.9l14.6-18.1
	c-3.4-2.1-7.3-3.5-11.4-3.8C390.1,370.5,387.9,370.2,386,370.5z"/>
<path class="st5" d="M449.3,255.8c3.8,0.9,7.6,1.7,11.4,2.8c7.8,2.2,15.8,5.4,21.2,11.5c1.2,1.3,2.3,3.4,1.2,4.8
	c-0.4,0.4-0.8,0.8-1.3,1.1c-1.5,1.2-2.3,3-3.2,4.7c-1.8,3.3-4,6.3-6.7,8.9c-2.1-2.3-4.6-4.3-7.4-5.8l-6-3.8
	c-2.7-1.7-5.4-3.4-8.5-3.9c-3.6-0.5-7.2,0.6-10.8,0.8c-4.6,0.3-9.1-0.7-13.1-3c-0.5-0.2-0.9-0.6-1.2-1.1c-0.2-0.4-0.3-0.8-0.3-1.2
	c-0.4-4.2,0.9-8.3,3.6-11.5c1.8-2.4,6-6.8,9.2-7.2c1.6-0.2,3.8,0.8,5.3,1.2L449.3,255.8z"/>
<path class="st8" d="M444.7,280.5c-1.1,0.4-2.1,0.9-3.1,1.5c-7.8,4.1-15.9,8.4-21.3,15.4c-2.6,3.6-4.7,7.5-6.4,11.5l-13.1,27.8
	l-2.7,5.8l-4.2,8.8L383.1,374c3.8-0.7,7.9-0.6,11.4,1.1s6.2,5.4,5.9,9.2c3.1-0.3,4.8-3.6,6.9-5.9c1.8-1.8,4.1-3,6.2-4.5
	c2.7-2.1,5.1-4.5,7.3-7.1c6.9-7.6,14.3-14.8,22.2-21.4c1.5-1.2,3-2.5,4.4-3.9c2.9-3.3,5.2-7.1,6.7-11.3c3.2-7.8,5.5-16.1,6.6-24.5
	c0.7-5.1,0.9-10.5-1.2-15.2c-3.3-7.1-11.1-11-18.8-9.4"/>
<path class="st7" d="M443.7,281.5c-1.1,0.4-2.1,0.9-3.1,1.5c-7.8,4.1-15.9,8.4-21.3,15.4c-2.6,3.6-4.7,7.5-6.4,11.5l-13.1,27.8
	l-2.7,5.8l-4.2,8.8L382.1,375c3.8-0.7,7.9-0.6,11.4,1.1s6.2,5.4,5.9,9.2c3.1-0.3,4.8-3.6,6.9-5.9c1.8-1.8,4.1-3,6.2-4.5
	c2.7-2.1,5.1-4.5,7.3-7.1c6.9-7.6,14.3-14.8,22.2-21.4c1.5-1.2,3-2.5,4.4-3.9c2.9-3.3,5.2-7.1,6.7-11.3c3.2-7.8,5.5-16.1,6.6-24.5
	c0.7-5.1,0.9-10.5-1.2-15.2c-3.3-7.1-11.1-11-18.8-9.4"/>
<path class="st6" d="M374.8,388.2l-10.9-1.2c-0.3-0.1-0.6,0-0.9,0.1c-0.3,0.2-0.5,0.5-0.6,0.8c-3.5,6.6-6.8,13.4-9.9,20.2
	c-1.7,3.8-3.3,8.4-1.1,12c0.6,1.1,1.6,1.9,2.2,3c1.4,2.5,0.7,5.6-0.2,8.3c-0.4,0.8-0.5,1.6-0.4,2.4c0.3,1.1,1.4,1.8,2.4,2.3
	c8.6,4.2,17.8,7,27.3,8.2c0.7,0.2,1.5,0.1,2.1-0.3c0.4-0.4,0.7-0.9,0.8-1.5c0.4-1.1,0.7-2.2,0.9-3.3c0.7-3.9-0.4-8-1.2-11.9
	c-1.4-6.4-2-13.1-0.2-19.3c0.8-2.6,2-5.1,3.5-7.3c1.7-2.5-4.2-4.9-5.8-6.7C380.1,391,379.3,388.7,374.8,388.2z"/>
<path class="st9" d="M294.2,300.1l-3.3,20.3c2.8-2.6,6.9-3.1,10.8-3.2s8.3,0.3,11,3.2c1.1,1.2,1.8,2.7,2.8,3.9s2.7,2.1,4.2,1.6
	c1.1-0.5,1.9-1.4,2.1-2.5c0.2-1.1,0.3-2.3,0.2-3.4l-1.1-22.4c-0.3-5.4-0.5-10.9-2.5-16c-1.1-2.8-2.7-5.3-4.7-7.5
	c-0.6-0.7-1.2-1.3-2-1.7c-0.8-0.4-1.7-0.7-2.6-0.8c-2.6-0.4-6.8-1.1-9.2,0.3c-2,1.2-2.2,4-2.4,6.1
	C296.6,285.3,295.4,292.7,294.2,300.1z"/>
<ellipse class="st3" cx="366.7" cy="188" rx="37.1" ry="15.9"/>
<circle class="st3" cx="319.1" cy="166.8" r="21.2"/>
<circle class="st3" cx="393.2" cy="161.5" r="21.2"/>
<path class="st7" d="M403.2,149.5c8.3,6.7,10.3,18.6,4.7,27.6c0.6-0.6,1.2-1.3,1.8-1.9c7.2-9.2,5.6-22.5-3.6-29.7
	c-9-7.1-22-5.7-29.3,3.1c-0.6,0.7-1.1,1.4-1.5,2.2C383,143.2,394.9,142.7,403.2,149.5z"/>
<path class="st7" d="M313.5,152c9.8-4.2,21.2-0.4,26.6,8.8c-0.2-0.9-0.5-1.7-0.9-2.5c-4.8-10.7-17.4-15.4-28-10.6
	c-10.4,4.7-15.2,16.7-10.9,27.3c0.3,0.8,0.7,1.6,1.2,2.4C298.6,167.1,303.7,156.2,313.5,152z"/>
<path class="st7" d="M366.7,198.6c-18.4,0-33.6-5.7-36.5-13.2c-0.3,0.8-0.5,1.7-0.5,2.6c0,8.8,16.6,15.9,37.1,15.9
	s37.1-7.1,37.1-15.9c0-0.9-0.2-1.8-0.5-2.6C400.3,192.9,385.1,198.6,366.7,198.6z"/>
<path class="st10" d="M767.8,132.9c-12.1,0-21.8,9.8-21.8,21.8c0,8.7,5.1,16.5,13.1,20c-0.1-1.7,0-3.4,0.4-5l2.8-11.9
	c-0.5-1.1-0.7-2.3-0.7-3.4c0-3.2,1.9-5.6,4.2-5.6c2,0,2.9,1.5,2.9,3.3c0,2-1.3,5-1.9,7.8c-0.5,1.8,0.6,3.6,2.4,4.1
	c0.3,0.1,0.7,0.1,1,0.1c4.1,0,6.9-5.3,6.9-11.6c0-4.8-3.2-8.4-9.1-8.4c-5.7-0.2-10.5,4.2-10.7,9.9c0,0.2,0,0.4,0,0.5
	c-0.1,1.6,0.4,3.1,1.4,4.3c0.4,0.3,0.5,0.8,0.3,1.2c-0.1,0.4-0.3,1.4-0.5,1.8c-0.1,0.4-0.4,0.7-0.8,0.6c-0.1,0-0.2,0-0.3-0.1
	c-3-1.2-4.5-4.6-4.5-8.3c0-6.2,5.2-13.6,15.6-13.6c8.3,0,13.8,6,13.8,12.5c0,8.6-4.8,15-11.8,15c-2.1,0.1-4.1-1-5.3-2.7
	c0,0-1.3,5-1.5,6c-0.5,1.7-1.2,3.2-2.2,4.7c11.6,3.3,23.7-3.4,27-15c3.3-11.6-3.4-23.7-15-27C771.7,133.2,769.7,132.9,767.8,132.9z"
	/>
<path class="st11" d="M708.7,24.4c-1.7,0.8-3.5,1.3-5.4,1.5c2-1.2,3.4-3,4.2-5.2c-1.9,1.1-3.9,1.9-6,2.3c-3.6-3.8-9.5-4-13.3-0.5
	c-1.9,1.8-3,4.3-3,6.9c0,0.7,0.1,1.5,0.2,2.2c-7.6-0.4-14.7-4-19.5-9.9c-2.5,4.3-1.2,9.8,2.9,12.6c-1.5,0-3-0.4-4.3-1.2v0.1
	c0,4.5,3.2,8.4,7.6,9.3c-0.8,0.2-1.6,0.3-2.5,0.3c-0.6,0-1.2-0.1-1.8-0.2c1.2,3.8,4.8,6.5,8.8,6.6c-3.3,2.6-7.5,4-11.7,4
	c-0.8,0-1.5,0-2.2-0.1c4.3,2.8,9.3,4.3,14.4,4.3c17.4,0,26.9-14.4,26.9-26.9c0-0.4,0-0.8,0-1.2C705.9,28,707.5,26.3,708.7,24.4z"/>
<path class="st12" d="M391.5,0h-33.3c-1.1,0-2.1,0.9-2.1,2.1v0v33.3c0,1.1,0.9,2.1,2.1,2.1l0,0h16.6V22.6h-4.5v-5.5h4.5v-4
	c0-4.8,3.4-7.5,7.7-7.5c2.1,0,4.3,0.2,4.8,0.2v5h-3.4c-2.3,0-2.8,1.1-2.8,2.8v3.5h5.6l-0.7,5.5H381v14.8h10.4c1.1,0,2.1-0.9,2.1-2.1
	V2.1C393.5,0.9,392.6,0,391.5,0z"/>
<path class="st13" d="M499.9,96.3l-0.2-0.7h-15.3v6.3h8.8c-0.9,4.4-4.7,6.2-8.2,6.2c-2.5,0.1-4.9-0.8-6.7-2.5
	c-3.7-3.8-3.8-9.8-0.1-13.6c1.8-1.7,4.2-2.6,6.7-2.5c2.1,0,4.1,0.7,5.7,2.1l4.7-4.6c-2.9-2.6-6.6-4-10.5-4
	c-8.6-0.2-15.8,6.7-16,15.3c0,0.2,0,0.4,0,0.6c0,4.1,1.5,8,4.3,11c3.2,3.2,7.5,4.9,12,4.8c4.1,0,7.9-1.6,10.8-4.5
	c2.7-3,4.2-6.9,4.1-11C500.1,98.2,500,97.2,499.9,96.3L499.9,96.3z M518.8,95.6h-5.6V90h-4v5.6h-5.6v4h5.6v5.6h4v-5.6h5.6
	L518.8,95.6z"/>
<path class="st14" d="M212,130c4.3,0,7.8,3.5,7.8,7.8v15.6c0,2.1-0.8,4-2.3,5.5c-1.5,1.5-3.4,2.3-5.5,2.3h-15.6
	c-4.3,0-7.8-3.5-7.8-7.8v-15.6c0-4.3,3.5-7.8,7.8-7.8H212 M212,126.9h-15.6c-6,0-10.9,4.9-10.9,10.9v15.6c0,6,4.9,10.9,10.9,10.9
	H212c6,0,10.9-4.9,10.9-10.9v-15.6C222.9,131.8,218,126.9,212,126.9L212,126.9z"/>
<path class="st14" d="M214.3,137.8c-1.3,0-2.3-1-2.3-2.3s1-2.3,2.3-2.3c1.3,0,2.3,1,2.3,2.3l0,0
	C216.7,136.8,215.6,137.8,214.3,137.8C214.3,137.8,214.3,137.8,214.3,137.8z M204.2,139.4c3.4,0,6.2,2.8,6.2,6.2
	c0,3.4-2.8,6.2-6.2,6.2s-6.2-2.8-6.2-6.2c0,0,0,0,0,0C198,142.2,200.7,139.4,204.2,139.4 M204.2,136.3c-5.2,0-9.4,4.2-9.4,9.4
	c0,5.2,4.2,9.4,9.4,9.4c5.2,0,9.4-4.2,9.4-9.4c0,0,0,0,0,0C213.5,140.4,209.4,136.3,204.2,136.3
	C204.2,136.3,204.2,136.3,204.2,136.3z"/>
<path class="st15" d="M647.6,222.9h-31.2c-1.7-0.1-3.1,1.2-3.2,2.9c0,0,0,0,0,0v31.3c0,1.7,1.5,3.2,3.2,3.2h31.2
	c1.7-0.1,3-1.5,3-3.2v-31.3c0-1.6-1.2-2.9-2.8-2.9C647.7,222.9,647.7,222.9,647.6,222.9z M624.8,254.1h-5.4v-16.7h5.4V254.1z
	 M622.3,234.9L622.3,234.9c-1.6,0-2.9-1.3-2.8-2.9c0-1.6,1.3-2.9,2.9-2.8c1.6,0,2.8,1.3,2.8,2.9c0.1,1.5-1.1,2.8-2.6,2.9
	C622.5,234.9,622.4,234.9,622.3,234.9L622.3,234.9z M644.4,254.1H639V245c0-2.2-0.8-3.7-2.7-3.7c-1.2,0-2.3,0.8-2.7,2
	c-0.1,0.4-0.2,0.9-0.2,1.3v9.5H628v-16.7h5.4v2.3c1-1.7,2.9-2.8,4.8-2.7c3.5,0,6.2,2.3,6.2,7.3L644.4,254.1z"/>
<polygon class="st16" points="424.3,393.6 427,398.4 513.2,380.1 509.8,374.7 "/>
<path class="st16" d="M414,398.2l-13.1-77.5c-0.2-1.4,0.7-2.6,2-2.9c0,0,0.1,0,0.1,0l99-10.6c1.3-0.1,2.5,0.8,2.7,2.1l9.3,67.9
	L414,398.2z"/>
<path class="st7" d="M414,398.2l-13.1-77.5c-0.2-1.4,0.7-2.6,2-2.9c0,0,0.1,0,0.1,0l99-10.6c1.3-0.1,2.5,0.8,2.7,2.1l9.3,67.9
	L414,398.2z"/>
<path class="st16" d="M415.5,398.2l-13.1-77.5c-0.2-1.3,0.7-2.6,2-2.8c0,0,0.1,0,0.1,0l99-10.6c1.3-0.1,2.5,0.8,2.7,2.1l9.2,67.9
	L415.5,398.2z"/>
<polygon class="st2" points="409.3,324.2 420,390 509.5,371.6 501.2,313.1 "/>
<path class="st17" d="M426.5,396.9l-0.6-1.3l-11.9,2.6l30.2,46.1c0.9,1.4,2.7,2.1,4.4,1.6l106-30.8c2.1-0.6,3.3-2.8,2.7-4.8
	c-0.2-0.8-0.7-1.5-1.4-2l-41.1-31.1l-8.6,2l0.4,0.9L426.5,396.9z"/>
<path class="st7" d="M426.5,396.9l-0.6-1.3l-11.9,2.6l30.2,46.1c0.9,1.4,2.7,2.1,4.4,1.6l106-30.8c2.1-0.6,3.3-2.8,2.7-4.8
	c-0.2-0.8-0.7-1.5-1.4-2l-41.1-31.1l-8.6,2l0.4,0.9L426.5,396.9z"/>
<path class="st17" d="M428,396.9l-0.6-1.3l-11.9,2.6l30.2,46.1c0.9,1.4,2.7,2.1,4.4,1.6l106-30.8c2.1-0.6,3.3-2.8,2.7-4.8
	c-0.2-0.8-0.7-1.5-1.4-2l-41.1-31.1l-8.6,2l0.4,0.9L428,396.9z"/>
<path class="st7" d="M475.3,415.8l34.1-8.9c0.2-0.1,0.4,0,0.6,0.1l15.1,13.7c0.3,0.2,0.3,0.7,0,0.9c-0.1,0.1-0.2,0.2-0.3,0.2
	l-36,10.6c-0.2,0.1-0.5,0-0.7-0.2l-13.2-15.5c-0.2-0.3-0.2-0.7,0.1-0.9C475.1,415.8,475.2,415.8,475.3,415.8z"/>
<path class="st18" d="M476,415l34.1-8.9c0.2-0.1,0.4,0,0.6,0.1l15.1,13.7c0.3,0.2,0.3,0.7,0,0.9c-0.1,0.1-0.2,0.2-0.3,0.2l-36,10.6
	c-0.3,0.1-0.5,0-0.7-0.2l-13.2-15.5c-0.2-0.3-0.2-0.7,0.1-0.9C475.8,415.1,475.9,415,476,415z"/>
<g class="st1">
	<path d="M428,403.3l1.5,2.5c0.1,0.1,0.2,0.2,0.3,0.1l5.2-1.1c0.2,0,0.3-0.2,0.2-0.4c0,0,0-0.1,0-0.1l-1.7-2.4
		c-0.1-0.1-0.2-0.1-0.3-0.1l-5,1.1c-0.2,0-0.3,0.2-0.2,0.3C428,403.2,428,403.3,428,403.3z"/>
	<path d="M434.8,401.9l1.5,2.5c0.1,0.1,0.2,0.2,0.3,0.1l5.2-1.1c0.2,0,0.3-0.2,0.2-0.3c0,0,0-0.1-0.1-0.1l-1.7-2.4
		c-0.1-0.1-0.2-0.1-0.3-0.1l-5,1.1C434.8,401.5,434.7,401.6,434.8,401.9C434.8,401.8,434.8,401.9,434.8,401.9z"/>
	<path d="M441.3,400.5l1.5,2.5c0.1,0.1,0.2,0.2,0.3,0.1l5.2-1.1c0.2,0,0.3-0.2,0.2-0.4c0,0,0-0.1,0-0.1l-1.7-2.4
		c-0.1-0.1-0.2-0.1-0.3-0.1l-5,1.1C441.3,400.1,441.2,400.2,441.3,400.5C441.3,400.4,441.3,400.4,441.3,400.5z"/>
	<path d="M447.8,399.1l1.5,2.4c0.1,0.1,0.2,0.2,0.3,0.1l5.1-1.1c0.2,0,0.3-0.2,0.2-0.4c0,0,0-0.1,0-0.1l-1.7-2.4
		c-0.1-0.1-0.2-0.1-0.3-0.1l-5,1.1C447.8,398.7,447.7,398.8,447.8,399.1C447.8,399,447.8,399,447.8,399.1z"/>
	<path d="M447.3,402.8l1.5,2.5c0.1,0.1,0.2,0.2,0.3,0.1l5.2-1.1c0.2,0,0.3-0.2,0.2-0.3c0,0,0-0.1-0.1-0.1l-1.7-2.4
		c-0.1-0.1-0.2-0.1-0.3-0.1l-5,1.1C447.3,402.4,447.2,402.6,447.3,402.8C447.2,402.8,447.2,402.8,447.3,402.8z"/>
	<path d="M440.6,404.2l1.5,2.5c0.1,0.1,0.2,0.2,0.3,0.1l5.2-1.1c0.2,0,0.3-0.2,0.2-0.3c0,0,0-0.1-0.1-0.1l-1.7-2.3
		c-0.1-0.1-0.2-0.1-0.3-0.1l-5,1.1C440.6,403.9,440.5,404.1,440.6,404.2C440.6,404.2,440.6,404.2,440.6,404.2z"/>
	<path d="M444.9,407.3l1.5,2.5c0.1,0.1,0.2,0.2,0.3,0.1l5.2-1.1c0.2,0,0.3-0.2,0.2-0.3c0,0,0-0.1-0.1-0.1l-1.7-2.4
		c-0.1-0.1-0.2-0.1-0.3-0.1l-5,1.1C444.9,406.9,444.8,407.1,444.9,407.3C444.9,407.2,444.9,407.2,444.9,407.3z"/>
	<path d="M451.1,409.9l1.5,2.5c0.1,0.1,0.2,0.2,0.3,0.1l5.2-1.1c0.2,0,0.3-0.2,0.2-0.3c0,0,0-0.1,0-0.1l-1.7-2.4
		c-0.1-0.1-0.2-0.1-0.3-0.1l-5,1.1C451.1,409.5,451,409.6,451.1,409.9C451,409.8,451.1,409.9,451.1,409.9z"/>
	<path d="M452.1,414.2l2.5,3.1c0.1,0.1,0.2,0.1,0.3,0.1l5.2-1.4c0.2,0,0.3-0.2,0.2-0.4c0,0,0-0.1,0-0.1l-2.6-3.1
		c-0.1-0.1-0.2-0.1-0.3-0.1l-5.1,1.4c-0.2,0-0.2,0.2-0.2,0.4C452.1,414.1,452.1,414.2,452.1,414.2z"/>
	<path d="M458.9,412.5l2.5,3.2c0.1,0.1,0.2,0.1,0.3,0.1l6.8-1.9c0.2,0,0.2-0.2,0.2-0.4c0,0,0-0.1,0-0.1l-2.6-3.1
		c-0.1-0.1-0.2-0.1-0.3-0.1l-6.8,1.8c-0.2,0-0.3,0.2-0.2,0.4C458.9,412.4,458.9,412.5,458.9,412.5z"/>
	<path d="M445.5,415.9l2.5,3.1c0.1,0.1,0.2,0.1,0.3,0.1l5.2-1.4c0.2,0,0.3-0.2,0.2-0.4c0,0,0-0.1,0-0.1l-2.6-3.1
		c-0.1-0.1-0.2-0.1-0.3-0.1l-5.1,1.4C445.5,415.5,445.4,415.6,445.5,415.9C445.5,415.8,445.5,415.9,445.5,415.9z"/>
	<path d="M438.5,417.7l2.5,3.1c0.1,0.1,0.2,0.1,0.3,0.1l5.2-1.4c0.2,0,0.3-0.2,0.2-0.4c0,0,0-0.1,0-0.1l-2.5-3.1
		c-0.1-0.1-0.2-0.1-0.3-0.1l-5.1,1.4c-0.2,0-0.3,0.2-0.2,0.4C438.4,417.6,438.4,417.6,438.5,417.7z"/>
	<path d="M454.2,397.6l1.5,2.4c0.1,0.1,0.2,0.2,0.3,0.1l5.1-1.1c0.2,0,0.3-0.2,0.2-0.4c0,0,0-0.1-0.1-0.1l-1.7-2.4
		c-0.1-0.1-0.2-0.1-0.3-0.1l-4.9,1.1c-0.2,0-0.3,0.2-0.3,0.3C454.2,397.5,454.2,397.5,454.2,397.6z"/>
	<path d="M453.8,401.3l1.5,2.4c0.1,0.1,0.2,0.2,0.3,0.1l5.1-1.1c0.2,0,0.3-0.2,0.2-0.4c0,0,0-0.1-0.1-0.1l-1.6-2.4
		c-0.1-0.1-0.2-0.1-0.3-0.1l-4.9,1.1c-0.2,0-0.3,0.2-0.3,0.3C453.8,401.3,453.8,401.3,453.8,401.3z"/>
	<path d="M460.5,396.1l1.5,2.4c0.1,0.1,0.2,0.2,0.3,0.1l5.1-1.1c0.2,0,0.3-0.2,0.2-0.4c0,0,0-0.1-0.1-0.1l-1.7-2.4
		c-0.1-0.1-0.2-0.1-0.3-0.1l-4.9,1.1c-0.2,0-0.3,0.2-0.2,0.4C460.5,396.1,460.5,396.1,460.5,396.1z"/>
	<path d="M478.9,392.1l2.1,2.3c0.1,0.1,0.2,0.1,0.2,0.1l4.6-1.1c0.1,0,0.2-0.2,0.2-0.3c0-0.1,0-0.1-0.1-0.1l-2.4-2.3
		c-0.1-0.1-0.2-0.1-0.2-0.1l-4.3,1.1c-0.1,0-0.2,0.2-0.2,0.3C478.8,392.1,478.8,392.1,478.9,392.1z"/>
	<path d="M484.7,390.8l2.1,2.3c0.1,0.1,0.2,0.1,0.2,0.1l4.6-1.1c0.1,0,0.2-0.1,0.2-0.3c0-0.1,0-0.1-0.1-0.1l-2.4-2.3
		c-0.1-0.1-0.2-0.1-0.2-0.1l-4.3,1.1C484.7,390.4,484.6,390.5,484.7,390.8C484.7,390.7,484.7,390.7,484.7,390.8z"/>
	<path d="M479,395.8l2.1,2.3c0.1,0.1,0.2,0.1,0.2,0.1l4.6-1c0.1,0,0.2-0.2,0.2-0.3c0-0.1,0-0.1-0.1-0.1l-2.4-2.3
		c-0.1-0.1-0.1-0.1-0.2-0.1l-4.3,1.1c-0.1,0-0.2,0.2-0.2,0.3C478.9,395.7,478.9,395.7,479,395.8z"/>
	<path d="M473,397.2l2,2.2c0.1,0.1,0.2,0.1,0.3,0.1l4.4-1c0.2,0,0.3-0.2,0.2-0.4c0-0.1,0-0.1-0.1-0.1l-2.3-2.2
		c-0.1-0.1-0.2-0.1-0.3-0.1l-4.2,1c-0.2,0.1-0.3,0.2-0.2,0.4C472.9,397.1,472.9,397.1,473,397.2z"/>
	<path d="M477.5,404l2,2.2c0.1,0.1,0.2,0.1,0.3,0.1l4.4-1c0.2,0,0.3-0.2,0.2-0.4c0-0.1,0-0.1-0.1-0.2l-2.3-2.2
		c-0.1-0.1-0.2-0.1-0.3-0.1l-4.2,1c-0.2,0.1-0.3,0.2-0.2,0.4C477.5,403.9,477.5,404,477.5,404z"/>
	<path d="M471.3,405.4l2,2.2c0.1,0.1,0.2,0.1,0.3,0.1l4.4-1c0.2,0,0.3-0.2,0.2-0.4c0-0.1,0-0.1-0.1-0.2l-2.3-2.2
		c-0.1-0.1-0.2-0.1-0.3-0.1l-4.2,1c-0.2,0.1-0.2,0.2-0.2,0.4C471.2,405.3,471.2,405.4,471.3,405.4z"/>
	<path d="M464.9,407l2,2.2c0.1,0.1,0.2,0.1,0.3,0.1l4.4-1c0.2,0,0.3-0.2,0.2-0.4c0-0.1,0-0.1-0.1-0.1l-2.3-2.2
		c-0.1-0.1-0.2-0.1-0.3-0.1l-4.2,1c-0.2,0-0.3,0.2-0.2,0.4C464.8,406.9,464.9,406.9,464.9,407z"/>
	<path d="M458.2,408.3l2.1,2.2c0.1,0.1,0.2,0.1,0.3,0.1l4.5-1c0.2,0,0.3-0.2,0.2-0.3c0-0.1,0-0.1-0.1-0.2l-2.3-2.2
		c-0.1-0.1-0.2-0.1-0.3-0.1l-4.2,1c-0.2,0-0.3,0.1-0.3,0.3C458.1,408.2,458.1,408.3,458.2,408.3z"/>
	<path d="M471.2,401.5l2,2.2c0.1,0.1,0.2,0.1,0.3,0.1l4.4-1c0.2,0,0.3-0.2,0.2-0.4c0-0.1,0-0.1-0.1-0.2l-2.3-2.2
		c-0.1-0.1-0.2-0.1-0.3-0.1l-4.2,1c-0.2,0-0.3,0.2-0.2,0.4C471.1,401.4,471.1,401.4,471.2,401.5z"/>
	<path d="M465.1,402.9l2,2.1c0.1,0.1,0.2,0.1,0.3,0.1l4.4-1c0.2,0,0.3-0.2,0.2-0.4c0-0.1,0-0.1-0.1-0.2l-2.3-2.2
		c-0.1-0.1-0.2-0.1-0.3-0.1l-4.2,1c-0.2,0-0.3,0.2-0.2,0.4C465,402.8,465,402.8,465.1,402.9z"/>
	<path d="M458.5,404.3l2,2.2c0.1,0.1,0.2,0.1,0.3,0.1l4.4-1c0.2,0,0.3-0.2,0.2-0.4c0-0.1,0-0.1-0.1-0.2l-2.3-2.2
		c-0.1-0.1-0.2-0.1-0.3-0.1l-4.2,1c-0.2,0.1-0.3,0.2-0.2,0.4C458.5,404.2,458.5,404.2,458.5,404.3z"/>
	<path d="M451.8,405.9l2.1,2.2c0.1,0.1,0.2,0.1,0.3,0.1l4.5-1c0.2,0,0.3-0.2,0.2-0.3c0-0.1,0-0.1-0.1-0.2l-2.3-2.2
		c-0.1-0.1-0.2-0.1-0.3-0.1l-4.2,1c-0.2,0-0.3,0.2-0.2,0.4C451.7,405.8,451.8,405.8,451.8,405.9z"/>
	<path d="M477.5,400l2,2.1c0.1,0.1,0.2,0.1,0.3,0.1l4.4-1c0.2,0,0.3-0.2,0.2-0.4c0-0.1,0-0.1-0.1-0.2l-2.3-2.2
		c-0.1-0.1-0.2-0.1-0.3-0.1l-4.2,1c-0.2,0.1-0.2,0.2-0.2,0.4C477.4,399.9,477.5,400,477.5,400z"/>
	<path d="M466.8,398.8l2,2.2c0.1,0.1,0.2,0.1,0.3,0.1l4.4-1c0.2,0,0.3-0.2,0.2-0.4c0-0.1,0-0.1-0.1-0.2l-2.3-2.2
		c-0.1-0.1-0.2-0.1-0.3-0.1l-4.2,1c-0.2,0.1-0.3,0.2-0.2,0.4C466.7,398.7,466.8,398.7,466.8,398.8z"/>
	<path d="M490.4,389.3l2.2,2.4c0,0.1,0.1,0.1,0.2,0.1l4.7-1.1c0.1,0,0.2-0.1,0.1-0.2c0,0,0-0.1-0.1-0.1l-2.5-2.4c-0.1,0-0.1,0-0.2,0
		l-4.4,1.1C490.4,389.1,490.3,389.2,490.4,389.3C490.4,389.3,490.4,389.3,490.4,389.3z"/>
	<path d="M496.1,388.1l2.2,2.4c0,0,0.1,0.1,0.2,0.1l4.7-1.1c0.1,0,0.2-0.1,0.1-0.2c0,0,0-0.1-0.1-0.1l-2.5-2.4c-0.1,0-0.1,0-0.2,0
		l-4.5,1.1C496.1,387.8,496,387.9,496.1,388.1C496.1,388,496.1,388.1,496.1,388.1z"/>
	<path d="M501.9,386.7l2,2.2c0,0.1,0.1,0.1,0.2,0.1l4.4-1.2c0.1,0,0.2-0.2,0.1-0.3c0,0,0-0.1,0-0.1l-2.3-1.9c-0.1,0-0.1,0-0.2,0
		l-4.2,0.9C501.9,386.5,501.9,386.6,501.9,386.7C501.9,386.7,501.9,386.7,501.9,386.7z"/>
	<path d="M508.1,388.8l2,2.2c0,0,0.1,0.1,0.2,0.1l4.4-1.2c0.1,0,0.2-0.1,0.1-0.2c0,0,0-0.1-0.1-0.1l-2.3-1.9c0,0-0.1,0-0.2,0
		l-4.2,0.9C508,388.6,508,388.7,508.1,388.8C508.1,388.8,508.1,388.8,508.1,388.8z"/>
	<path d="M507.3,392.8l1.9,2.1c0.1,0.1,0.2,0.1,0.2,0.1l4.2-1.1c0.1,0,0.2-0.2,0.2-0.3c0-0.1,0-0.1-0.1-0.1l-2.1-1.8
		c-0.1-0.1-0.1-0.1-0.2,0l-4,0.9c-0.1,0-0.2,0.1-0.2,0.3C507.3,392.7,507.3,392.7,507.3,392.8z"/>
	<path d="M502.3,397.9l1.9,2.1c0.1,0.1,0.2,0.1,0.2,0.1l4.3-1.2c0.1,0,0.2-0.2,0.2-0.3c0,0,0-0.1-0.1-0.1l-2.2-1.8
		c-0.1,0-0.2,0-0.2,0l-4,0.9C502.4,397.5,502.3,397.7,502.3,397.9C502.3,397.8,502.3,397.9,502.3,397.9z"/>
	<path d="M496.3,399.4l1.9,2.1c0.1,0.1,0.2,0.1,0.2,0.1l4.2-1.1c0.1,0,0.2-0.2,0.2-0.3c0-0.1,0-0.1-0.1-0.1l-2.2-1.8
		c-0.1,0-0.2,0-0.2,0l-4,0.9C496.3,399.1,496.2,399.2,496.3,399.4C496.3,399.4,496.3,399.4,496.3,399.4z"/>
	<path d="M508,396.4l1.9,2.1c0.1,0.1,0.2,0.1,0.2,0.1l4.2-1.2c0.1,0,0.2-0.2,0.2-0.3c0-0.1,0-0.1-0.1-0.1l-2.2-1.8
		c-0.1,0-0.1-0.1-0.2-0.1l-4,0.9c-0.1,0-0.2,0.2-0.2,0.3C508,396.3,508,396.3,508,396.4z"/>
	<path d="M507,400.9l2.9,2.6c0.1,0,0.2,0,0.2,0l4.2-1.2c0.1,0,0.2-0.2,0.2-0.3c0,0,0-0.1-0.1-0.1l-3.1-2.8c-0.1,0-0.2,0-0.2,0
		l-4,1.3c-0.1,0-0.2,0.2-0.2,0.3C507,400.8,507,400.8,507,400.9z"/>
	<path d="M496.8,391.6l2,2.2c0,0.1,0.1,0.1,0.2,0l4.4-1.2c0.1,0,0.2-0.1,0.1-0.2c0,0,0-0.1-0.1-0.1l-2.3-1.9c-0.1,0-0.1,0-0.2,0
		l-4.2,0.9C496.8,391.4,496.7,391.5,496.8,391.6C496.8,391.6,496.8,391.6,496.8,391.6z"/>
	<path d="M491.1,393l1.9,2.1c0.1,0.1,0.2,0.1,0.2,0.1l4.2-1.2c0.1,0,0.2-0.2,0.2-0.3c0-0.1,0-0.1-0.1-0.1l-2.2-1.8
		c-0.1,0-0.1-0.1-0.2-0.1l-4,0.9c-0.1,0-0.2,0.1-0.2,0.3C491.1,392.9,491.1,393,491.1,393z"/>
	<path d="M490,397.1l1.9,2.1c0.1,0.1,0.2,0.1,0.2,0.1l4.2-1.2c0.1,0,0.2-0.2,0.2-0.3c0,0,0-0.1-0.1-0.1l-2.2-1.8
		c-0.1-0.1-0.1-0.1-0.2,0l-4,0.9c-0.1,0-0.2,0.2-0.2,0.3C489.9,397,489.9,397,490,397.1z"/>
	<path d="M484,398.5l1.9,2.1c0.1,0.1,0.2,0.1,0.2,0.1l4.2-1.2c0.1,0,0.2-0.2,0.2-0.3c0,0,0-0.1-0.1-0.1l-2.2-1.8
		c-0.1-0.1-0.1-0.1-0.2,0l-4,0.9c-0.1,0-0.2,0.1-0.2,0.3C483.9,398.4,484,398.5,484,398.5z"/>
	<path d="M485.1,394.4l1.9,2.1c0.1,0.1,0.2,0.1,0.2,0.1l4.2-1.2c0.1,0,0.2-0.2,0.2-0.3c0,0,0-0.1-0.1-0.1l-2.2-1.8
		c-0.1-0.1-0.1-0.1-0.2,0l-4,0.9c-0.1,0-0.2,0.2-0.2,0.3C485,394.3,485,394.3,485.1,394.4z"/>
	<path d="M490.1,400.8l1.9,2.1c0.1,0.1,0.2,0.1,0.2,0.1l4.2-1.2c0.1,0,0.2-0.2,0.2-0.3c0,0,0-0.1-0.1-0.1l-2.2-1.8
		c-0.1-0.1-0.1-0.1-0.2,0l-4,0.9c-0.1,0-0.2,0.2-0.2,0.3C490,400.7,490,400.7,490.1,400.8z"/>
	<path d="M484.2,402.4l1.8,2c0.1,0.1,0.2,0.1,0.3,0.1l4.1-1.1c0.2,0,0.3-0.2,0.2-0.4c0-0.1-0.1-0.1-0.1-0.2l-2-1.7
		c-0.1-0.1-0.2-0.1-0.3-0.1l-3.9,0.9c-0.2,0-0.3,0.2-0.3,0.3C484.1,402.3,484.2,402.3,484.2,402.4z"/>
	<path d="M502.6,390.2l2,2.2c0.1,0,0.1,0,0.2,0l4.4-1.2c0.1,0,0.2-0.1,0.1-0.2c0,0,0-0.1-0.1-0.1l-2.3-1.9c-0.1,0-0.1,0-0.2,0
		l-4.2,0.9C502.6,389.9,502.5,390,502.6,390.2C502.6,390.1,502.6,390.1,502.6,390.2z"/>
	<path d="M501.8,394.1l1.9,2.1c0.1,0.1,0.2,0.1,0.2,0.1l4.2-1.2c0.1,0,0.2-0.2,0.2-0.3c0,0,0-0.1-0.1-0.1l-2.1-1.8
		c-0.1-0.1-0.1-0.1-0.2,0l-4,0.9c-0.1,0-0.2,0.1-0.2,0.3C501.7,394,501.8,394.1,501.8,394.1z"/>
	<path d="M496.1,395.7l1.9,2.1c0.1,0.1,0.2,0.1,0.2,0.1l4.2-1.2c0.1,0,0.2-0.2,0.2-0.3c0,0,0-0.1-0.1-0.1l-2.2-1.8
		c-0.1,0-0.1-0.1-0.2-0.1l-4,0.9c-0.1,0-0.2,0.1-0.2,0.3C496,395.6,496,395.7,496.1,395.7z"/>
	<path d="M472.9,393.4l2.1,2.3c0.1,0.1,0.2,0.1,0.2,0.1l4.6-1.1c0.1,0,0.2-0.2,0.2-0.3c0-0.1,0-0.1-0.1-0.1l-2.4-2.3
		c-0.1-0.1-0.2-0.1-0.2-0.1L473,393C472.8,393,472.8,393.2,472.9,393.4C472.8,393.4,472.8,393.4,472.9,393.4z"/>
	<path d="M466.8,394.9l2,2.2c0.1,0.1,0.2,0.1,0.3,0.1l4.4-1c0.2,0,0.3-0.2,0.2-0.4c0-0.1,0-0.1-0.1-0.1l-2.3-2.2
		c-0.1-0.1-0.2-0.1-0.3-0.1l-4.2,1c-0.2,0.1-0.3,0.2-0.2,0.4C466.7,394.8,466.8,394.8,466.8,394.9z"/>
	<path d="M460.2,400l1.5,2.4c0.1,0.1,0.2,0.2,0.3,0.1l5.1-1.1c0.2,0,0.3-0.2,0.2-0.4c0,0,0-0.1-0.1-0.1l-1.7-2.3
		c-0.1-0.1-0.2-0.1-0.3-0.1l-5,1.1C460.2,399.6,460.1,399.7,460.2,400C460.2,399.9,460.2,400,460.2,400z"/>
	<path d="M426.7,400.9l5-1.2c0.1,0,0.2,0,0.3,0.1l0.9,1.2c0.1,0.1,0.1,0.3-0.1,0.4c0,0-0.1,0-0.1,0.1l-5.2,1.2c-0.1,0-0.3,0-0.3-0.1
		l-0.7-1.2C426.4,401.2,426.5,401,426.7,400.9C426.7,400.9,426.7,400.9,426.7,400.9z"/>
	<path d="M433.7,399.4l5-1.2c0.1,0,0.2,0,0.3,0.1l0.9,1.2c0.1,0.1,0.1,0.3-0.1,0.4c0,0-0.1,0-0.1,0.1l-5.2,1.2c-0.1,0-0.3,0-0.3-0.1
		l-0.7-1.2c-0.1-0.1,0-0.3,0.1-0.4C433.6,399.4,433.6,399.4,433.7,399.4z"/>
	<path d="M440.4,397.9l5-1.2c0.1,0,0.2,0,0.3,0.1l0.9,1.2c0.1,0.1,0.1,0.3-0.1,0.4c0,0-0.1,0-0.1,0.1l-5.2,1.2c-0.1,0-0.3,0-0.3-0.1
		l-0.7-1.2c-0.1-0.1,0-0.3,0.1-0.4C440.3,397.9,440.3,397.9,440.4,397.9z"/>
	<path d="M446.9,396.4l5-1.2c0.1,0,0.2,0,0.3,0.1l0.9,1.2c0.1,0.1,0.1,0.3-0.1,0.4c0,0-0.1,0-0.1,0.1l-5.1,1.2c-0.1,0-0.3,0-0.3-0.1
		l-0.7-1.2C446.7,396.7,446.7,396.5,446.9,396.4C446.9,396.4,446.9,396.4,446.9,396.4z"/>
	<path d="M453.6,395l5-1.2c0.1,0,0.2,0,0.3,0.1l0.9,1.1c0.1,0.1,0.1,0.3-0.1,0.4c0,0-0.1,0-0.1,0.1l-5.2,1.2c-0.1,0-0.3,0-0.3-0.1
		l-0.7-1.2C453.3,395.3,453.3,395.1,453.6,395C453.5,395,453.5,395,453.6,395z"/>
	<path d="M460,393.6l5-1.2c0.1,0,0.2,0,0.3,0.1l0.9,1.1c0.1,0.1,0.1,0.3-0.1,0.4c0,0-0.1,0-0.1,0.1l-5.2,1.2c-0.1,0-0.3,0-0.3-0.1
		l-0.7-1.2c-0.1-0.1,0-0.3,0.1-0.4C459.9,393.6,460,393.6,460,393.6z"/>
	<path d="M466.3,392.3l4.6-1.1c0.1,0,0.2,0,0.3,0.1l0.9,0.9c0.1,0.1,0.1,0.3,0,0.4c0,0-0.1,0.1-0.1,0.1l-4.6,1.1
		c-0.1,0-0.2,0-0.3-0.1l-1-1c-0.1-0.1-0.1-0.3,0.1-0.4C466.2,392.3,466.3,392.3,466.3,392.3z"/>
	<path d="M472.5,390.9l4.8-1.2c0.1,0,0.2,0,0.2,0.1l1,1c0.1,0.1,0.1,0.2,0,0.3c0,0-0.1,0.1-0.1,0.1l-4.7,1.2c-0.1,0-0.2,0-0.2-0.1
		l-1-1.1c-0.1-0.1-0.1-0.3,0-0.4C472.4,390.9,472.4,390.9,472.5,390.9z"/>
	<path d="M478.6,389.5l4.8-1.2c0.1,0,0.2,0,0.2,0.1l1,1c0.1,0.1,0.1,0.3,0,0.4c0,0-0.1,0-0.1,0.1l-4.7,1.2c-0.1,0-0.2,0-0.2-0.1
		l-1.1-1.1c-0.1-0.1-0.1-0.3,0-0.4C478.5,389.5,478.5,389.5,478.6,389.5z"/>
	<path d="M484.7,388.2l4.8-1.2c0.1,0,0.2,0,0.2,0.1l1,1c0.1,0.1,0.1,0.3,0,0.4c0,0-0.1,0-0.1,0.1l-4.7,1.2c-0.1,0-0.2,0-0.2-0.1
		l-1-1.1C484.5,388.4,484.5,388.3,484.7,388.2C484.7,388.2,484.7,388.2,484.7,388.2z"/>
	<path d="M490.5,386.8l4.9-1.2c0.1,0,0.1,0,0.2,0l1.1,1.1c0.1,0.1,0.1,0.2,0,0.3c0,0-0.1,0-0.1,0.1l-4.8,1.3c-0.1,0-0.1,0-0.2,0
		l-1.2-1.2c-0.1,0-0.2-0.1-0.1-0.2C490.4,386.9,490.4,386.8,490.5,386.8z"/>
	<path d="M496.4,385.6l4.9-1.2c0.1,0,0.1,0,0.2,0.1l1.1,1.1c0.1,0.1,0.1,0.2,0,0.3c0,0,0,0-0.1,0l-4.9,1.2c-0.1,0-0.1,0-0.2,0
		l-1.2-1.2c-0.1-0.1-0.1-0.2,0-0.3C496.3,385.6,496.3,385.6,496.4,385.6z"/>
	<path d="M502.2,384.2l4.5-1c0.1,0,0.1,0,0.2,0.1l0.9,1.1c0.1,0.1,0.1,0.2,0,0.3c0,0,0,0-0.1,0l-4.3,1.1c-0.1,0-0.1,0-0.2,0
		l-1.2-1.2c-0.1,0-0.2-0.1-0.1-0.2C502,384.2,502.1,384.2,502.2,384.2z"/>
	<path d="M507.8,382.9l4.5-1c0.1,0,0.1,0,0.2,0.1l0.9,1.1c0.1,0.1,0,0.2,0,0.3c0,0,0,0-0.1,0l-4.3,1.1c-0.1,0-0.1,0-0.2,0l-1.2-1.2
		c-0.1,0-0.2-0.1-0.2-0.2C507.6,383,507.7,382.9,507.8,382.9L507.8,382.9z"/>
	<path d="M430.3,406.9l1.7,2.4c0.1,0.1,0.2,0.1,0.3,0.1l8.8-2c0.2,0,0.3-0.2,0.2-0.4c0,0,0-0.1-0.1-0.1l-1.8-2.5
		c-0.1-0.1-0.2-0.1-0.3-0.1l-8.6,2.1C430.3,406.5,430.2,406.7,430.3,406.9C430.2,406.9,430.2,406.9,430.3,406.9z"/>
	<path d="M432.9,410.1l1.7,2.7c0.1,0.1,0.2,0.2,0.3,0.1l10.6-2.5c0.2,0,0.3-0.2,0.2-0.3c0,0,0-0.1-0.1-0.1l-2.1-2.6
		c-0.1-0.1-0.2-0.1-0.3-0.1l-10.2,2.4C432.9,409.7,432.8,409.9,432.9,410.1C432.9,410,432.9,410.1,432.9,410.1z"/>
	<path d="M435.3,413.6l2,2.9c0.1,0.1,0.2,0.1,0.3,0.1l14-3.5c0.2,0,0.3-0.2,0.2-0.4c0,0,0-0.1-0.1-0.1l-2.3-2.9
		c-0.1-0.1-0.2-0.1-0.3-0.1l-13.8,3.5C435.2,413.3,435.2,413.4,435.3,413.6C435.3,413.6,435.3,413.6,435.3,413.6z"/>
	<path d="M467.3,410.5l2.6,3.1c0.1,0.1,0.2,0.1,0.3,0.1L501,406c0.2,0,0.3-0.2,0.2-0.4c0-0.1,0-0.1-0.1-0.2l-3.1-3.1
		c-0.1-0.1-0.2-0.1-0.3-0.1l-30.2,7.7c-0.2,0-0.3,0.2-0.2,0.4C467.3,410.4,467.3,410.4,467.3,410.5z"/>
	<path d="M499.1,402.5l3,3c0.1,0.1,0.2,0.1,0.2,0.1l6.3-1.7c0.1,0,0.2-0.2,0.2-0.3c0,0,0-0.1-0.1-0.1l-3.1-3.1
		c-0.1-0.1-0.2-0.1-0.2-0.1l-6.2,1.7c-0.1,0-0.2,0.1-0.2,0.3C499,402.4,499.1,402.5,499.1,402.5z"/>
	<path d="M514.4,400.6l1.4,1.5c0,0,0.1,0.1,0.2,0l4.7-1.3c0.1,0,0.2-0.1,0.1-0.2c0,0,0-0.1-0.1-0.1L519,399c-0.1,0-0.1,0-0.2,0
		l-4.4,1.4C514.4,400.4,514.3,400.5,514.4,400.6C514.4,400.6,514.4,400.6,514.4,400.6z"/>
	<path d="M518.4,397.5l1.6,1.7c0,0.1,0.1,0.1,0.2,0l4.3-1.5c0.1,0,0.2-0.1,0.1-0.2c0,0,0-0.1-0.1-0.1L523,396c-0.1,0-0.1,0-0.2,0
		l-4.3,1.2C518.4,397.3,518.3,397.4,518.4,397.5C518.4,397.5,518.4,397.5,518.4,397.5z"/>
	<path d="M521.5,400.5l-1.2-1c-0.1-0.1-0.1-0.2,0-0.3c0,0,0,0,0.1-0.1l4.3-1.5c0.1,0,0.1,0,0.2,0l1.3,1.3c0.1,0.1,0.1,0.2,0,0.3
		c0,0-0.1,0-0.1,0.1l-4.4,1.1C521.6,400.5,521.6,400.5,521.5,400.5z"/>
	<path d="M525.9,397.8c0.4,0.4,1,1.1,1.3,1.3c0,0,0.1,0.1,0.2,0l4.5-1.2c0.1,0,0.2-0.1,0.1-0.2c0,0,0-0.1-0.1-0.1l-1.6-1.4
		c-0.1,0-0.1,0-0.2,0l-4.1,1.3C525.9,397.6,525.9,397.7,525.9,397.8C525.9,397.8,525.9,397.8,525.9,397.8z"/>
	<path d="M513.4,395l2.4,2.3c0,0,0.1,0.1,0.2,0l11.5-3c0.1,0,0.2-0.1,0.1-0.2c0,0,0-0.1-0.1-0.1l-2.8-2.3c-0.1,0-0.1,0-0.2,0
		l-11.1,3c-0.1,0-0.2,0.1-0.2,0.2C513.4,394.9,513.4,395,513.4,395z"/>
	<path d="M512.6,391.5l2.5,2.2c0.1,0,0.1,0,0.2,0l8.6-2c0.1,0,0.2-0.1,0.1-0.2c0,0,0-0.1-0.1-0.1l-2.8-2.4c-0.1,0-0.1,0-0.2,0
		l-8.3,2.2C512.6,391.2,512.6,391.3,512.6,391.5C512.6,391.4,512.6,391.5,512.6,391.5z"/>
	<path d="M513.4,387.7l2.3,2.1c0.1,0,0.1,0,0.2,0l4.4-1c0.1,0,0.2-0.1,0.1-0.2c0,0,0-0.1,0-0.1l-2.8-2.4c-0.1,0-0.1,0-0.2,0l-4,1.3
		c-0.1,0-0.2,0.1-0.2,0.2C513.3,387.6,513.4,387.7,513.4,387.7z"/>
	<path d="M507.4,385.6l2.3,2c0.1,0,0.1,0,0.2,0l7-1.7c0.1,0,0.2-0.1,0.1-0.2c0,0,0-0.1-0.1-0.1l-2.7-2.2c-0.1,0-0.1,0-0.2,0
		l-6.6,1.9C507.3,385.3,507.3,385.5,507.4,385.6C507.3,385.6,507.3,385.6,507.4,385.6z"/>
</g>
<path class="st16" d="M428,402.5l1.5,2.5c0.1,0.1,0.2,0.2,0.3,0.1l5.2-1.1c0.2,0,0.3-0.2,0.2-0.4c0,0,0-0.1,0-0.1l-1.7-2.4
	c-0.1-0.1-0.2-0.1-0.3-0.1l-5,1.1C428,402.1,427.9,402.3,428,402.5C428,402.5,428,402.5,428,402.5z"/>
<path class="st16" d="M434.8,401.1l1.5,2.5c0.1,0.1,0.2,0.2,0.3,0.1l5.2-1.1c0.2,0,0.3-0.2,0.2-0.3c0,0,0-0.1-0.1-0.1l-1.7-2.4
	c-0.1-0.1-0.2-0.1-0.3-0.1l-5,1.1C434.8,400.7,434.7,400.9,434.8,401.1C434.8,401.1,434.8,401.1,434.8,401.1z"/>
<path class="st16" d="M441.3,399.7l1.5,2.5c0.1,0.1,0.2,0.2,0.3,0.1l5.2-1.1c0.2,0,0.3-0.2,0.2-0.3c0,0,0-0.1,0-0.1l-1.7-2.4
	c-0.1-0.1-0.2-0.1-0.3-0.1l-5,1.1C441.3,399.3,441.2,399.5,441.3,399.7C441.3,399.6,441.3,399.7,441.3,399.7z"/>
<path class="st16" d="M447.8,398.3l1.5,2.4c0.1,0.1,0.2,0.2,0.3,0.1l5.1-1.1c0.2,0,0.3-0.2,0.2-0.4c0,0,0-0.1,0-0.1l-1.7-2.4
	c-0.1-0.1-0.2-0.2-0.3-0.1l-5,1.1C447.8,397.9,447.7,398.1,447.8,398.3C447.8,398.3,447.8,398.3,447.8,398.3z"/>
<path class="st16" d="M447.3,402.1l1.5,2.5c0.1,0.1,0.2,0.2,0.3,0.1l5.2-1.1c0.2,0,0.3-0.2,0.2-0.3c0,0,0-0.1-0.1-0.1l-1.7-2.4
	c-0.1-0.1-0.2-0.1-0.3-0.1l-5,1.1C447.3,401.7,447.2,401.8,447.3,402.1C447.2,402,447.2,402,447.3,402.1z"/>
<path class="st16" d="M440.6,403.5l1.5,2.5c0.1,0.1,0.2,0.2,0.3,0.1l5.2-1.1c0.2,0,0.3-0.2,0.2-0.3c0,0,0-0.1-0.1-0.1l-1.7-2.4
	c-0.1-0.1-0.2-0.1-0.3-0.1l-5,1.1C440.6,403.1,440.5,403.3,440.6,403.5C440.5,403.4,440.6,403.5,440.6,403.5z"/>
<path class="st16" d="M444.9,406.5l1.5,2.5c0.1,0.1,0.2,0.2,0.3,0.1l5.2-1.1c0.2,0,0.3-0.2,0.2-0.3c0,0,0-0.1-0.1-0.1l-1.7-2.4
	c-0.1-0.1-0.2-0.1-0.3-0.1l-5,1.1C444.9,406.1,444.8,406.3,444.9,406.5C444.9,406.5,444.9,406.5,444.9,406.5z"/>
<path class="st16" d="M451.1,409.1l1.5,2.5c0.1,0.1,0.2,0.2,0.3,0.1l5.2-1.1c0.2,0,0.3-0.2,0.2-0.4c0,0,0-0.1,0-0.1l-1.7-2.4
	c-0.1-0.1-0.2-0.1-0.3-0.1l-5,1.1C451.1,408.8,451,408.9,451.1,409.1C451,409.1,451.1,409.1,451.1,409.1z"/>
<path class="st16" d="M452.1,413.4l2.5,3.1c0.1,0.1,0.2,0.1,0.3,0.1l5.2-1.4c0.2,0,0.3-0.2,0.2-0.4c0,0,0-0.1,0-0.1l-2.6-3.1
	c-0.1-0.1-0.2-0.1-0.3-0.1l-5.1,1.4C452.1,413,452,413.2,452.1,413.4C452.1,413.4,452.1,413.4,452.1,413.4z"/>
<path class="st16" d="M458.9,411.7l2.5,3.2c0.1,0.1,0.2,0.1,0.3,0.1l6.8-1.9c0.2,0,0.2-0.2,0.2-0.4c0,0,0-0.1,0-0.1l-2.6-3.1
	c-0.1-0.1-0.2-0.1-0.3-0.1l-6.8,1.8c-0.2,0-0.3,0.2-0.2,0.4C458.9,411.7,458.9,411.7,458.9,411.7z"/>
<path class="st16" d="M445.5,415.1l2.5,3.1c0.1,0.1,0.2,0.1,0.3,0.1l5.2-1.4c0.2,0,0.3-0.2,0.2-0.4c0,0,0-0.1,0-0.1l-2.6-3.1
	c-0.1-0.1-0.2-0.1-0.3-0.1l-5.1,1.4C445.5,414.7,445.4,414.8,445.5,415.1C445.5,415,445.5,415.1,445.5,415.1z"/>
<path class="st16" d="M438.5,416.9l2.5,3.1c0.1,0.1,0.2,0.1,0.3,0.1l5.2-1.4c0.2,0,0.3-0.2,0.2-0.4c0,0,0-0.1,0-0.1l-2.5-3.1
	c-0.1-0.1-0.2-0.1-0.3-0.1l-5.1,1.4c-0.2,0-0.2,0.2-0.2,0.4C438.4,416.8,438.4,416.8,438.5,416.9z"/>
<path class="st16" d="M454.2,396.8l1.5,2.4c0.1,0.1,0.2,0.2,0.3,0.1l5.1-1.1c0.2,0,0.3-0.2,0.2-0.4c0,0,0-0.1-0.1-0.1l-1.7-2.4
	c-0.1-0.1-0.2-0.1-0.3-0.1l-4.9,1.1c-0.2,0-0.3,0.2-0.2,0.4C454.2,396.7,454.2,396.8,454.2,396.8z"/>
<path class="st16" d="M453.8,400.6l1.5,2.4c0.1,0.1,0.2,0.2,0.3,0.1l5.1-1.1c0.2,0,0.3-0.2,0.2-0.4c0,0,0-0.1-0.1-0.1l-1.7-2.3
	c-0.1-0.1-0.2-0.2-0.3-0.1l-4.9,1.1c-0.2,0-0.3,0.2-0.2,0.4C453.8,400.5,453.8,400.5,453.8,400.6z"/>
<path class="st16" d="M460.5,395.4l1.5,2.4c0.1,0.1,0.2,0.2,0.3,0.1l5.1-1.1c0.2,0,0.3-0.2,0.2-0.4c0,0,0-0.1-0.1-0.1L466,394
	c-0.1-0.1-0.2-0.1-0.3-0.1l-4.9,1c-0.2,0-0.3,0.2-0.3,0.4C460.5,395.3,460.5,395.3,460.5,395.4z"/>
<path class="st16" d="M478.9,391.4l2.1,2.3c0.1,0.1,0.2,0.1,0.2,0.1l4.6-1.1c0.1,0,0.2-0.2,0.2-0.3c0-0.1,0-0.1-0.1-0.1l-2.4-2.3
	c-0.1-0.1-0.2-0.1-0.2-0.1L479,391c-0.1,0-0.2,0.2-0.2,0.3C478.8,391.3,478.8,391.3,478.9,391.4z"/>
<path class="st16" d="M484.7,390l2.1,2.2c0.1,0.1,0.2,0.1,0.2,0.1l4.6-1.1c0.1,0,0.2-0.2,0.2-0.3c0,0,0-0.1-0.1-0.1l-2.4-2.3
	c-0.1-0.1-0.2-0.1-0.2-0.1l-4.3,1.1C484.7,389.7,484.6,389.8,484.7,390C484.7,390,484.7,390,484.7,390z"/>
<path class="st16" d="M479,395l2.1,2.3c0.1,0.1,0.2,0.1,0.2,0.1l4.6-1.1c0.1,0,0.2-0.2,0.2-0.3c0-0.1,0-0.1-0.1-0.1l-2.4-2.3
	c-0.1-0.1-0.1-0.1-0.2-0.1l-4.3,1.1c-0.1,0-0.2,0.2-0.2,0.3C478.9,395,478.9,395,479,395z"/>
<path class="st16" d="M473,396.4l2,2.1c0.1,0.1,0.2,0.1,0.3,0.1l4.4-1c0.2,0,0.3-0.2,0.2-0.4c0-0.1,0-0.1-0.1-0.2l-2.3-2.2
	c-0.1-0.1-0.2-0.1-0.3-0.1l-4.2,1c-0.2,0-0.3,0.2-0.2,0.4C472.9,396.3,472.9,396.4,473,396.4z"/>
<path class="st16" d="M477.5,403.2l2,2.2c0.1,0.1,0.2,0.1,0.3,0.1l4.4-1c0.2,0,0.3-0.2,0.2-0.4c0-0.1,0-0.1-0.1-0.1l-2.3-2.2
	c-0.1-0.1-0.2-0.1-0.3-0.1l-4.2,1c-0.2,0.1-0.3,0.2-0.2,0.4C477.5,403.2,477.5,403.2,477.5,403.2z"/>
<path class="st16" d="M471.3,404.6l2,2.2c0.1,0.1,0.2,0.1,0.3,0.1l4.4-1c0.2,0,0.3-0.2,0.2-0.4c0-0.1,0-0.1-0.1-0.2l-2.3-2.2
	c-0.1-0.1-0.2-0.1-0.3-0.1l-4.2,1c-0.2,0.1-0.2,0.2-0.2,0.4C471.2,404.6,471.2,404.6,471.3,404.6z"/>
<path class="st16" d="M464.9,406.2l2,2.2c0.1,0.1,0.2,0.1,0.3,0.1l4.4-1c0.2,0,0.3,0,0.4-0.2c0-0.2,0-0.3-0.2-0.4l-2.3-2.2
	c-0.1-0.1-0.2-0.1-0.3-0.1l-4.2,1c-0.2,0-0.3,0.1-0.3,0.3C464.7,406,464.8,406.2,464.9,406.2z"/>
<path class="st16" d="M458.2,407.6l2.1,2.2c0.1,0.1,0.2,0.1,0.3,0.1l4.5-1c0.2,0,0.3-0.2,0.2-0.4c0-0.1,0-0.1-0.1-0.1l-2.3-2.2
	c-0.1-0.1-0.2-0.1-0.3-0.1l-4.2,1c-0.2,0-0.3,0.2-0.2,0.3C458.1,407.5,458.1,407.5,458.2,407.6z"/>
<path class="st16" d="M471.2,400.7l2,2.2c0.1,0.1,0.2,0.1,0.3,0.1l4.4-1c0.2,0,0.3-0.2,0.2-0.4c0-0.1,0-0.1-0.1-0.2l-2.3-2.2
	c-0.1-0.1-0.2-0.1-0.3-0.1l-4.2,1c-0.2,0-0.3,0.2-0.2,0.4C471.1,400.6,471.1,400.7,471.2,400.7z"/>
<path class="st16" d="M465.1,402.1l2,2.2c0.1,0.1,0.2,0.1,0.3,0.1l4.4-1c0.2,0,0.3-0.2,0.2-0.4c0-0.1,0-0.1-0.1-0.2l-2.3-2.2
	c-0.1-0.1-0.2-0.1-0.3-0.1l-4.2,1c-0.2,0.1-0.3,0.2-0.2,0.4C465,402.1,465,402.1,465.1,402.1z"/>
<path class="st16" d="M458.5,403.5l2,2.1c0.1,0.1,0.2,0.1,0.3,0.1l4.4-1c0.2,0,0.3-0.2,0.2-0.4c0-0.1,0-0.1-0.1-0.2l-2.3-2.2
	c-0.1-0.1-0.2-0.1-0.3-0.1l-4.2,1c-0.2,0.1-0.3,0.2-0.2,0.4C458.5,403.4,458.5,403.5,458.5,403.5z"/>
<path class="st16" d="M451.8,405.1l2.1,2.2c0.1,0.1,0.2,0.1,0.3,0.1l4.5-1c0.2,0,0.3-0.2,0.2-0.4c0,0,0-0.1-0.1-0.1l-2.3-2.2
	c-0.1-0.1-0.2-0.1-0.3-0.1l-4.2,1c-0.2,0-0.3,0.2-0.2,0.4C451.7,405,451.8,405,451.8,405.1z"/>
<path class="st16" d="M477.5,399.2l2,2.2c0.1,0.1,0.2,0.1,0.3,0.1l4.4-1c0.2,0,0.3-0.2,0.2-0.4c0-0.1,0-0.1-0.1-0.2l-2.3-2.2
	c-0.1-0.1-0.2-0.1-0.3-0.1l-4.2,1c-0.2,0.1-0.2,0.2-0.2,0.4C477.4,399.2,477.5,399.2,477.5,399.2z"/>
<path class="st16" d="M466.8,398l2,2.2c0.1,0.1,0.2,0.1,0.3,0.1l4.4-1c0.2,0,0.3-0.2,0.2-0.4c0-0.1,0-0.1-0.1-0.2l-2.3-2.2
	c-0.1-0.1-0.2-0.1-0.3-0.1l-4.2,1c-0.2,0.1-0.3,0.2-0.2,0.4C466.7,397.9,466.8,398,466.8,398z"/>
<path class="st16" d="M490.4,388.6l2.2,2.4c0,0,0.1,0.1,0.2,0l4.7-1.1c0.1,0,0.2-0.1,0.1-0.2c0,0,0-0.1-0.1-0.1l-2.5-2.4
	c-0.1,0-0.1,0-0.2,0l-4.4,1.1C490.4,388.4,490.3,388.5,490.4,388.6C490.4,388.6,490.4,388.6,490.4,388.6z"/>
<path class="st16" d="M496.1,387.3l2.2,2.4c0.1,0,0.1,0.1,0.2,0l4.7-1.1c0.1,0,0.2-0.1,0.1-0.2c0,0,0-0.1-0.1-0.1l-2.5-2.4
	c0,0-0.1-0.1-0.2,0l-4.5,1.1C496.1,387,496,387.1,496.1,387.3C496,387.3,496,387.3,496.1,387.3z"/>
<path class="st16" d="M501.9,386l2,2.2c0.1,0,0.1,0,0.2,0l4.4-1.2c0.1,0,0.2-0.1,0.1-0.2c0,0,0-0.1-0.1-0.1l-2.3-1.9
	c-0.1,0-0.1,0-0.2,0l-4.2,0.9c-0.1,0-0.2,0.1-0.1,0.2C501.9,385.9,501.9,385.9,501.9,386z"/>
<path class="st16" d="M508.1,388l2,2.2c0,0.1,0.1,0.1,0.2,0l4.4-1.2c0.1,0,0.2-0.1,0.1-0.2c0,0,0-0.1-0.1-0.1l-2.2-1.9
	c-0.1,0-0.1,0-0.2,0l-4.2,0.9C508.1,387.8,508.1,387.9,508.1,388z"/>
<path class="st16" d="M507.3,392l1.9,2.1c0.1,0.1,0.2,0.1,0.2,0.1l4.2-1.2c0.1,0,0.2-0.2,0.2-0.3c0-0.1,0-0.1-0.1-0.1l-2.1-1.8
	c-0.1,0-0.1-0.1-0.2-0.1l-4,0.9c-0.1,0-0.2,0.2-0.2,0.3C507.3,391.9,507.3,392,507.3,392z"/>
<path class="st16" d="M502.3,397.1l1.9,2.1c0.1,0.1,0.2,0.1,0.2,0.1l4.3-1.2c0.1,0,0.2-0.2,0.2-0.3c0,0,0-0.1-0.1-0.1l-2.2-1.8
	c-0.1-0.1-0.1-0.1-0.2,0l-4,0.9C502.3,396.8,502.3,396.9,502.3,397.1C502.3,397,502.3,397.1,502.3,397.1z"/>
<path class="st16" d="M496.3,398.7l1.9,2.1c0.1,0.1,0.2,0.1,0.2,0.1l4.2-1.2c0.1,0,0.2-0.2,0.2-0.3c0-0.1,0-0.1-0.1-0.1l-2.2-1.8
	c-0.1,0-0.1-0.1-0.2-0.1l-4,0.9c-0.1,0-0.2,0.2-0.2,0.3C496.3,398.6,496.3,398.6,496.3,398.7z"/>
<path class="st16" d="M508,395.6l1.9,2.1c0.1,0.1,0.2,0.1,0.2,0.1l4.2-1.2c0.1,0,0.2-0.2,0.2-0.3c0,0,0-0.1-0.1-0.1l-2.2-1.8
	c-0.1-0.1-0.1-0.1-0.2,0l-4,0.9c-0.1,0-0.2,0.2-0.2,0.3C508,395.5,508,395.6,508,395.6z"/>
<path class="st16" d="M507,400.1l2.9,2.6c0.1,0.1,0.2,0.1,0.2,0l4.2-1.2c0.1,0,0.2-0.2,0.2-0.3c0,0,0-0.1-0.1-0.1l-3.1-2.8
	c-0.1,0-0.2,0-0.2,0l-4,1.3C507,399.8,506.9,399.9,507,400.1C507,400.1,507,400.1,507,400.1z"/>
<path class="st16" d="M496.8,390.9l2,2.2c0,0.1,0.1,0.1,0.2,0.1l4.4-1.2c0.1,0,0.2-0.1,0.1-0.2c0,0,0-0.1-0.1-0.1l-2.3-1.9
	c0,0-0.1,0-0.2,0l-4.2,0.9C496.8,390.7,496.7,390.8,496.8,390.9C496.8,390.9,496.8,390.9,496.8,390.9z"/>
<path class="st16" d="M491.1,392.3l1.9,2.1c0.1,0.1,0.2,0.1,0.2,0.1l4.2-1.2c0.1,0,0.2-0.2,0.2-0.3c0,0,0-0.1-0.1-0.1l-2.2-1.8
	c-0.1-0.1-0.1-0.1-0.2,0l-4,0.9c-0.1,0-0.2,0.2-0.2,0.3C491.1,392.2,491.1,392.2,491.1,392.3z"/>
<path class="st16" d="M490,396.3l1.9,2.1c0.1,0.1,0.2,0.1,0.2,0.1l4.2-1.1c0.1,0,0.2-0.2,0.2-0.3c0,0,0-0.1-0.1-0.1l-2.2-1.8
	c-0.1-0.1-0.1-0.1-0.2,0l-4,0.9c-0.1,0-0.2,0.2-0.2,0.3C489.9,396.2,489.9,396.3,490,396.3z"/>
<path class="st16" d="M484,397.8l1.9,2.1c0.1,0.1,0.2,0.1,0.2,0.1l4.2-1.1c0.1,0,0.2-0.2,0.2-0.3c0,0,0-0.1-0.1-0.1l-2.2-1.8
	c-0.1-0.1-0.1-0.1-0.2,0l-4,0.9c-0.1,0-0.2,0.1-0.2,0.3C483.9,397.7,484,397.7,484,397.8z"/>
<path class="st16" d="M485.1,393.6l1.9,2.1c0.1,0.1,0.2,0.1,0.2,0.1l4.2-1.1c0.1,0,0.2-0.2,0.2-0.3c0,0,0-0.1-0.1-0.1l-2.2-1.8
	c-0.1,0-0.1-0.1-0.2-0.1l-4,0.9c-0.1,0-0.2,0.1-0.2,0.3C485,393.5,485,393.6,485.1,393.6z"/>
<path class="st16" d="M490.1,400l1.9,2.1c0.1,0.1,0.2,0.1,0.2,0.1l4.2-1.1c0.1,0,0.2-0.2,0.2-0.3c0-0.1,0-0.1-0.1-0.1l-2.2-1.8
	c-0.1-0.1-0.1-0.1-0.2,0l-4,0.9c-0.1,0-0.2,0.2-0.2,0.3C490,399.9,490,400,490.1,400z"/>
<path class="st16" d="M484.2,401.6l1.8,2c0.1,0.1,0.2,0.1,0.3,0.1l4.1-1.1c0.2,0,0.3-0.2,0.2-0.4c0-0.1-0.1-0.1-0.1-0.2l-2-1.7
	c-0.1-0.1-0.2-0.1-0.3-0.1l-3.9,0.9c-0.2,0-0.3,0.2-0.3,0.3C484.1,401.5,484.2,401.6,484.2,401.6z"/>
<path class="st16" d="M502.6,389.4l2,2.2c0,0.1,0.1,0.1,0.2,0.1l4.4-1.2c0.1,0,0.2-0.1,0.1-0.2c0,0,0-0.1-0.1-0.1l-2.3-1.9
	c0,0-0.1,0-0.2,0l-4.2,0.9C502.6,389.2,502.6,389.3,502.6,389.4C502.6,389.4,502.6,389.4,502.6,389.4z"/>
<path class="st16" d="M501.8,393.4l1.9,2.1c0.1,0.1,0.2,0.1,0.2,0.1l4.2-1.1c0.1,0,0.2-0.2,0.2-0.3c0,0,0-0.1-0.1-0.1l-2.2-1.8
	c-0.1-0.1-0.1-0.1-0.2,0l-4,0.9c-0.1,0-0.2,0.1-0.2,0.3C501.7,393.3,501.8,393.3,501.8,393.4z"/>
<path class="st16" d="M496.1,394.9l1.9,2.1c0.1,0.1,0.2,0.1,0.2,0.1l4.2-1.2c0.1,0,0.2-0.2,0.2-0.3c0,0,0-0.1-0.1-0.1l-2.2-1.8
	c-0.1-0.1-0.1-0.1-0.2,0l-4,0.9c-0.1,0-0.2,0.2-0.2,0.3C496,394.9,496,394.9,496.1,394.9z"/>
<path class="st16" d="M472.9,392.7l2.1,2.2c0.1,0.1,0.2,0.1,0.2,0.1l4.6-1c0.1,0,0.2-0.2,0.2-0.3c0-0.1,0-0.1-0.1-0.1l-2.4-2.3
	c-0.1-0.1-0.2-0.1-0.2-0.1l-4.3,1.1c-0.1,0-0.2,0.1-0.2,0.3C472.8,392.6,472.8,392.6,472.9,392.7z"/>
<path class="st16" d="M466.8,394.2l2,2.1c0.1,0.1,0.2,0.1,0.3,0.1l4.4-1c0.2,0,0.3-0.2,0.2-0.4c0-0.1,0-0.1-0.1-0.2l-2.3-2.2
	c-0.1-0.1-0.2-0.1-0.3-0.1l-4.2,1c-0.2,0-0.3,0.2-0.2,0.4C466.7,394.1,466.7,394.1,466.8,394.2z"/>
<path class="st16" d="M460.2,399.2l1.5,2.4c0.1,0.1,0.2,0.2,0.3,0.1l5.1-1.1c0.2,0,0.3-0.2,0.2-0.4c0,0,0-0.1,0-0.1l-1.7-2.4
	c-0.1-0.1-0.2-0.1-0.3-0.1l-5,1.1C460.2,398.8,460.1,399,460.2,399.2C460.2,399.2,460.2,399.2,460.2,399.2z"/>
<path class="st16" d="M426.7,400.1l5-1.2c0.1,0,0.2,0,0.3,0.1l0.9,1.2c0.1,0.1,0.1,0.3-0.1,0.4c0,0-0.1,0-0.1,0.1l-5.2,1.2
	c-0.1,0-0.3,0-0.3-0.1l-0.7-1.2C426.5,400.4,426.5,400.2,426.7,400.1C426.7,400.1,426.7,400.1,426.7,400.1z"/>
<path class="st16" d="M433.7,398.6l5-1.2c0.1,0,0.2,0,0.3,0.1l0.9,1.2c0.1,0.1,0.1,0.3-0.1,0.4c0,0-0.1,0-0.1,0.1l-5.2,1.2
	c-0.1,0-0.3,0-0.3-0.1l-0.7-1.2c-0.1-0.1,0-0.3,0.1-0.4C433.6,398.6,433.6,398.6,433.7,398.6z"/>
<path class="st16" d="M440.4,397.2l5-1.2c0.1,0,0.2,0,0.3,0.1l0.9,1.2c0.1,0.1,0.1,0.3-0.1,0.4c0,0-0.1,0-0.1,0.1l-5.2,1.2
	c-0.1,0-0.3,0-0.3-0.1l-0.7-1.2c-0.1-0.1,0-0.3,0.1-0.4C440.3,397.2,440.3,397.2,440.4,397.2z"/>
<path class="st16" d="M446.9,395.7l5-1.2c0.1,0,0.2,0,0.3,0.1l0.9,1.2c0.1,0.1,0.1,0.3-0.1,0.4c0,0-0.1,0-0.1,0l-5.1,1.2
	c-0.1,0-0.3,0-0.3-0.1l-0.7-1.2C446.7,396,446.7,395.8,446.9,395.7C446.9,395.7,446.9,395.7,446.9,395.7z"/>
<path class="st16" d="M453.6,394.2l5-1.2c0.1,0,0.2,0,0.3,0.1l0.9,1.1c0.1,0.1,0.1,0.3-0.1,0.4c0,0-0.1,0-0.1,0.1l-5.2,1.2
	c-0.1,0-0.3,0-0.3-0.1l-0.7-1.2C453.3,394.5,453.3,394.3,453.6,394.2C453.5,394.2,453.5,394.2,453.6,394.2z"/>
<path class="st16" d="M460,392.9l5-1.2c0.1,0,0.2,0,0.3,0.1l0.9,1.1c0.1,0.1,0.1,0.3-0.1,0.4c0,0-0.1,0-0.1,0.1l-5.2,1.2
	c-0.1,0-0.3,0-0.3-0.1l-0.7-1.2C459.7,393.2,459.8,393,460,392.9C460,392.9,460,392.9,460,392.9z"/>
<path class="st16" d="M466.3,391.6l4.6-1.1c0.1,0,0.2,0,0.3,0.1l0.9,1c0.1,0.1,0.1,0.3,0,0.4c0,0-0.1,0.1-0.2,0.1l-4.6,1.1
	c-0.1,0-0.2,0-0.3-0.1l-1-1c-0.1-0.1-0.1-0.3,0.1-0.4C466.2,391.6,466.3,391.6,466.3,391.6z"/>
<path class="st16" d="M472.5,390.1l4.8-1.2c0.1,0,0.2,0,0.2,0.1l1,1c0.1,0.1,0.1,0.3,0,0.4c0,0-0.1,0.1-0.1,0.1l-4.7,1.2
	c-0.1,0-0.2,0-0.2-0.1l-1-1.1C472.3,390.4,472.3,390.2,472.5,390.1C472.4,390.1,472.5,390.1,472.5,390.1z"/>
<path class="st16" d="M478.6,388.7l4.8-1.2c0.1,0,0.2,0,0.2,0.1l1,1c0.1,0.1,0.1,0.3,0,0.4c0,0-0.1,0-0.1,0.1l-4.7,1.2
	c-0.1,0-0.2,0-0.2-0.1l-1-1.1c-0.1-0.1-0.1-0.3,0-0.4C478.5,388.7,478.6,388.7,478.6,388.7z"/>
<path class="st16" d="M484.7,387.4l4.8-1.2c0.1,0,0.2,0,0.2,0.1l1,1c0.1,0.1,0.1,0.3,0,0.4c0,0-0.1,0-0.1,0.1l-4.7,1.2
	c-0.1,0-0.2,0-0.2-0.1l-1-1c-0.1-0.1-0.1-0.2,0-0.4C484.6,387.5,484.6,387.4,484.7,387.4z"/>
<path class="st16" d="M490.5,386.1l4.9-1.2c0.1,0,0.1,0,0.2,0l1.1,1.2c0.1,0.1,0.1,0.2,0,0.3c0,0,0,0-0.1,0l-4.8,1.3
	c-0.1,0-0.1,0-0.2,0l-1.2-1.2c-0.1,0-0.1-0.2-0.1-0.3C490.4,386.1,490.4,386.1,490.5,386.1z"/>
<path class="st16" d="M496.4,384.8l4.9-1.2c0.1,0,0.1,0,0.2,0l1.1,1.1c0.1,0.1,0.1,0.2,0,0.3c0,0-0.1,0-0.1,0.1l-4.9,1.2
	c-0.1,0-0.1,0-0.2,0l-1.2-1.2C496.2,385,496.3,384.9,496.4,384.8C496.4,384.8,496.4,384.8,496.4,384.8z"/>
<path class="st16" d="M502.2,383.5l4.5-1c0.1,0,0.1,0,0.2,0.1l0.9,1.1c0.1,0.1,0,0.2,0,0.3c0,0,0,0-0.1,0l-4.3,1.1
	c-0.1,0-0.1,0-0.2,0l-1.2-1.2c-0.1,0-0.1-0.2-0.1-0.2C502.1,383.5,502.1,383.4,502.2,383.5z"/>
<path class="st16" d="M507.8,382.2l4.5-1c0.1,0,0.1,0,0.2,0.1l0.9,1.1c0.1,0.1,0,0.2,0,0.3c0,0,0,0-0.1,0l-4.3,1.1
	c-0.1,0-0.1,0-0.2,0l-1.2-1.2c-0.1-0.1-0.1-0.2-0.1-0.3C507.7,382.2,507.7,382.2,507.8,382.2z"/>
<path class="st16" d="M430.3,406.1l1.7,2.4c0.1,0.1,0.2,0.1,0.3,0.1l8.8-2c0.2,0,0.3-0.2,0.2-0.4c0,0,0-0.1-0.1-0.1l-1.8-2.4
	c-0.1-0.1-0.2-0.1-0.3-0.1l-8.6,2.1C430.3,405.8,430.2,406,430.3,406.1C430.2,406.1,430.2,406.1,430.3,406.1z"/>
<path class="st16" d="M432.9,409.4l1.7,2.7c0.1,0.1,0.2,0.2,0.3,0.1l10.6-2.5c0.2,0,0.3-0.2,0.2-0.3c0,0,0-0.1-0.1-0.1l-2.1-2.6
	c-0.1-0.1-0.2-0.1-0.3-0.1l-10.1,2.4c-0.2,0-0.3,0.2-0.2,0.3C432.8,409.3,432.9,409.3,432.9,409.4z"/>
<path class="st16" d="M435.3,412.9l2,2.9c0.1,0.1,0.2,0.1,0.3,0.1l14-3.5c0.2,0,0.3-0.2,0.2-0.3c0,0,0-0.1-0.1-0.1l-2.3-2.9
	c-0.1-0.1-0.2-0.1-0.3-0.1l-13.8,3.5C435.2,412.5,435.2,412.7,435.3,412.9C435.3,412.8,435.3,412.9,435.3,412.9z"/>
<path class="st16" d="M467.3,409.7l2.6,3.1c0.1,0.1,0.2,0.1,0.3,0.1l30.8-7.7c0.2,0,0.3-0.2,0.2-0.4c0-0.1,0-0.1-0.1-0.2l-3.1-3.1
	c-0.1-0.1-0.2-0.1-0.3-0.1l-30.2,7.7c-0.2,0-0.3,0.2-0.2,0.4C467.3,409.6,467.3,409.7,467.3,409.7z"/>
<path class="st16" d="M499.1,401.8l3,3c0.1,0.1,0.2,0.1,0.2,0.1l6.3-1.7c0.1,0,0.2-0.2,0.2-0.3c0,0,0-0.1-0.1-0.1l-3.1-3.1
	c-0.1-0.1-0.2-0.1-0.2-0.1l-6.2,1.7c-0.1,0-0.2,0.1-0.2,0.3C499,401.6,499.1,401.7,499.1,401.8z"/>
<path class="st16" d="M514.4,399.9l1.4,1.5c0.1,0,0.1,0,0.2,0l4.7-1.2c0.1,0,0.2-0.1,0.1-0.2c0,0,0-0.1-0.1-0.1l-1.7-1.6
	c0-0.1-0.1-0.1-0.2,0l-4.4,1.4c-0.1,0-0.2,0-0.2,0.1C514.2,399.8,514.3,399.9,514.4,399.9L514.4,399.9z"/>
<path class="st16" d="M518.4,396.7l1.6,1.7c0.1,0,0.1,0,0.2,0l4.3-1.5c0.1,0,0.2-0.1,0.1-0.2c0,0,0-0.1-0.1-0.1l-1.6-1.4
	c0,0-0.1-0.1-0.2,0l-4.3,1.2c-0.1,0-0.2,0.1-0.2,0.2C518.3,396.6,518.3,396.7,518.4,396.7z"/>
<path class="st16" d="M521.5,399.7l-1.2-1c-0.1-0.1-0.1-0.2,0-0.3c0,0,0.1-0.1,0.1-0.1l4.3-1.5c0.1,0,0.1,0,0.2,0l1.3,1.3
	c0.1,0.1,0.1,0.2,0,0.3c0,0-0.1,0-0.1,0.1l-4.4,1.1C521.6,399.7,521.6,399.7,521.5,399.7z"/>
<path class="st16" d="M525.9,397.1c0.4,0.4,1,1.1,1.3,1.3c0.1,0,0.1,0,0.2,0l4.5-1.2c0.1,0,0.2-0.1,0.1-0.2c0,0,0-0.1-0.1-0.1
	l-1.6-1.4c-0.1,0-0.1,0-0.2,0l-4.1,1.3C525.9,396.8,525.8,396.9,525.9,397.1C525.9,397,525.9,397,525.9,397.1z"/>
<path class="st16" d="M513.4,394.2l2.4,2.3c0.1,0,0.1,0,0.2,0l11.5-3c0.1,0,0.2-0.1,0.1-0.2c0,0,0-0.1-0.1-0.1l-2.8-2.3
	c-0.1,0-0.1,0-0.2,0l-11.1,3c-0.1,0-0.2,0.1-0.1,0.2C513.4,394.2,513.4,394.2,513.4,394.2z"/>
<path class="st16" d="M512.6,390.7l2.5,2.2c0.1,0,0.1,0,0.2,0l8.6-2c0.1,0,0.2-0.1,0.1-0.2c0,0,0-0.1-0.1-0.1l-2.8-2.4
	c-0.1,0-0.1,0-0.2,0l-8.3,2.2C512.6,390.5,512.6,390.6,512.6,390.7C512.6,390.7,512.6,390.7,512.6,390.7z"/>
<path class="st16" d="M513.4,386.9l2.3,2.1c0,0,0.1,0.1,0.2,0l4.4-1c0.1,0,0.2-0.1,0.1-0.2c0,0,0-0.1-0.1-0.1l-2.8-2.4
	c-0.1,0-0.1,0-0.2,0l-4,1.3C513.4,386.7,513.4,386.8,513.4,386.9C513.4,386.9,513.4,386.9,513.4,386.9z"/>
<path class="st16" d="M507.4,384.9l2.3,2c0.1,0,0.1,0,0.2,0l7-1.7c0.1,0,0.2-0.1,0.1-0.2c0,0,0-0.1-0.1-0.1l-2.7-2.2
	c-0.1,0-0.1,0-0.2,0l-6.6,1.9c-0.1,0-0.2,0.1-0.2,0.2S507.3,384.9,507.4,384.9z"/>
<path class="st5" d="M446.4,276.1c-4.3,5.1-8.4,10.5-12.1,16c-1.5,2.3-3.1,4.5-4.9,6.5c-2.6,2.7-5.8,4.8-8.5,7.5
	c-3.1,3.1-5.2,7-7.4,10.8c-1.5,2.5-2.8,5.1-4,7.8c-3.4,8-4,17-1.8,25.4c0.8,3,2.4,6.4,5.5,7.1c2.4,0.6,4.8-0.7,6.9-2
	c2.3-1.4,4.6-2.9,5.9-5.2c1-2,1.6-4.1,1.7-6.3l2.6-19.2c0.2-2.1,0.7-4.1,1.4-6c1.5-3.4,4.7-5.9,7.9-7.7s6.8-3.2,10-5.2
	c2.9-1.9,5.5-4.4,8.4-6.3c3.6-2.4,7.8-3.8,11.1-6.6s5.5-7.6,3.5-11.4c-0.9-1.5-2.2-2.8-3.6-3.8l-6.4-5.2c-1.4-1.1-4.2-4.4-5.9-4.6
	s-4.3,2.4-5.5,3.4C449.5,272.5,447.9,274.2,446.4,276.1z"/>
<path class="st9" d="M424.4,246.8c1.4,0.2,2.7,0.5,4,1c1.3,0.5,2.5,1.3,3.8,1.8c1.7,0.5,3.5,0.9,5.2,1.2c1.8,0.3,3.4,1.3,4.4,2.8
	c-2.9,0.7-5.5,2.4-7.3,4.8c-1.3,1.9-2.4,3.9-3.1,6.1c-2.3,6.5-3.7,13.2-4,20.1c-0.1,1.2,0,2.6,0.9,3.4c-4.5-3.6-10.7-3.5-16.5-3.2
	c-0.5,0.1-1.1,0-1.6-0.1c-0.6-0.3-1-0.7-1.4-1.2c-1.6-1.9-2.6-4.3-3-6.7c-0.5-3.5,0.3-7.1,1-10.6c0.8-3.4,1.2-6.8,1.3-10.3
	c0-3.5-1.1-6.4-1.6-9.7c-0.7-4,3.8-2.1,6.2-1.6L424.4,246.8z"/>
</svg>
