<?xml version="1.0" encoding="utf-8"?>
<!-- Generator: Adobe Illustrator 27.4.0, SVG Export Plug-In . SVG Version: 6.00 Build 0)  -->
<svg version="1.1" id="ec500484-8e35-4be5-8191-25e4427db5df"
	 xmlns="http://www.w3.org/2000/svg" xmlns:xlink="http://www.w3.org/1999/xlink" x="0px" y="0px" viewBox="0 0 1145.7 770.6"
	 style="enable-background:new 0 0 1145.7 770.6;" xml:space="preserve">
<style type="text/css">
	.st0{opacity:0.1;fill:#1BB1DC;enable-background:new    ;}
	.st1{opacity:0.1;fill:#FF5C2C;enable-background:new    ;}
	.st2{fill:#FF5C2C;}
	.st3{opacity:0.1;enable-background:new    ;}
	.st4{fill:#3F3D56;}
	.st5{fill:#3A3768;}
	.st6{fill:#E6E8EC;}
	.st7{opacity:0.1;stroke:#1BB1DC;stroke-miterlimit:10;enable-background:new    ;}
	.st8{fill:#FFFFFF;}
	.st9{fill:#FF6F61;}
	.st10{opacity:0.1;fill:none;stroke:#1BB1DC;stroke-width:3;stroke-miterlimit:10;enable-background:new    ;}
	.st11{fill:url(#SVGID_1_);}
	.st12{fill:#A0616A;}
</style>
<ellipse class="st0" cx="771.8" cy="760.6" rx="142" ry="10"/>
<path class="st1" d="M1145.7,454.1c-0.1,148-120.2,268-268.2,267.9c-14.2,0-28.3-1.1-42.3-3.4H410.5c-16.4,2.3-32.9,3.4-49.5,3.4
	c-11.9,0-23.6-0.6-35.2-1.7C140.8,702.3-0.2,546.8,0,361C0,161.6,161.6,0,361,0c160.6,0,296.6,104.8,343.5,249.8
	c48.4-41.1,109.8-63.7,173.3-63.6C1025.8,186.2,1145.7,306.1,1145.7,454.1z"/>
<path class="st1" d="M1042.8,665.2c-58.8,45.9-134,65.2-207.6,53.5H410.5c-16.4,2.3-32.9,3.4-49.5,3.4c-11.9,0-23.6-0.6-35.2-1.7
	C182,706.2,60.5,607.8,16.8,470.1c34.6-73.9,123.4-126.5,227.6-126.5c101.5,0,188.5,49.9,224.8,120.9c17.9-3.3,36-4.9,54.2-4.9
	c105.2,0,194.8,53.7,228.6,128.7c28-8.5,57.1-12.8,86.4-12.7C924.1,575.6,999.6,611.3,1042.8,665.2z"/>
<path class="st2" d="M351.7,673.2c0,25.6-9.8,39.5-25.9,47.1c-60.6-5.9-118.8-27-169-61.6c1.3-8.7,3.8-17.2,7.3-25.2l45.8,14.2
	l-40.8-24c5.5-9.4,12.6-17.8,20.9-24.9l76.9,23.9l-60.3-35.4c47.5-26,107-8.6,133,38.8c2.4,4.5,4.5,9.1,6.3,13.9l0.2,0.6
	c0.2,0.5,0.3,0.9,0.5,1.4c0.5,1.6,1,3.2,1.5,4.8c0.2,0.6,0.3,1.2,0.5,1.8s0.3,1.1,0.4,1.7s0.2,1,0.3,1.5c0.1,0.3,0.1,0.6,0.2,0.9
	c0.1,0.5,0.2,1,0.3,1.5c0.1,0.7,0.3,1.4,0.4,2.1s0.2,1.5,0.4,2.2s0.2,1.6,0.3,2.4s0.2,1.5,0.2,2.2c0,0.2,0,0.5,0.1,0.7
	c0.1,0.6,0.1,1.3,0.2,1.9c0,0.1,0,0.2,0,0.2c0.1,0.8,0.1,1.6,0.1,2.4c0,0.8,0.1,1.6,0.1,2.3c0,0.1,0,0.2,0,0.2
	C351.7,671.6,351.7,672.4,351.7,673.2z"/>
<path class="st3" d="M351.7,673.2c0,25.6-9.8,39.5-25.9,47.1c-39.2-3.8-77.5-14-113.4-30.2l1.6-1.1c7.4-4.9,15.1-9.9,23.8-11.6
	c7.7-1.5,15.6-0.2,23.4-0.7c13.6-0.8,26.3-6.7,35.8-16.4c5.6-5.8,10-12.8,16.6-17.2c7.2-4.7,16.4-5.8,24.9-4.6
	c2.5,0.4,5,0.9,7.4,1.5l0.2,0.6c0.2,0.5,0.3,0.9,0.5,1.4c0.5,1.6,1,3.2,1.5,4.8c0.2,0.6,0.3,1.2,0.5,1.8s0.3,1.1,0.4,1.7
	s0.2,1,0.3,1.5c0.1,0.3,0.1,0.6,0.2,0.9c0.1,0.5,0.2,1,0.3,1.5c0.1,0.7,0.3,1.4,0.4,2.1s0.2,1.5,0.4,2.2s0.2,1.6,0.3,2.4
	s0.2,1.5,0.2,2.2c0,0.2,0,0.5,0.1,0.7c0.1,0.6,0.1,1.3,0.2,1.9c0,0.1,0,0.2,0,0.2c0.1,0.8,0.1,1.6,0.1,2.4c0,0.8,0.1,1.6,0.1,2.3
	c0,0.1,0,0.2,0,0.2C351.7,671.6,351.7,672.4,351.7,673.2z"/>
<path class="st4" d="M935.5,689.9c0,2.6-0.3,5.2-0.8,7.8c-0.1,0.5-0.2,1-0.3,1.4c-2.8,11.4-10.8,19.7-20.4,20.2c-0.3,0-0.6,0-1,0
	c-10.1,0-18.7-8.7-21.5-20.7c-0.1-0.3-0.2-0.6-0.2-1c-0.5-2.6-0.8-5.2-0.8-7.8c0-16.3,10.1-29.5,22.5-29.5S935.5,673.6,935.5,689.9z
	"/>
<path class="st3" d="M935.5,689.9c0,2.6-0.3,5.2-0.8,7.8c-0.1,0.5-0.2,1-0.3,1.4c-0.3,0-0.7,0-1,0c-2.5-0.1-4.9-0.5-7.4-1
	c-2.1,0.7-4.3,1.2-6.6,1.5c-1.7,0.3-3.4,0.4-5.1,0.5c-0.6,0-1.2,0-1.7,0c-2.1,0-4.1-0.1-6.2-0.4c-3.3-0.4-6.5-1.2-9.7-2.4
	c-1.7,0.6-3.5,1-5.2,1.4c-0.1-0.3-0.2-0.6-0.2-1c-0.5-2.6-0.8-5.2-0.8-7.8c0-16.3,10.1-29.5,22.5-29.5S935.5,673.6,935.5,689.9z"/>
<path class="st2" d="M983.5,635c0-7.2-1.7-14.2-4.9-20.6l-26.5,8.2l23.2-13.7c-7.9-11.4-20.5-18.6-34.4-19.6
	c-1.1-1.6-2.3-3.2-3.6-4.7l-38,11.8l31.2-18.3c-20-15.4-48.7-11.6-64.1,8.4c-3.6,4.8-6.3,10.2-7.9,16l32.5,37.5l-35.3-25.5
	c-20.6,14.6-25.5,43.2-10.8,63.8c11.7,16.4,32.7,23.3,51.8,16.9c9.4,3.5,19.7,3.7,29.3,0.8c24.7,5.4,49.1-10.2,54.5-34.9
	c0.7-3.2,1.1-6.5,1.1-9.8c0-1,0-2-0.1-3C982.8,644,983.5,639.5,983.5,635z"/>
<path class="st3" d="M982.7,643.5c-14-2.6-28.3-2.8-42.3-0.5c-15.9,2.6-32.1,8.4-47.7,4.2c-9.1-2.5-17-8.2-25.9-11.4
	c-8.6-3-17.9-3.6-26.8-1.6c-9.7,23.3,1.3,50.1,24.6,59.9c10.2,4.3,21.6,4.7,32.1,1.2c9.4,3.5,19.7,3.7,29.3,0.8
	c24.7,5.4,49.1-10.2,54.5-34.9c0.7-3.2,1.1-6.5,1.1-9.8c0-1,0-2-0.1-3C982,646.7,982.4,645.1,982.7,643.5z"/>
<path class="st5" d="M709.2,250.4h4.3c1.3,0,2.3,1,2.3,2.3v68.4c0,1.3-1,2.3-2.3,2.3h-4.3c-1.3,0-2.3-1-2.3-2.3v-68.4
	C707,251.4,708,250.4,709.2,250.4z"/>
<path class="st5" d="M414.8,193.2h0.4c1.3,0,2.3,1,2.3,2.3V215c0,1.3-1,2.3-2.3,2.3h-0.4c-1.3,0-2.3-1-2.3-2.3v-19.5
	C412.5,194.2,413.5,193.2,414.8,193.2z"/>
<path class="st5" d="M414.6,237.2h1c1.3,0,2.3,1,2.3,2.3v37.3c0,1.3-1,2.3-2.3,2.3h-1c-1.3,0-2.3-1-2.3-2.3v-37.3
	C412.3,238.3,413.4,237.2,414.6,237.2z"/>
<path class="st5" d="M414.7,293.7h0.7c1.3,0,2.3,1,2.3,2.3v37.6c0,1.3-1,2.3-2.3,2.3h-0.7c-1.3,0-2.3-1-2.3-2.3V296
	C412.4,294.7,413.4,293.7,414.7,293.7z"/>
<path class="st4" d="M454.3,113.8h218.4c21.5,0,39,17.5,39,39v524.4c0,21.5-17.5,39-39,39H454.3c-21.5,0-39-17.5-39-39V152.8
	C415.3,131.2,432.8,113.8,454.3,113.8z"/>
<path class="st6" d="M538.8,131.8h33.7c2.1,0,3.9,1.7,3.9,3.9v0.7c0,2.1-1.7,3.9-3.9,3.9h-33.7c-2.1,0-3.9-1.7-3.9-3.9v-0.7
	C534.9,133.5,536.7,131.8,538.8,131.8z"/>
<circle class="st6" cx="587.3" cy="136" r="4.8"/>
<path class="st2" d="M669.8,129.5h-33.9v4.1c0,10.7-8.7,19.4-19.4,19.4l0,0H508.4c-10.7,0-19.4-8.7-19.4-19.4c0,0,0,0,0,0v-4.1
	h-31.8c-13,0-23.5,10.5-23.5,23.5c0,0,0,0,0,0v523.9c0,13,10.5,23.5,23.5,23.5c0,0,0,0,0,0h212.7c13,0,23.5-10.5,23.5-23.5V153
	C693.4,140,682.9,129.5,669.8,129.5z"/>
<rect x="444.5" y="223.5" class="st7" width="149" height="24"/>
<ellipse transform="matrix(0.1602 -0.9871 0.9871 0.1602 52.6777 772.8552)" class="st7" cx="480.5" cy="355.5" rx="32" ry="32"/>
<path class="st8" d="M471.5,349.5v12h8l10,10.5V339l-10,10.5H471.5z"/>
<circle class="st7" cx="565.5" cy="355.5" r="32"/>
<path class="st8" d="M565.5,368.8c-2.1,0-3.8,1.7-3.8,3.8c0,2.1,1.7,3.8,3.8,3.8c2.1,0,3.8-1.7,3.8-3.8c0,0,0,0,0,0
	C569.3,370.5,567.6,368.8,565.5,368.8z M554.3,334.5c-2.1,0-3.8,1.7-3.8,3.8c0,2.1,1.7,3.8,3.8,3.8c2.1,0,3.8-1.7,3.8-3.8
	c0,0,0,0,0,0C558.1,336.2,556.4,334.5,554.3,334.5z M554.3,345.9c-2.1,0-3.8,1.7-3.8,3.8c0,2.1,1.7,3.8,3.8,3.8
	c2.1,0,3.8-1.7,3.8-3.8c0,0,0,0,0,0C558.1,347.6,556.4,345.9,554.3,345.9L554.3,345.9z M554.3,357.4c-2.1,0-3.8,1.7-3.8,3.8
	c0,2.1,1.7,3.8,3.8,3.8c2.1,0,3.8-1.7,3.8-3.8c0,0,0,0,0,0C558.1,359.1,556.4,357.4,554.3,357.4z M576.7,342.1
	c2.1,0,3.8-1.7,3.8-3.8c0-2.1-1.7-3.8-3.8-3.8c-2.1,0-3.8,1.7-3.8,3.8c0,0,0,0,0,0C572.9,340.4,574.6,342.1,576.7,342.1L576.7,342.1
	z M565.5,357.4c-2.1,0-3.8,1.7-3.8,3.8c0,2.1,1.7,3.8,3.8,3.8c2.1,0,3.8-1.7,3.8-3.8c0,0,0,0,0,0
	C569.3,359.1,567.6,357.4,565.5,357.4z M576.7,357.4c-2.1,0-3.8,1.7-3.8,3.8c0,2.1,1.7,3.8,3.8,3.8c2.1,0,3.8-1.7,3.8-3.8
	c0,0,0,0,0,0C580.5,359.1,578.8,357.4,576.7,357.4z M576.7,345.9c-2.1,0-3.8,1.7-3.8,3.8c0,2.1,1.7,3.8,3.8,3.8
	c2.1,0,3.8-1.7,3.8-3.8c0,0,0,0,0,0C580.5,347.6,578.8,345.9,576.7,345.9L576.7,345.9z M565.5,345.9c-2.1,0-3.8,1.7-3.8,3.8
	c0,2.1,1.7,3.8,3.8,3.8c2.1,0,3.8-1.7,3.8-3.8c0,0,0,0,0,0C569.3,347.6,567.6,345.9,565.5,345.9L565.5,345.9z M565.5,334.5
	c-2.1,0-3.8,1.7-3.8,3.8c0,2.1,1.7,3.8,3.8,3.8c2.1,0,3.8-1.7,3.8-3.8c0,0,0,0,0,0C569.3,336.2,567.6,334.5,565.5,334.5z"/>
<g>
	<ellipse transform="matrix(0.1602 -0.9871 0.9871 0.1602 -42.0827 853.4777)" class="st7" cx="480.5" cy="451.5" rx="32" ry="32"/>
	<path class="st8" d="M495.5,453.5h-13v13h-4v-13h-13v-4h13v-13h4v13h13V453.5z"/>
</g>
<circle class="st7" cx="650.5" cy="355.5" r="32"/>
<path class="st8" d="M650.5,336c-10.1,0.1-18.1,8.4-18,18.5c0,0,0,0,0,0v14.4c0,3.4,2.6,6.1,6,6.2c0,0,0,0,0,0h6v-16.5h-8v-4
	c0-7.7,6.3-14,14-14s14,6.3,14,14v4h-8V375h6c3.4,0,6-2.8,6-6.1c0,0,0,0,0,0v-14.4C668.7,344.4,660.6,336.1,650.5,336
	C650.5,336,650.5,336,650.5,336z"/>
<g>
	<circle class="st7" cx="565.5" cy="451.5" r="32"/>
	<path class="st8" d="M577.5,448v-8c0-1.3-1.1-2.3-2.3-2.3c0,0,0,0,0,0h-28.3c-1.3,0-2.3,1-2.3,2.3v22.8c0,1.3,1.1,2.3,2.3,2.3h28.3
		c1.3,0,2.3-1,2.3-2.3v-8l9,9.1v-25L577.5,448z"/>
</g>
<circle class="st7" cx="650.5" cy="451.5" r="32"/>
<path class="st8" d="M648.9,459.7c-3.5,2-7.8,2-11.3,0c-4.4,1.3-7.1,5.8-8.1,9.8h27.5C656.1,465.5,653.4,461.1,648.9,459.7z
	 M643.3,438.7c-5.5,0-9.9,4.4-9.9,9.9s4.4,9.9,9.9,9.9s9.9-4.4,9.9-9.9c0,0,0,0,0,0C653.2,443.2,648.8,438.7,643.3,438.7
	L643.3,438.7z M643.3,456.2c-3.1-0.1-5.8-1.9-6.9-4.7h13.9C649.1,454.3,646.4,456.1,643.3,456.2L643.3,456.2z"/>
<path class="st8" d="M656.8,463.5h14.8c-0.9-4.2-4-7.6-8.1-9c-1.7,1-3.7,1.5-5.7,1.5c-1.3,0-2.6-0.2-3.9-0.7
	c-0.7,1.2-1.6,2.3-2.6,3.3C653.5,459.6,655.4,461.3,656.8,463.5z M655.3,446.2h9.4c-1.2,2.8-3.9,4.7-6.9,4.7c-0.8,0-1.6-0.1-2.4-0.4
	c-0.1,0.8-0.3,1.6-0.6,2.3c5.2,1.7,10.8-1.2,12.5-6.4c1.7-5.2-1.2-10.8-6.4-12.5c-1-0.3-2-0.5-3-0.5c-3.4,0-6.5,1.7-8.4,4.6
	C652.4,439.8,654.6,442.8,655.3,446.2L655.3,446.2z"/>
<circle class="st9" cx="565.5" cy="579.5" r="32"/>
<path class="st8" d="M549.1,587.4c1.8-1.7,3.7-3,5.9-4.1c0.7-0.3,1.1-1,1.1-1.7l0.2-6.2c6.1-1.8,12.7-1.6,18.7,0.5l-0.2,6.2
	c0,0.7,0.4,1.4,1,1.8c2.2,1.1,4.1,2.6,5.8,4.4c0.8,0.8,2,0.8,2.8,0.1c0,0,0,0,0,0l5.1-4.8c0.8-0.8,0.8-2,0.1-2.8
	c-12.9-13.6-34.4-14.2-48.1-1.3c0,0,0,0,0,0c-0.8,0.8-0.8,2-0.1,2.8c0,0,0,0,0,0l4.8,5.1C547,588.1,548.3,588.1,549.1,587.4
	C549.1,587.4,549.1,587.4,549.1,587.4L549.1,587.4z"/>
<circle class="st7" cx="654.5" cy="243.5" r="25"/>
<path class="st8" d="M660.2,249.1c-3.5,2-7.8,2-11.3,0c-4.4,1.4-7.1,5.8-8.1,9.8h27.6C667.3,254.9,664.6,250.4,660.2,249.1z
	 M654.5,228.1c-5.5,0-9.9,4.4-9.9,9.9c0,5.5,4.4,9.9,9.9,9.9s9.9-4.4,9.9-9.9c0,0,0,0,0,0C664.4,232.5,660,228.1,654.5,228.1z
	 M654.5,245.6c-3-0.1-5.8-1.9-6.9-4.7h13.9C660.3,243.6,657.6,245.5,654.5,245.6L654.5,245.6z"/>
<path class="st10" d="M404.6,66.4c-2.3-1.4-5.5-0.1-7.1,2.1s-2,5-2.5,7.6c-0.9,5.9-1.5,12.7,2.5,17.2c-6.5-19.8-25.3-34.9-46-37.1"
	/>
<path class="st10" d="M808.6,392.6c-1.5-0.9-3.5,0-4.5,1.4c-0.9,1.5-1.5,3.2-1.6,4.9c-0.6,3.8-1,8.2,1.6,11
	c-4.5-12.9-15.9-22.2-29.5-23.9"/>
<path class="st10" d="M299.1,263.4c-1.5-0.9-3.5,0-4.5,1.4c-0.9,1.5-1.5,3.2-1.6,4.9c-0.6,3.8-1,8.2,1.6,11
	c-4.5-12.9-16-22.2-29.5-23.9"/>
<linearGradient id="SVGID_1_" gradientUnits="userSpaceOnUse" x1="1286.47" y1="-58.566" x2="1286.47" y2="287.7333" gradientTransform="matrix(-1 0 0 -1 2062.8501 705.1798)">
	<stop  offset="0" style="stop-color:#808080;stop-opacity:0.25"/>
	<stop  offset="0.54" style="stop-color:#808080;stop-opacity:0.12"/>
	<stop  offset="1" style="stop-color:#808080;stop-opacity:0.1"/>
</linearGradient>
<path class="st11" d="M696.8,731c1,1.9,2.9,3,4.7,4.1c12.6,7.2,25.8,13.2,39.6,17.8c1.3,0.7,2.9,0.3,3.6-1c0.1-0.2,0.2-0.3,0.2-0.5
	c1.6-2.7,3.3-7,2.9-10.5c1.3-0.8,2.2-2,2.6-3.5c0.5-1.8,1.4-3.5,2.4-5c1.9-2.8,4.1-5.7,4.4-9.1c0-1.2,0.1-2.4,0.3-3.6
	c0.5-1.6,1.9-2.6,3-3.9c1.7-2,2.4-4.6,3.2-7.1c3.1-10.4,6.2-20.9,8.8-31.5c0.8-3.4,1.6-6.9,2.8-10.2c1-2.9,2.3-5.7,3.5-8.5
	c4.5-10.1,9.8-19.9,15.8-29.3c0.9,3.1,2.1,6.2,3.4,9.2c0.7,1.5,1.4,3.1,2.1,4.6c2.6,5.8,2.1,13.3,5.3,18.8c1.3,2.3,2.6,4.5,3.9,6.8
	c0.7,1.1,1.3,2.3,1.7,3.6c0.2,0.9,0.2,1.8,0.4,2.7c0.7,4,3.9,6.8,5.7,10.4c1.7,3.3,2,7,3,10.6c2.4,8.3,8.2,15.5,8.8,24.2
	c0.1,2.3,0,4.7-0.2,7c-0.1,4.1,0.1,8.2,0.8,12.2c0.1,0.4,0.2,0.8,0.3,1.2c-5.1,7.6-13,13-22,14.9c-1.7,0.3-3.7,0.7-4.5,2.3
	c-1.1,1.9,0.1,4.4,2,5.4s4,0.9,6,0.7c14.3-1.2,28.5-3.8,42.4-7.8c0.7-0.1,1.3-0.5,1.8-1c0.5-0.7,0.7-1.6,0.6-2.5
	c0-3.2-0.8-6.4-2.2-9.3l1-0.3c0.6-4-1.5-7.9-3.1-11.6c-2.8-6.5-4.3-13.5-6.5-20.2c-4.2-13-11.1-25.1-12.7-38.7
	c-0.5-3.7-1.6-7.5-1.8-11.3c-0.5-7.7-1-15.4-2.7-22.8c-1.4-6.1-3.6-12-5-18.2s-1.8-12.7,0.2-18.7c0.6-1.7,1.4-3.3,1.9-5
	c2-6.6,0.1-13.8-1.8-20.4c-0.6-2.1-1.2-4.2-1.8-6.3c-0.8-2.8-1.6-5.5-2.5-8.2c0.1-0.1,0.2-0.2,0.3-0.3c1.8-2,1.7-5.1,3-7.5
	c0.6-1.2,1.6-2.2,2.2-3.4c1.2-2.6,1.6-5.5,0.9-8.3c-0.5-2.8-1.6-5.5-2.4-8.2c-2.2-7.5-2.3-15.4-0.5-23c0.8-3.2,2-6.4,2.2-9.7
	c0.1-2.2-0.1-4.5-0.6-6.6c-1.5-8.4-4.6-16.9-10.8-22.5c-3.3-3-7.7-5.6-8.1-10.2c-0.5-0.2-1.1-0.2-1.7-0.1c-0.3-1-0.5-2.1-0.6-3.2h0
	c0.3,0,0.6,0,0.9,0c0.3,0,0.5-0.1,0.7-0.2c0.1-0.1,0.2-0.2,0.4-0.3c0.4-0.4,0.7-0.8,1-1.3c0.4-0.7,0.8-1.4,1.1-1.9s0.8-1.3,1.2-2
	c1.2-2,2.2-4,3.2-6.1v-0.1c0.1-0.2,0.2-0.4,0.3-0.6l0.1-0.3l0.2-0.4c0-0.1,0.1-0.2,0.1-0.3s0.1-0.2,0.2-0.4l0.1-0.3
	c0-0.1,0.1-0.2,0.1-0.4c0-0.1,0.1-0.2,0.1-0.3c0-0.1,0.1-0.2,0.1-0.4s0.1-0.2,0.1-0.4s0.1-0.2,0.1-0.4l0.1-0.4
	c0-0.1,0.1-0.2,0.1-0.4l0.1-0.4l0.1-0.4l0.1-0.4c0-0.1,0-0.2,0.1-0.3s0-0.3,0.1-0.4s0-0.2,0-0.3l0.1-0.4v-0.3c0-0.1,0-0.3,0-0.4
	s0-0.2,0-0.3s0-0.3,0-0.4v-0.2c0-0.1,0-0.3,0-0.4s0-0.2,0-0.3s0-0.3,0-0.4s0-0.2,0-0.3c0-0.4-0.1-0.8-0.2-1.2
	c-0.7-2.3-2-4.4-3.9-5.9c-1.8-1.5-3.8-2.7-6-3.6c-0.5-0.2-1-0.5-1.4-0.9c-0.5-0.7-0.9-1.5-1.2-2.2c-0.9-1.5-2.6-2.2-4.3-2.6
	s-3.4-0.7-4.8-1.7c-0.1-0.1-0.3-0.2-0.4-0.2c-0.2,0-0.4,0-0.6,0.1l-3.9,1.7c-0.2-1-1.1-1.7-2.1-1.5c0,0,0,0,0,0
	c-0.9,0.2-1.8,0.7-2.5,1.4c-0.2-0.2-0.3-0.6-0.2-0.9l-3,2c-0.4,0.2-1,0.3-1-0.2c-1.7,1.8-3.1,3.8-4.3,6c-0.4,0.7-0.7,1.4-0.9,2.1
	l0,0c0,0.1-0.1,0.3-0.1,0.5c0,0,0,0.1,0,0.1c0,0.1-0.1,0.3-0.1,0.4c0,0,0,0.1,0,0.1c0,0.2,0,0.4,0,0.5l0,0c0,0.2,0,0.4,0,0.6
	c0.1,1.1,0.7,2.1,1.7,2.7c0.4,0.1,0.8,0.2,1.2,0.2c0.9-0.1,1.7-0.3,2.5-0.5c0.3-0.1,0.5-0.1,0.8-0.1c0.1,0,0.3,0,0.4,0
	c0.5,0,1,0.2,1.4,0.5l0.1,0.1c-4.4,3.2-7,8.3-7,13.8c0,2.6,0.6,5.3,1.8,7.6c-0.8,0.5-1.3,1.3-1.2,2.3c-0.3-0.8-0.4-1.6-0.4-2.4
	c-1.6-0.3-2.8,1.6-3.4,3.2c-1.2,3.7-2.2,7.5-2.8,11.4c-0.5,2.6-1,5.1-1.5,7.7s-1,5.3-1.4,8c-0.9,6.9-0.6,14,0.9,20.8
	c-0.1,0.2-0.2,0.5-0.3,0.7c-0.3,0.8-1.2,1.5-1.2,2.3c-0.5,5.1,2.7,9.7,5.7,13.7c0.2,0.4,0.6,0.8,1,1c0.4,0.2,0.9,0.2,1.4,0.2
	c1.2-0.1,2.4-0.2,3.6-0.4c0.1,0.7,0.2,1.3,0.2,2c0.9,7.2,2.3,14.4,2.3,21.6s-1.4,14.6,1.4,21c0.5,1.1,1.3,2,1.4,3.1h0.2
	c-1.7,3.5-3.1,7-4.1,10.7c-1.1,4.3-1.3,8.9-2.6,13.2c-1,3.7-2.8,7-4.2,10.6c-2.3,5.8-3.6,11.9-4,18.1c0,2.9-0.6,5.7-1.7,8.3
	c-1.6,3.2-3,6.4-4.2,9.8c-2,5.9-5.4,11.6-6,17.9c-0.3,3.6,0.2,7.4-1.3,10.6c-0.6,1.3-1.4,2.3-2.1,3.5c-1,1.9-1.8,3.9-2.3,6
	l-9.9,32.8c-0.4,1.8-1.2,3.5-2.4,4.9c-0.9,0.9-2.1,1.4-3,2.3c-1.4,1.4-1.8,3.5-1.8,5.6c-1.1,0.2-2.1,0.5-3.1,1
	c-8.5,3.6-18,3.6-26.5,0c-1.6-0.7-3.4-1.5-5-0.7C696.1,726.3,695.8,729.1,696.8,731z M775.7,482.3c0.6-2.7,1.7-5.3,3.3-7.6
	c2.2-3.7,4.6-7.3,6.7-11.1l0.6-0.6c0.2,0.5,0.3,1,0.5,1.5c0.4,1.3,0.7,2.6,0.9,3.9c0.3,1.6,0.4,3.3,0.3,5l-0.1,0.1
	c-0.8,0.5-1.5,1.2-1.9,2.1c-0.3,0.9-0.3,1.8,0,2.6l-0.1,0.1l0.1-0.1c0.3,1.4,1,2.8,0.8,4.2c-0.2,1.7-1.6,2.9-2.4,4.4
	c-2,3.5-1.4,8.8-4.7,10.9l-0.1,0.1l0,0c-1.4-0.3-2.6-1.3-3.2-2.7l0,0C776.6,490.9,775,486.6,775.7,482.3z"/>
<path class="st4" d="M857.8,752.5c0.1,0.9-0.1,1.7-0.6,2.5c-0.5,0.5-1.2,0.9-1.9,1c-14.4,4-29.2,6.5-44.1,7.7
	c-2.1,0.2-4.4,0.3-6.3-0.7s-3.2-3.5-2-5.3c0.9-1.5,3-1.9,4.7-2.2c9.4-1.8,17.7-7.2,23.2-15c0.7-1.1,1.5-2.1,2.5-2.9
	c1.9-1.3,4.5-1,6.7-0.5c4,0.8,9.3,1.8,12.9,3.8S857.7,748.7,857.8,752.5z"/>
<path class="st3" d="M857.8,752.5c0.1,0.9-0.1,1.7-0.6,2.5c-0.5,0.5-1.2,0.9-1.9,1c-14.4,4-29.2,6.5-44.1,7.7
	c-2.1,0.2-4.4,0.3-6.3-0.7s-3.2-3.5-2-5.3c0.9-1.5,3-1.9,4.7-2.2c9.4-1.8,17.7-7.2,23.2-15c0.7-1.1,1.5-2.1,2.5-2.9
	c1.9-1.3,4.5-1,6.7-0.5c4,0.8,9.3,1.8,12.9,3.8S857.7,748.7,857.8,752.5z"/>
<path class="st4" d="M741.5,751.5c-0.4,0.8-1.1,1.4-1.9,1.7c-0.7,0.1-1.5,0-2.1-0.2c-14.3-4.6-28.1-10.4-41.2-17.6
	c-1.9-1-3.8-2.2-4.9-4s-0.7-4.7,1.2-5.6c1.6-0.8,3.5,0,5.2,0.7c8.9,3.6,18.7,3.6,27.6,0c1.2-0.6,2.4-0.9,3.7-1.1
	c2.3,0,4.3,1.6,6,3.2c2.9,2.9,6.8,6.6,8.8,10.2S743.6,748.3,741.5,751.5z"/>
<path class="st3" d="M741.5,751.5c-0.4,0.8-1.1,1.4-1.9,1.7c-0.7,0.1-1.5,0-2.1-0.2c-14.3-4.6-28.1-10.4-41.2-17.6
	c-1.9-1-3.8-2.2-4.9-4s-0.7-4.7,1.2-5.6c1.6-0.8,3.5,0,5.2,0.7c8.9,3.6,18.7,3.6,27.6,0c1.2-0.6,2.4-0.9,3.7-1.1
	c2.3,0,4.3,1.6,6,3.2c2.9,2.9,6.8,6.6,8.8,10.2S743.6,748.3,741.5,751.5z"/>
<path class="st4" d="M817.8,560c1.5,4,2.7,8,4,12l1.9,6.2c2,6.5,4,13.6,1.9,20.1c-0.5,1.7-1.4,3.3-2,5c-2.1,5.9-1.6,12.4-0.2,18.4
	s3.7,11.9,5.2,18c1.8,7.4,2.3,15,2.8,22.5c0.2,3.7,1.4,7.5,1.9,11.2c1.7,13.4,8.8,25.4,13.3,38.2c2.3,6.6,3.9,13.5,6.8,19.9
	c1.7,3.7,3.8,7.5,3.2,11.4c-8.1,2.9-17.1,2.8-24.8-1.1c-1-0.4-1.7-1.3-1.7-2.3c-0.7-4-1-8-0.8-12c0.2-2.3,0.2-4.6,0.2-6.9
	c-0.6-8.5-6.7-15.6-9.1-23.8c-1-3.5-1.5-7.2-3.2-10.4c-1.9-3.5-5.3-6.3-6-10.2c-0.2-0.9-0.2-1.8-0.4-2.7c-0.4-1.3-1-2.4-1.8-3.5
	l-4.1-6.7c-3.3-5.4-2.9-12.8-5.6-18.6c-0.7-1.5-1.5-3-2.2-4.6c-1.4-3-2.5-6-3.5-9.1c-6.2,9.2-11.7,18.9-16.5,28.9
	c-1.4,2.7-2.6,5.5-3.7,8.4c-1.2,3.3-2,6.7-2.9,10.1c-2.7,10.5-6,20.7-9.2,31c-0.8,2.5-1.6,5-3.3,7c-1.1,1.2-2.6,2.3-3.1,3.8
	c-0.3,1.2-0.4,2.4-0.4,3.6c-0.3,3.4-2.7,6.2-4.6,9c-1.1,1.5-2,3.2-2.5,5c-0.9,3.1-4.1,4.9-7.2,4c-0.3-0.1-0.5-0.2-0.8-0.3h-0.1
	c-0.8-0.4-1.6-0.8-2.3-1.4c-1.9-1.2-3.7-2.5-5.4-4c-1.5-1.4-2.8-3-4-4.7c-0.7-1-0.5-2.5,0.6-3.2c0.2-0.1,0.4-0.2,0.6-0.3l0,0
	c-0.2-2.8-0.3-6,1.7-7.9c0.9-0.9,2.2-1.4,3.2-2.2c1.2-1.3,2.1-3,2.5-4.8c3.4-10.7,6.8-21.5,10.2-32.2c0.6-2.1,1.4-4.1,2.4-5.9
	c0.7-1.2,1.6-2.2,2.2-3.5c1.5-3.2,1-6.9,1.4-10.4c0.7-6.2,4.1-11.8,6.2-17.6c1.3-3.3,2.7-6.5,4.4-9.7c1.1-2.6,1.7-5.4,1.8-8.2
	c0.4-6.1,1.8-12.2,4.2-17.9c1.5-3.5,3.3-6.8,4.4-10.4c1.3-4.2,1.5-8.7,2.7-13c1.1-3.7,2.6-7.2,4.3-10.6c1.5-3,2.9-6.1,5.3-8.4
	c3.9-3.8,9.7-5.1,15.2-5.2S812.3,560.6,817.8,560z"/>
<path class="st12" d="M784.2,482.2c7-4.2,14-8.5,20.9-12.9c-1.6-2.2-2.6-4.9-2.6-7.7c0-0.1,0-0.2,0-0.3c-0.1-2.7,0.9-5-2.5-4.7
	c-3.3,0.4-6.5,1.1-9.6,2c-0.9,0.2-8.7,3.1-9,2.8c1.7,2.1,3,4.5,3.8,7.1c0.4,1.3,0.7,2.5,0.9,3.8
	C786.8,475.8,786.8,479.8,784.2,482.2z"/>
<path class="st4" d="M774.8,528.3c0.9,7.1,2.4,14.2,2.4,21.3s-1.4,14.4,1.5,20.8c0.5,1.1,1.4,1.9,1.5,3.1c4,0.7,7.9-1.2,11.7-2.5
	c3.5-1.2,7.1-2,10.8-2.4c3-0.3,6.1-0.3,9.1-0.9c3-0.5,5.7-1.9,7.8-4c1.8-2,1.8-5,3.1-7.3c0.7-1.2,1.6-2.2,2.3-3.4
	c1.3-2.5,1.6-5.5,0.9-8.2c-0.7-2.7-1.5-5.4-2.5-8.1c-2.3-7.4-2.4-15.2-0.5-22.7c0.8-3.2,2.1-6.3,2.3-9.6c0.1-2.2-0.2-4.4-0.6-6.5
	c-1.6-8.3-4.8-16.7-11.2-22.2c-3.4-2.9-8.1-5.6-8.4-10c-1.5-0.6-3.1,0.4-4.3,1.3l-14.3,10.5c-0.8,0.5-1.5,1.2-2,2.1
	c-0.9,2.1,1.2,4.5,0.8,6.8c-0.2,1.7-1.7,2.9-2.5,4.3c-2.1,3.4-1.4,8.7-4.8,10.8c-0.3,0.6-0.6,1.3-0.9,2c-1.2,3.5-2,7.1-2.5,10.8
	C773.9,518.9,774,523.6,774.8,528.3z"/>
<path class="st3" d="M781.4,461.5c1.7,2.1,3,4.5,3.8,7.1c1.1,0.3,2.3,0.4,3.5,0.4c5.8,0,9.7-6.7,12.6-11.2c-0.1-2.7,2.1-1.3-1.2-1
	c-3.3,0.4-6.5,1.1-9.6,2C789.5,458.9,781.7,461.8,781.4,461.5z"/>
<circle class="st12" cx="788.7" cy="451.2" r="16.4"/>
<path class="st4" d="M779.9,466.9l-3.8-4.1c-1.2-1.4-1.1-3.5,0.2-4.7l12.7-11.6c1.4-1.2,3.5-1.1,4.7,0.2l3.8,4.1
	c1.2,1.4,1.1,3.5-0.2,4.7l-12.7,11.6C783.3,468.4,781.2,468.3,779.9,466.9z"/>
<path class="st3" d="M779.9,466.9l-3.8-4.1c-1.2-1.4-1.1-3.5,0.2-4.7l12.7-11.6c1.4-1.2,3.5-1.1,4.7,0.2l3.8,4.1
	c1.2,1.4,1.1,3.5-0.2,4.7l-12.7,11.6C783.3,468.4,781.2,468.3,779.9,466.9z"/>
<circle class="st8" cx="789.7" cy="454.2" r="1.4"/>
<path class="st3" d="M774.8,528.3c12.6-1.9,24.1-9.4,32.8-18.8c1.6-1.5,2.9-3.4,3.7-5.5c0.4-1.8,0.6-3.6,0.5-5.4l-0.2-7.2
	c-0.1-3.2-0.2-6.4-1.8-9.2s-4.9-4.8-7.9-3.6c-7.7,3-12.8,9.9-17.2,16.9c-1.3,2.2-2.6,4.3-4.1,6.3c-0.8,1-1.8,1.9-3,1.8
	c-0.3,0-0.5-0.1-0.8-0.2c-1.2,3.5-2,7.1-2.5,10.8C773.9,518.8,774,523.6,774.8,528.3z"/>
<path class="st12" d="M773.6,486.1c0.6-2.7,1.8-5.3,3.4-7.5c4.9-7.7,10.4-15.1,13-23.8c-3.8,0.7-4.4,7.2-8.3,7.5l0.3-4.7
	c0-0.8,0-1.8-0.7-2.2s-1.8,0.1-2.2,0.9s-0.5,1.8-0.9,2.6s-1.3,1.5-2.2,1.2l-0.3-1.6c-1.3-0.3-2.6,0.6-2.8,1.9c0,0.2-0.1,0.4,0,0.6
	c-0.3-0.8-0.4-1.5-0.4-2.3c-1.7-0.3-3,1.6-3.6,3.2c-1.3,3.7-2.2,7.4-2.9,11.2l-1.6,7.6c-0.5,2.6-1.1,5.3-1.5,7.9
	c-0.9,7-0.6,14.2,1.1,21.1c2.1-1.2,4.1-2.4,6.1-3.8c1.5-1.3,3.2-2.7,3.8-4.7C775.3,496.2,772.8,491.1,773.6,486.1z"/>
<path class="st4" d="M801.9,476.4c2.9-1.2,6.3,0.8,7.9,3.6s1.7,6,1.8,9.2l0.2,7.2c0.2,1.8,0,3.6-0.4,5.4c-0.8,2.1-2.1,4-3.7,5.5
	c-9.7,10.4-22.7,18.5-36.9,19.2c-0.5,0.1-1,0-1.5-0.2c-0.4-0.3-0.7-0.6-1-1c-3.2-3.9-6.5-8.5-6-13.5c0.1-0.8,1-1.5,1.3-2.3
	c1.9-4.5,5.4-8.2,9.8-10.4l0.9-0.4c0.7,1.3,1.9,2.3,3.4,2.6c1.2,0.1,2.2-0.8,3-1.8c1.5-2,2.9-4.2,4.1-6.4
	C789.2,486.3,794.2,479.5,801.9,476.4z"/>
<path class="st4" d="M800.9,461.9c-1.4-0.7-1.6-2.6-1.8-4.1c-0.2-1.8-0.4-3.6-0.8-5.4c-0.4-2-1.1-4.1-2.8-5.1
	c-1.9-1.2-4.5-0.6-5.7,1.3c-0.3,0.5-0.5,1.1-0.6,1.7c0,0.3-0.1,0.7-0.3,0.9c-0.1,0.1-0.3,0.2-0.5,0.2c-1.6,0.4-3.3-0.6-3.8-2.1
	c-0.3-1-0.1-2.3-0.8-3.1s-1.5-0.8-2.2-1.3c-0.8-0.8-1.3-2-1.1-3.2c0-1.5,0.2-3.3-1-4.2c-1.8-1.4-4.5,0.8-6.7,0
	c-1.2-0.6-1.9-1.9-1.8-3.2c0.1-1.3,0.6-2.6,1.3-3.7c1.3-2.1,2.8-4.1,4.5-5.9c0,0.4,0.7,0.4,1.1,0.1l3.2-1.9c-0.1,0.3,0,0.7,0.2,0.9
	c0.7-0.7,1.6-1.2,2.6-1.4c1-0.2,2,0.5,2.2,1.5l4-1.7c0.3-0.2,0.8-0.2,1.1,0.1c1.4,1,3.3,1.3,5,1.7s3.5,1.1,4.5,2.6
	c0.3,0.8,0.7,1.5,1.2,2.2c0.4,0.4,1,0.7,1.5,0.9c2.3,0.9,4.4,2.1,6.3,3.5c1.9,1.5,3.4,3.5,4.1,5.9c1.1,3.9-0.5,8-2.3,11.6
	c-1.4,2.7-2.9,5.4-4.6,8c-0.6,1-1.5,2.9-2.5,3.5C803.2,462.5,802,462.4,800.9,461.9z"/>
<path class="st3" d="M772.8,433.4c2.1,0.8,4.8-1.4,6.7,0c1.2,0.9,1,2.7,1,4.2c-0.1,1.2,0.3,2.4,1.1,3.2c0.7,0.5,1.7,0.7,2.2,1.3
	s0.5,2.1,0.8,3.1c0.5,1.6,2.2,2.5,3.8,2.1c0.2,0,0.3-0.1,0.5-0.2c0.2-0.3,0.3-0.6,0.3-0.9c0.2-2.3,2.3-3.9,4.6-3.7
	c0.6,0.1,1.2,0.3,1.7,0.6c1.7,1.1,2.4,3.2,2.8,5.1c0.4,1.8,0.7,3.6,0.8,5.4c0.1,1.6,0.4,3.4,1.8,4.1c1.1,0.5,2.3,0.6,3.4,0.3
	c1-0.6,1.9-2.5,2.5-3.5c1.7-2.6,3.3-5.2,4.6-8c1.1-2.1,2-4.4,2.5-6.8c0.7,3.7-0.8,7.5-2.5,10.9c-1.4,2.7-2.9,5.4-4.6,8
	c-0.6,1-1.5,2.9-2.5,3.5c-1.1,0.3-2.4,0.2-3.4-0.3c-1.4-0.7-1.6-2.6-1.8-4.1c-0.2-1.8-0.4-3.6-0.8-5.4c-0.4-2-1.1-4.1-2.8-5.1
	c-1.9-1.2-4.5-0.6-5.7,1.3c-0.3,0.5-0.5,1.1-0.6,1.7c0,0.3-0.1,0.7-0.3,0.9c-0.1,0.1-0.3,0.2-0.5,0.2c-1.6,0.4-3.3-0.6-3.8-2.1
	c-0.3-1-0.1-2.3-0.8-3.1s-1.5-0.8-2.2-1.3c-0.8-0.8-1.3-2-1.1-3.2c0-1.5,0.2-3.3-1-4.2c-1.8-1.4-4.5,0.8-6.7,0
	c-1.2-0.6-1.9-1.9-1.8-3.2c0-0.7,0.2-1.4,0.5-2.1C771.8,432.7,772.3,433.2,772.8,433.4z"/>
</svg>
