<?xml version="1.0" encoding="utf-8"?>
<!-- Generator: Adobe Illustrator 27.2.0, SVG Export Plug-In . SVG Version: 6.00 Build 0)  -->
<svg version="1.1" id="_x38_13c2686-e70f-4fb0-bf6b-a2eb7b1db384"
	 xmlns="http://www.w3.org/2000/svg" xmlns:xlink="http://www.w3.org/1999/xlink" x="0px" y="0px" viewBox="0 0 1121 851.8"
	 style="enable-background:new 0 0 1121 851.8;" xml:space="preserve">
<style type="text/css">
	.st0{fill:url(#SVGID_1_);}
	.st1{fill:#514E7F;}
	.st2{opacity:0.2;enable-background:new    ;}
	.st3{opacity:0.1;enable-background:new    ;}
	.st4{fill:#606060;}
	.st5{opacity:0.15;enable-background:new    ;}
	.st6{fill:#945B79;}
	.st7{fill:#FFC1C7;}
	.st8{fill:#FF6584;}
	.st9{opacity:0.1;}
	
		.st10{opacity:0.3;fill:none;stroke:#000000;stroke-width:0.75;stroke-miterlimit:10;stroke-dasharray:12;enable-background:new    ;}
	.st11{opacity:0.9;}
	.st12{opacity:0.1;fill:#FF5C2C;enable-background:new    ;}
	.st13{fill:#3F3D56;}
	.st14{fill:#FBBEBE;}
	.st15{fill:#65617D;}
	.st16{fill:#FF5C2C;}
	.st17{fill:#B2B1BB;}
	.st18{opacity:0.1;fill:#CCCCCC;enable-background:new    ;}
	.st19{fill:#464353;}
	.st20{fill:#333F4F;}
	.st21{fill:#2D394A;stroke:#40868E;stroke-miterlimit:10;}
	.st22{opacity:0.2;}
	.st23{opacity:0.5;fill:#FF6E39;enable-background:new    ;}
	.st24{fill:url(#SVGID_00000119089019550796916280000008280955228917147287_);}
	.st25{fill:#A1616A;}
	.st26{fill:#FF748E;}
	.st27{fill:#5E5A6B;}
	.st28{fill:#9F9EFF;}
</style>
<linearGradient id="SVGID_1_" gradientUnits="userSpaceOnUse" x1="493.269" y1="-21.74" x2="493.269" y2="534.62" gradientTransform="matrix(1 0 0 -1 -39.48 829.9)">
	<stop  offset="0" style="stop-color:#808080;stop-opacity:0.25"/>
	<stop  offset="0.54" style="stop-color:#808080;stop-opacity:0.12"/>
	<stop  offset="1" style="stop-color:#808080;stop-opacity:0.1"/>
</linearGradient>
<path class="st0" d="M814.2,759.6l-8-25.5c0,0-6.7-18.1-5.6-27.8s-2.2-20.3-2.2-20.3l6.6-34.2c0,0,0.4-3.7,0.3-8.7
	c0-8.2-1.2-19.7-6.8-22.7c-9.1-4.8-27.7-45.3-31.6-45.3s-16.4-2.6-16.4-7c0-0.2,0-0.3,0-0.5c0,0,0-0.1,0-0.2s-0.1-0.2-0.1-0.3
	l-0.1-0.2l-0.2-0.4l-0.1-0.1c-0.5-0.9-1.1-1.7-1.8-2.4c16.9-3.2,33.8-6.8,50.5-10.9h-0.6l0.6-0.2c-2.2,0-4.4-0.2-6.7-0.5l-0.5,0.1
	c-24.6-3.4-46.8-22.6-52.8-47c-6.7-27,5-55.2,4.5-83c-0.4-17.6-5.6-34.8-15.1-49.6c-1.3-2-2.6-3.9-4.1-5.8
	c18.9-9.2,26.7-31.9,17.6-50.8c-0.9-1.8-1.8-3.4-2.9-5c-0.4-0.6-0.9-1.2-1.3-1.8c9.2,15.2,6.6,34.8-6.2,47.1
	c10.1-18.3,3.4-41.2-14.9-51.3c-18.3-10.1-41.2-3.4-51.3,14.9c-0.1,0.2-0.2,0.4-0.4,0.7c-0.8-0.4-1.6-0.7-2.4-1
	c5.2-14.1,18.2-23.8,33.1-24.7c-0.8,0-1.5-0.1-2.2-0.1c-15.2,0-28.9,9.2-34.8,23.3c-11.3-4.1-23.1-5.9-34.8-2.9
	c-2.2,0.5-4.3,1.3-6.3,2.2l0.5-0.4c-2.9,1.2-5.5,2.9-7.9,5c-3.5,3.2-5.9,7.4-8.9,11.1c-3,3.7-6.6,6.9-10.6,9.6
	c0.3-0.2,0.7-0.4,1-0.5c-13.4,9.5-31.6,12.2-46.9,6.1c-4.3-1.7-8.5-4.1-13-4.7c-3.5-0.4-7.1,0.1-10.3,1.5c0.1-0.1,0.3-0.2,0.4-0.3
	c-4.2,1.7-7.9,4.5-10.8,8.1c-5,6.2-7.5,14-9.3,21.7c-1.3,5.5-2,11.1-2,16.7c0.1,7.2,1.7,14.2,6,19.8c6.7,8.7,15.8,11,25.3,12.6
	c-0.3,1-0.5,1.9-0.8,2.9c-11.4,44.9,14.9,90.7,59.4,103.7l1.8,3.1l0.6,0.1c4.4,7.5,9.3,15.9,13.8,24c0.2,0.4,0.5,0.9,0.7,1.3
	l-8.5,4.4l0,0c-2.2,1.2-7.8,4.2-10.8,7.1c-0.9,0.8-1.6,1.7-2,2.8c-1.3,4.4-8.2,15.7-13,18.7s-8.7,17.8-8.2,25.7s-2.6,7-10.4,7.4
	s0,11.8,0,11.8l0.2,0.8c-0.4,0.6-0.8,1.3-1.2,2c-2,3.1-4.6,6.5-6.5,6.3c-3.5-0.3-5.6,8.2-5.4,9.5s-6.1,11.8-8.4,12.8
	s-12.5,3.2-9.7,12.9L510,693.9l-10,9.6c0,0-14.3-8.1-37.4,17c2.6-0.2,5.2,0,7.7,0.7l-0.7,0.3c-6.1,2.9-16.7,7.8-24.5,11l-41.6,1.3
	v-31c0,0-3.7-8.7-8,0l-1.1,31.3L304,737l16.9-18l0,0l0.2-0.2c3.7-3.9,5-9.5,3.3-14.7L253.8,482l0,0l-0.5-1.6
	c-1.4-4.5-5.3-7.7-10-8.4l-98.2-13.2l-0.7-0.1l-9,2.5c-4.7,1.3-7.5,6.1-6.2,10.9c0,0,0,0.1,0,0.1c2.3,8,6.1,21.1,11,37.5h-13.6
	l10.4,89.7l6.3,34.5c1.6,8.8,3.5,17.5,5.7,26.2c5.2,21,15.5,65.8,15.8,91.8l-76,82.9v16.8h485.5c0,0.1,0,0.1,0.1,0.2H811
	c0,0-2.6-4.6,3-11.1s2.8-32.4,2.8-32.4s-3.1-4.1,0.7-13.3S814.2,759.6,814.2,759.6z M211,740l-12.9,0.4l-12-78.1
	C195,690.9,203.7,718,211,740z M543.2,787.5l-8.4-17.1c1.9,0.1,3.8-0.4,5.4-1.5c5.4-3.9,8.7-13.1,8.7-13.1l14.5-17.2l1.2-1.4
	c2.9,8.2,6.4,14.7,9.2,17.8c6.9,7.8,7.8,30.5,9.9,38.7s0.5,4.8,0,9.6c-0.1,1.2,0,2.3,0.3,3.5C574.5,796.5,560.9,787.2,543.2,787.5z"
	/>
<polygon class="st1" points="93.8,835 179.2,742.5 518.2,731.6 577.4,851.6 93.8,851.6 "/>
<polygon class="st2" points="93.8,835 179.2,742.5 518.2,731.6 577.4,851.6 93.8,851.6 "/>
<path class="st1" d="M535.4,827.3v3.2c0,3.4-2.8,6.2-6.2,6.2H347c-3.5,0,0-6.9,0-6.9l-2.1-45.1c-0.2-3.5,2.2-6.7,5.6-7.6
	c10.1-2.6,17.1,1.5,17.1,1.5l112.9-2.9c2.3-0.1,4.7,0,7,0.3c8.3,1.1,15.8,5.5,20.7,12.3l25.9,35.2
	C535,824.6,535.4,825.9,535.4,827.3z"/>
<path class="st3" d="M535.4,830.5L535.4,830.5c0,3.4-2.8,6.2-6.2,6.2H347c-3.5,0,0-6.9,0-6.9s10.1-4.9,25-4l133-2.9
	c0,0,15.7,0.4,24.9,1.4C533,824.6,535.4,827.3,535.4,830.5z"/>
<polygon class="st4" points="483.7,783.5 369.4,783.5 372.5,818.3 505,816 "/>
<path class="st1" d="M289.8,808V820L170,824.9c0,0-27.4-1.9-30.8-18.7c-0.3-1.8-0.2-3.6,0.1-5.3c1.2-7.1,7.3-19.5,34.1-25.2l33-3.4
	H280C280,772.3,289.5,781.8,289.8,808z"/>
<path class="st3" d="M289.8,808.4V820L170,824.9c0,0-27.4-1.9-30.8-18.7c-0.3-1.8-0.2-3.6,0.1-5.3c0,0,16.6,15.7,39,13.4l105.4-4.6
	C285.8,809.3,287.8,808.9,289.8,808.4z"/>
<ellipse transform="matrix(0.9987 -5.146449e-02 5.146449e-02 0.9987 -40.3889 11.2278)" class="st3" cx="197.8" cy="789.9" rx="36.8" ry="6.3"/>
<path class="st1" d="M209.5,786.9l-19.4,9.6l-20.6-4.9l-0.1-33.6c1.3-24.5-10-73.6-15.6-95.9c-2.2-8.6-4-17.3-5.6-26l-6.3-34.2
	l-10.3-88.7h24.6l14.4,20.7L209.5,786.9z"/>
<path class="st1" d="M209.5,786.9l-19.4,9.6l-12.4-71.8c0.2-12.2-15.1-70.3-16.1-72.7C149.5,622.9,139,513.3,139,513.3h17.1
	l14.4,20.6L209.5,786.9z"/>
<path class="st5" d="M209.5,786.9l-19.4,9.6l-12.4-71.8c0.2-12.2-15.1-70.3-16.1-72.7C149.5,622.9,139,513.3,139,513.3h17.1
	l14.4,20.6L209.5,786.9z"/>
<path class="st1" d="M325,720.3l-66,69.5l-7.7,0.5l-9.4,0.7c-4.5,0.3-8.7-2.2-10.5-6.3c-20-45-83.9-262.6-97.4-308.7
	c-1.4-4.6,1.3-9.5,5.9-10.8c0.1,0,0.1,0,0.2-0.1l9-2.4l0.7,0.1l96.2,12.9c5.6,0.8,10.3,4.7,12,10.1l70.4,219.9
	C330,710.9,328.7,716.4,325,720.3z"/>
<path class="st3" d="M325,720.3l-66,69.5l-7.7,0.5l-9.4,0.7c-4.5,0.3-8.7-2.2-10.5-6.3c-20-45-83.9-262.6-97.4-308.7
	c-1.4-4.6,1.3-9.5,5.9-10.8c0.1,0,0.1,0,0.2-0.1l9-2.4l0.7,0.1l96.2,12.9c5.6,0.8,10.3,4.7,12,10.1l70.4,219.9
	C330,710.9,328.7,716.4,325,720.3z"/>
<path class="st1" d="M324.8,720.6L259,789.9l-7.7,0.5l-98.7-316c-1.7-3.6-2.6-7.6-2.8-11.5l97.8,13.1c4.6,0.6,8.5,3.9,9.9,8.3
	l70.8,221.1C330,710.8,328.6,716.5,324.8,720.6z"/>
<path class="st3" d="M320,708.9L249.1,488c6,0.6,11.1,4.8,12.8,10.5L321.5,697C322.7,701,322.1,705.3,320,708.9z"/>
<circle class="st6" cx="700.3" cy="344.1" r="37.5"/>
<path class="st6" d="M662.3,338.6c0-19.9,15.5-36.3,35.3-37.5c-0.7,0-1.5-0.1-2.2-0.1c-20.7-0.3-37.8,16.2-38.2,36.9
	s16.2,37.8,36.9,38.2c0.4,0,0.8,0,1.2,0c0.8,0,1.5,0,2.2-0.1C677.8,374.9,662.3,358.4,662.3,338.6z"/>
<path class="st3" d="M667.2,344.1c0-19.9,15.5-36.3,35.3-37.5c-0.7,0-1.5-0.1-2.2-0.1c-20.7,0.3-37.3,17.4-36.9,38.2
	c0.3,20.3,16.7,36.6,36.9,36.9c0.8,0,1.5,0,2.2-0.1C682.7,380.5,667.2,364,667.2,344.1z"/>
<path class="st7" d="M507,765.2c-3.5,1.9-7.1,3.5-10.8,4.9c-9.7,3.8-24.4,8.2-38.1,6.5c-23-2.8-36.8,4.7-36.8,4.7l-5.2-38.3
	c0,0,17-5,23.9-6.2c5.2-1,23.9-9.6,32.8-13.8c3-1.4,4.9-2.3,4.9-2.3h17.2L507,765.2z"/>
<path class="st3" d="M507,765.2c-3.5,1.9-7.1,3.5-10.8,4.9c-1.2-34.2-14.3-44.3-23.3-47.2c3-1.4,4.9-2.3,4.9-2.3h17.2L507,765.2z"/>
<path class="st8" d="M570.8,650.6v84l-4.5,5.3L551.8,757c0,0-3.2,9-8.6,12.9s-17.7-1.3-17.7-1.3l-3.5,5.6c0,0-7.8,1.5-11.4,0
	c-3.7-1.5-12.7,4.3-12.7,4.3c1.3-61.6-32.1-56.7-32.1-56.7c23.1-24.8,37.3-16.8,37.3-16.8l9.9-9.5l12.3-12.4
	c-2.8-9.6,7.3-11.7,9.7-12.8s8.6-11.4,8.4-12.7s1.9-9.7,5.4-9.4c1.9,0.2,4.5-3.2,6.5-6.2c1.6-2.4,2.7-4.7,2.7-4.7L570.8,650.6z"/>
<path class="st8" d="M600.6,566.6l25.4-13l-1.4,15.2l5,15.3c0,0-4.6,11.8-5.2,13.1s-11.5,28.3-11.5,28.3l-8.8-11.1L600.6,566.6z"/>
<polyline class="st3" points="604.2,614.5 600.6,566.6 626,553.6 "/>
<path class="st7" d="M709.8,552.3c0,0-8.4,12.1-20,27.6c-26.9,36-70.7,90-64,50.8c0.2-1.3,0.4-2.6,0.5-3.8c-1.6,1.1-5.4,0.1-9.5-1.8
	l-0.3-0.1c-2-1-4-2.1-5.8-3.4c-0.2-0.1-0.4-0.3-0.6-0.4c-4.5-3.2-8.2-6.9-8-9.4c3.2-56.2,16.3-29.4,20-23.2c0.2,0.4,0.5,0.8,0.8,1.2
	c-0.2-0.4-0.3-0.9-0.5-1.4c-2.6-6.3-7.5-15.8-13.1-25.9v-0.1l-0.8-1.3c-4.7-8.3-9.8-17.1-14.3-24.7l-1.2-2.1
	c-7.2-12.1-12.8-21.1-12.8-21.1s32.7-29.9,60.3-48.1c23-15.2,42.5-22.2,36.2,3.3c-4,16.4-2.8,30.4,0.9,42c0.1,0.4,0.3,0.9,0.4,1.3
	c0.7,2.2,1.6,4.4,2.6,6.5c1.3,2.9,2.8,5.8,4.5,8.5C691.3,536.9,699.7,545.6,709.8,552.3z"/>
<path class="st5" d="M658.9,506.9c-15.5,16.9-18.8,33-43.5,33c-7.2,0-14.3-0.9-21.3-2.7c-7.8-13.1-14-23.2-14-23.2
	s110.2-100.8,96.5-44.8C672.4,486.1,654.9,495,658.9,506.9z"/>
<path class="st7" d="M700.3,452.3c0,46.9-38,84.9-84.9,84.9c-46.9,0-84.9-38-84.9-84.9s38-84.9,84.9-84.9c0,0,0,0,0,0
	c46.7-0.2,84.7,37.5,84.9,84.1C700.3,451.8,700.3,452.1,700.3,452.3z"/>
<path class="st3" d="M613.4,599.3c0,0,1.5,24.1,16.8,22.2s3.7,51.3,3.7,51.3l-17,15.5l-18.3,5.6c0,0-16.2-4.7-15.9-5.6
	s6.5-51.3,6.5-51.3l9.5-26.9L613.4,599.3z"/>
<path class="st1" d="M613.4,601c0,0,1.5,24.1,16.8,22.2s3.7,51.3,3.7,51.3l-17,15.5l-18.3,5.6c0,0-16.2-4.7-15.9-5.6
	s6.5-51.3,6.5-51.3l9.5-26.9L613.4,601z"/>
<path class="st3" d="M570.8,650.6v84l-4.5,5.3c-4.7-12.3-8.2-29.1-6-44.1c2.8-19.9-2.8-45.5-4.9-53.7c1.6-2.4,2.7-4.7,2.7-4.7
	L570.8,650.6z"/>
<path class="st3" d="M615.4,603.6c-0.5,4.7-1.8,9.4-3.7,13.7c-0.6,1.3-1.1,2.6-1.7,3.8c-4.5-3.2-8.2-6.9-8-9.4
	c3.2-56.2,16.3-29.4,20-23.2C620.2,589.9,616.2,593.9,615.4,603.6z"/>
<path class="st3" d="M622.3,588.3c-2.7-6.6-8-16.7-13.9-27.3l0.8-0.4l13.7,27.4C622.7,588.1,622.5,588.2,622.3,588.3z"/>
<path class="st3" d="M709.8,552.3c0,0-93.5,134.5-84,78.4c0.2-1.3,0.4-2.6,0.5-3.8c-1.7,1.1-5.6,0.1-9.8-1.9c0.6-3.7,1-6.3,1-6.3
	l10.3-29.3c0,0,6-23.3,5.2-28l0.3-0.2l51.5-34.5h0l0,0C691.1,536.9,699.7,545.7,709.8,552.3z"/>
<path class="st8" d="M806.7,654l-7.3,37.9l-22,159.9H586.5c0,0,3.4-28,3.4-32.3s-3.9-10.8-3.4-15.5s2.1-1.3,0-9.5s-3-30.6-9.9-38.3
	s-18.1-36.2-14.7-60.3s-5.6-56.5-5.6-56.5s-7.8-11.2,0-11.6s10.8,0.4,10.3-7.3s3.4-22.4,8.2-25.4s11.6-14.2,12.9-18.5
	c0.4-1.1,1.1-2,2-2.8c3.9-3.7,11.8-7.5,11.8-7.5l7.5-3.8v0.1l13.7,27.3c0,0-6.4,3.1-7.5,15.6c-0.5,4.7-1.8,9.4-3.7,13.7
	c-0.4,0.9-0.7,1.7-1.1,2.5c-1.1,2.4-2.2,4.6-3.2,6.3l0,0c-1.4,2.5-2.4,4.1-2.4,4.1s-0.4,2.9-0.9,7l0,0c-1.2,8.4-3.1,21.7-4.2,24.8
	c-1,2.8-3,7.7-4.1,12c-0.7,2.7-1.1,5.2-0.7,6.9c0,0.1,0.1,0.3,0.1,0.4c1.3,4,7.8-13.2,7.8-13.2s4.7-14.7,6.9-14.7
	c1.7,0,5.4-20.7,7-30.2c0.5-2.8,0.8-4.7,0.8-4.7l10.3-29.3c0,0,1.4-5.5,2.8-11.8c1.4-6.5,2.8-13.8,2.4-16.3l0.3-0.2l51.5-34.5h0
	l0.8-0.5h-0.1c-0.4,0-1.4-0.6-3.4-5.3c-0.5-1.2-1.1-2.6-1.7-4.4c0,0,16.5-6.6,22.3-1.8c0.4,0.3,0.7,0.7,1,1.1
	c0.2,0.2,0.3,0.5,0.4,0.7c3.9,8,5.6,14,9.5,19.2c0.4,0.6,0.9,1.1,1.4,1.6c4.7,4.9,14,10.7,12.4,12.2c-1.7,1.7,12.9,9,12.9,9
	s8.6,4.9,11.3,9c0.5,0.6,0.7,1.4,0.8,2.2c0,4.3,12.5,6.9,16.4,6.9s22.4,40.1,31.5,44.8S806.7,654,806.7,654z"/>
<g class="st9">
	<path d="M613.4,589.7c0,0-6.4,3.1-7.5,15.6c-0.5,4.7-1.8,9.4-3.7,13.7c-1.3,3-2.7,6-4.2,8.8l0,0c-1.4,2.5-2.4,4.1-2.4,4.1
		s-0.4,2.9-0.9,7l0,0c-1.1,8.5-3.1,21.7-4.3,24.9c-1,2.8-3,7.7-4.1,12c-0.7,2.7-1.1,5.2-0.7,6.9c0,0.1,0.1,0.3,0.1,0.4
		c1.3,4,7.8-13.2,7.8-13.2s4.7-14.7,6.9-14.7c0.6,0,1.5-2.9,2.5-6.9c0.5-3.3,1-6.5,1.3-9.3l0,0c0.6-4.1,0.9-7,0.9-7s0.6-0.9,1.5-2.4
		c0.9-5.3,1.6-9.2,1.6-9.2l10.3-29.3c0,0,0.8-2.9,1.7-6.9l-11-21.9l-7.5,3.8l0,0L613.4,589.7z"/>
	<path d="M800.2,623c-9-4.7-27.6-44.8-31.5-44.8s-16.4-2.6-16.4-6.9s-12.1-11.2-12.1-11.2s-14.7-7.3-12.9-9
		c1.5-1.6-7.7-7.3-12.4-12.2c-0.5-0.5-0.9-1-1.4-1.6c-3.9-5.2-5.6-11.2-9.5-19.2c-0.1-0.3-0.3-0.5-0.4-0.7c-0.3-0.4-0.6-0.7-1-1.1
		c-2.6-2.2-7.4-2-11.9-1.2c0.9,0.3,1.7,0.7,2.4,1.2c0.4,0.3,0.7,0.7,1,1.1c0.2,0.2,0.3,0.5,0.4,0.7c3.9,8,5.6,14,9.5,19.2
		c0.4,0.5,0.9,1,1.4,1.5c4.7,4.9,14,10.7,12.4,12.2c-1.7,1.7,12.9,9,12.9,9s12.1,6.9,12.1,11.2s12.5,6.9,16.4,6.9
		s22.4,40.1,31.5,44.8s6.5,31,6.5,31l-7.3,38l-22,159.9h9.5l22-159.9l7.3-37.9C806.7,654,809.3,627.7,800.2,623z"/>
</g>
<path class="st7" d="M423.9,743.8c0,0-54.8-15.9-58.7,8.5s22.4,38.3,39.2,37.9s24.1-16.4,24.1-16.4L423.9,743.8z"/>
<path class="st7" d="M698.8,818.6c0,0-12.3,8.8-38.3,8.8S604,833,604,833s-38.8-91.3-116.6-13.1c0,0-14,18.1,58.6,20
	c0,0,25.6-0.9,31.2,11.8h145l19.8-14.8L698.8,818.6z"/>
<path class="st1" d="M407,704.4c0,0-3.7-8.6-8,0l-2.4,66.8l5.2,15.7l5.2-14L407,704.4z"/>
<path class="st3" d="M703.7,517.3c-7.5,2.6-15.8,8.6-18.2,10.4c-0.5,0-2-1-5.1-9.7C680.4,518.1,699,510.6,703.7,517.3z"/>
<path class="st8" d="M622.9,589.7c0,0-6.4,3.1-7.5,15.6c-0.5,4.7-1.8,9.4-3.7,13.7l-4.2,8.9l0,0l-3.3,11.1l0,0l0.3,22.7l-8.8,14.2
	l-0.7,6.9l-2.3,21.2l-11.6-5.6c0,0,4.8-34.2,8.4-41.2s8.4-43.6,8.4-43.6s-0.2-13.5,1.5-15.8s-3-1.9-3.5-6.9
	c-0.3-2.9-3.5-11.1-6.2-17.2c3.9-3.7,11.8-7.5,11.8-7.5l7.5-3.8L622.9,589.7z"/>
<path class="st3" d="M622.9,589.7c0,0-6.4,3.1-7.5,15.6c-0.5,4.7-1.8,9.4-3.7,13.7l-4.2,8.9l0,0l-3.3,11.1l0,0l0.3,22.7l-8.8,14.2
	l-0.7,6.9l-2.3,21.2l-11.6-5.6c0,0,4.8-34.2,8.4-41.2s8.4-43.6,8.4-43.6s-0.2-13.5,1.5-15.8s-3-1.9-3.5-6.9
	c-0.3-2.9-3.5-11.1-6.2-17.2c3.9-3.7,11.8-7.5,11.8-7.5l7.5-3.8L622.9,589.7z"/>
<path class="st3" d="M715,540.5c-9.6,7.9-35.5,30.2-38.4,45.3c-3.7,18.7-14.7,16.9-14.7,16.9c-13.7-29.8-23.2-37.1-28.6-38.1
	l51.5-34.6c0,0,0,0,0,0l0.8-0.5h-0.1c-0.4,0-1.4-0.6-3.4-5.3l20.6-6.2c0.4,0.3,0.7,0.7,1,1.1c0.2,0.2,0.3,0.5,0.4,0.7
	c3.9,8,5.6,14,9.5,19.2C714.1,539.5,714.5,540,715,540.5z"/>
<path class="st8" d="M715,538.8c-9.6,7.9-35.5,30.2-38.4,45.3c-3.7,18.7-14.7,16.9-14.7,16.9c-13.7-29.8-23.2-37.1-28.6-38.1
	l51.5-34.5h0l0.8-0.5h-0.1c-0.4,0-1.4-0.6-3.4-5.3l20.6-6.2c0.4,0.3,0.7,0.7,1,1.1c0.2,0.2,0.3,0.5,0.4,0.7c3.9,8,5.6,14,9.5,19.2
	C714.1,537.8,714.5,538.3,715,538.8z"/>
<path class="st3" d="M656.8,689.8c0.6-0.2,34.2-19.2,30.4-4.8S656.8,689.8,656.8,689.8z"/>
<path class="st3" d="M511.5,708c0,0,17.7,27.5,23.9,26.6S511.5,708,511.5,708z"/>
<path class="st3" d="M533.5,697.8c0,0,1.1,21.3,10.3,22.8S533.5,697.8,533.5,697.8z"/>
<path class="st3" d="M631.5,766.3c0,0,21.9,36.5,17.7,49.1L631.5,766.3z"/>
<path class="st3" d="M657,770.6c0,0,29.7,39,24.5,42.2S657,770.6,657,770.6z"/>
<path class="st3" d="M590.2,708c0,0-3,27.7,8.4,35.8L590.2,708z"/>
<path class="st3" d="M723.3,584.6c0,0-50.8,39.4-42.7,80.4s16,44,16,44s3,16.4,8.6,23.3s4.7,11.4,4.7,11.4s5.2-2.4,6.9,9.5
	s10.8,20.2,10.8,20.2s3,9.5-4.7,14.7s-6,10.8-6,10.8l-31.5,18.3l35,34.7H811c0,0-2.6-4.5,3-11s2.8-32.1,2.8-32.1s-3.1-4.1,0.7-13.2
	s-3.3-34.9-3.3-34.9l-8-25.2c0,0-6.7-17.9-5.6-27.5s-2.2-20.1-2.2-20.1l-17.4-54.8C781.1,633.1,781.9,578.4,723.3,584.6z"/>
<path class="st8" d="M725.1,584.6c0,0-50.8,39.4-42.7,80.4s15.9,44,15.9,44s3,16.4,8.6,23.3s4.7,11.4,4.7,11.4s5.2-2.4,6.9,9.5
	s10.8,20.2,10.8,20.2s3,9.5-4.7,14.7s-6,10.8-6,10.8l-31.5,18.3l35.1,34.7h90.5c0,0-2.6-4.5,3-11s2.8-32.1,2.8-32.1
	s-3.1-4.1,0.7-13.2s-3.3-34.9-3.3-34.9l-8-25.2c0,0-6.7-17.9-5.6-27.5s-2.2-20.1-2.2-20.1l-17.4-54.8
	C782.8,633.1,783.7,578.4,725.1,584.6z"/>
<path class="st3" d="M742.1,612.4c0,0,36.2,12.3,45.9,18.3S773.7,606.8,742.1,612.4z"/>
<path class="st3" d="M761,798.8c0,0,51.5,6.5,48.5,16.6S761,798.8,761,798.8z"/>
<path class="st3" d="M750.9,809.8c0,0,37.7,12.1,31,22S750.9,809.8,750.9,809.8z"/>
<path class="st3" d="M751.6,569.1c-20.5,4-41.2,7.4-61.9,10.8l-5.4,0.9c-11.4,1.9-22.8,3.8-34.3,3.7c-5.6,0-11.4-0.6-16.4-3.2
	c-1.1-0.6-2.1-1.2-3-2c-3.5-2.8-6-6.9-5.9-11.3c0.1-8.1,7.7-13.7,14.3-18.3c9.6-6.8,19.1-15.5,22.9-26.4c0.7-2,1.2-4.2,1.5-6.3
	c1.1-9.3-2.3-18.4-5.9-27c-3.9-9.4-9.3-19.4-17.2-25.1c-3.2-2.3-6.9-3.8-10.8-4.4c-12.1-1.6-23.5,7-35.7,6.5
	c-9.9-0.4-18.3-6.8-24.2-14.2c-4.3-5.4-7.1-12.7-13.6-16c-7.1-3.5-15.1-4.3-22.9-5.5c11.6-45.4,57.8-72.9,103.2-61.3
	c45.4,11.6,72.9,57.8,61.3,103.2c-3.5,13.8-10.5,26.6-20.2,37c0.1,0.4,0.3,0.9,0.4,1.3c0.7,2.2,1.6,4.4,2.6,6.5
	c0,0,16.5-6.6,22.3-1.8c0.4,0.3,0.7,0.7,1,1.1c0.2,0.2,0.3,0.5,0.4,0.7c3.9,8,5.6,14,9.5,19.2c0.4,0.6,0.9,1.1,1.4,1.6
	c4.7,4.9,14,10.7,12.4,12.2c-1.7,1.7,12.9,9,12.9,9S748.9,565,751.6,569.1z"/>
<path class="st6" d="M508.7,416.1c-7.7-9.9-6.8-23.8-4-36c1.8-7.7,4.3-15.4,9.3-21.5c5-6.1,12.8-10.4,20.6-9.3c4.6,0.6,8.7,3,13,4.6
	c19.3,7.6,43.2,1.3,56.2-14.9c2.9-3.7,5.4-7.8,8.8-11c3.9-3.4,8.6-5.7,13.6-6.9c21.7-5.5,44.1,5.3,62.7,17.8
	c15.9,10.7,30.9,23.1,41.3,39.2c9.5,14.6,14.7,31.6,15,49.1c0.5,27.6-11.1,55.4-4.5,82.2c6.6,26.5,32.4,46.8,59.7,47
	c-37.4,9.2-75.5,15.5-113.5,21.7c-11.4,1.9-22.8,3.8-34.3,3.7c-5.6,0-11.4-0.6-16.4-3.2s-9-7.7-9-13.3c0.1-8.1,7.7-13.7,14.3-18.3
	c11.4-8.1,22.7-18.8,24.3-32.7c1.1-9.3-2.3-18.4-5.9-27c-5.5-13.1-13.9-27.6-27.9-29.5c-12.1-1.6-23.5,7-35.7,6.5
	c-9.9-0.4-18.3-6.8-24.2-14.2c-4.3-5.4-7.1-12.7-13.6-16C542.5,426.3,521.2,432.3,508.7,416.1z"/>
<path class="st6" d="M728.8,365.8c16.3-11.3,21-33.4,10.7-50.4c0.5,0.6,0.9,1.2,1.3,1.8c12.1,16.9,8.2,40.3-8.6,52.4
	c-16.9,12.1-40.3,8.2-52.4-8.6c-0.2-0.3-0.4-0.6-0.7-0.9c-0.4-0.6-0.8-1.2-1.2-1.9C690.1,373.7,712.4,377.1,728.8,365.8z"/>
<g class="st9">
	<path d="M609.8,335.4c2.9-3.7,5.4-7.8,8.8-11c0.6-0.5,1.2-1,1.8-1.5c-2.9,1.2-5.5,2.8-7.8,4.9c-3.5,3.2-5.9,7.3-8.8,11
		c-3,3.7-6.5,6.9-10.5,9.5C599.6,345.3,605.3,340.9,609.8,335.4z"/>
	<path d="M693,574.6c-11.4,1.9-22.8,3.8-34.3,3.7c-5.6,0-11.4-0.6-16.4-3.2s-9-7.7-9-13.3c0.1-8.1,7.7-13.6,14.3-18.3
		c11.4-8.1,22.7-18.8,24.3-32.7c1.1-9.2-2.3-18.4-5.9-27c-5.5-13.1-13.8-27.6-27.9-29.5c-12.1-1.6-23.5,7-35.7,6.5
		c-9.9-0.4-18.3-6.8-24.2-14.2c-4.3-5.4-7.1-12.7-13.6-16c-16.2-8-37.4-2-50-18.2c-7.7-9.9-6.8-23.9-4-36c1.8-7.7,4.3-15.4,9.3-21.5
		c1.4-1.7,3-3.2,4.7-4.6c-4.2,1.7-7.9,4.5-10.8,8c-5,6.1-7.5,13.8-9.3,21.5c-2.8,12.2-3.7,26.1,4,36c12.6,16.2,33.8,10.2,50,18.2
		c6.5,3.2,9.2,10.5,13.6,16c6,7.5,14.4,13.8,24.2,14.2c12.2,0.5,23.6-8.1,35.7-6.5c14.1,1.9,22.5,16.4,27.9,29.5
		c3.6,8.6,7,17.7,5.9,27c-1.7,13.9-12.9,24.6-24.3,32.7c-6.6,4.7-14.2,10.2-14.3,18.3c0,5.6,4,10.7,9,13.3s10.8,3.1,16.4,3.2
		c11.5,0.1,23-1.8,34.3-3.7c38-6.3,76.1-12.5,113.5-21.7c-2.2,0-4.4-0.2-6.6-0.5C760.5,563.5,726.7,569,693,574.6z"/>
</g>
<ellipse class="st7" cx="410.7" cy="755.5" rx="16.4" ry="9"/>
<path class="st10" d="M681.7,89.1c-18.2-4.9-36.7-9.8-55.6-10.5s-38.5,2.9-53.9,13.8c-7.7,5.5-14.1,12.5-20.6,19.4
	c-34.5,36.5-72.9,69-114.7,96.9c-16.8,11.2-34.8,21.9-54.8,24.7c-20,2.8-42.7-4.1-53-21.5l6.2-3.2"/>
<path class="st1" d="M842.8,62.8H713.6c-5.1,0-9.2-4.1-9.2-9.2V35.2c0-5.1,4.1-9.2,9.2-9.2c0,0,0,0,0,0h129.2c5.1,0,9.2,4.1,9.2,9.2
	v18.5C852,58.7,847.9,62.8,842.8,62.8z M829,37.5c-3.8,0-6.9,3.1-6.9,6.9c0,3.8,3.1,6.9,6.9,6.9c3.8,0,6.9-3.1,6.9-6.9
	C835.9,40.6,832.8,37.5,829,37.5C829,37.5,829,37.5,829,37.5z M810.5,37.5c-3.8,0-6.9,3.1-6.9,6.9c0,3.8,3.1,6.9,6.9,6.9
	c3.8,0,6.9-3.1,6.9-6.9c0,0,0,0,0,0C817.4,40.6,814.3,37.5,810.5,37.5L810.5,37.5z M842.8,109H713.6c-5.1,0-9.2-4.1-9.2-9.2V81.3
	c0-5.1,4.1-9.2,9.2-9.2h129.2c5.1,0,9.2,4.1,9.2,9.2v18.5C852,104.9,847.9,109,842.8,109z M829,83.6c-3.8,0-6.9,3.1-6.9,6.9
	s3.1,6.9,6.9,6.9s6.9-3.1,6.9-6.9c0,0,0,0,0,0C835.9,86.7,832.8,83.6,829,83.6C829,83.6,829,83.6,829,83.6z M810.5,83.6
	c-3.8,0-6.9,3.1-6.9,6.9s3.1,6.9,6.9,6.9s6.9-3.1,6.9-6.9c0,0,0,0,0,0C817.4,86.7,814.3,83.6,810.5,83.6L810.5,83.6z M842.8,155.1
	H713.6c-5.1,0-9.2-4.1-9.2-9.2v-18.5c0-5.1,4.1-9.2,9.2-9.2h129.2c5.1,0,9.2,4.1,9.2,9.2v18.4C852.1,151,847.9,155.1,842.8,155.1
	C842.8,155.1,842.8,155.1,842.8,155.1z M829,129.8c-3.8,0-6.9,3.1-6.9,6.9s3.1,6.9,6.9,6.9s6.9-3.1,6.9-6.9v0
	C835.9,132.9,832.8,129.8,829,129.8C829,129.8,829,129.8,829,129.8z M810.5,129.8c-3.8,0-6.9,3.1-6.9,6.9c0,3.8,3.1,6.9,6.9,6.9
	s6.9-3.1,6.9-6.9c0,0,0,0,0,0C817.4,132.9,814.3,129.8,810.5,129.8L810.5,129.8z"/>
<path class="st10" d="M863.7,87.6c8.3-0.9,17.2-0.6,24.3,3.7c7.5,4.6,11.9,13.3,13.3,22s0.4,17.6-0.6,26.4l-5.6,47.4
	c-0.8,6.6-1.5,13.5,0.6,19.9s8.1,11.9,14.8,11.3"/>
<path class="st10" d="M322.1,489.6c21.4,0.5,45.4,0,60.2-15.4c11.2-11.7,13.8-28.9,17.6-44.7c6.8-28.5,19.2-55.9,38-78.3
	s44.2-39.8,72.6-46.7c22.8-5.6,46.9-4.6,69.8-9.6s46.5-18.7,52.9-41.3"/>
<g class="st11">
	<path class="st12" d="M1098.1,393.9v0.1c0,0,0,0,0,0.1c0,0.3-0.1,0.6-0.1,0.9c-0.4,2.4-0.8,4.7-1.3,7.1
		c-3.6,16.2-11,32.2-20.9,46.7c-0.4,0.6-0.8,1.1-1.2,1.7c-0.8,1.1-1.5,2.2-2.3,3.2c-0.6,0.7-1.1,1.5-1.7,2.2
		c-3.9,5-8.1,9.8-12.5,14.4c-2.4,2.5-5,4.8-7.5,7.1l-1.1,1c-1.4,1.2-2.8,2.4-4.2,3.5c-0.6,0.5-1.2,1-1.8,1.5l-1.1,0.8l-0.8,0.6
		c-0.7,0.5-1.4,1-2.1,1.5l-0.5,0.3c-1.7,1.2-3.3,2.3-5.1,3.5c-3.6,2.4-7.4,4.5-11.3,6.5c-1.8,0.9-3.6,1.8-5.4,2.6
		c-2.2,1-4.4,1.9-6.7,2.7c-0.6,0.2-1.2,0.4-1.8,0.7c-1.7,0.6-3.4,1.1-5.2,1.6l-0.9,0.3l-0.4,0.1l0,0l-1.1,0.3
		c-5.1,1.4-10.4,2.5-15.6,3.3l-0.9,0.1l-0.4,0.1c-6.7,1-13.4,1.5-20,1.8c-9.1,0.5-18.3,0.5-27.5,0l-2.5-0.2h-0.5
		c-1.7-0.1-3.5-0.3-5.2-0.5c-1-0.1-2-0.2-3-0.3c-1.5-0.2-3-0.4-4.5-0.6h-0.1l-1.5-0.2c-1.3-0.2-2.6-0.4-3.9-0.7l-1.3-0.2l-2-0.4
		l-0.4-0.1c-4.2-0.9-8.3-2-12.3-3.3l-0.9-0.3c-2.9-1-5.8-2.1-8.6-3.3c-2.1-0.9-4.1-1.9-6.2-2.9c-2.9-1.5-5.7-3-8.4-4.7
		c-3.8-2.3-7.5-4.9-11.1-7.6c-4.7-3.5-9.2-7.3-13.6-11.2l-0.9-0.8l-1.7-1.5C825.5,451,806.5,426.8,792,400c-1.5-2.8-3-5.7-4.4-8.7
		c-0.4-0.9-0.9-1.8-1.3-2.7c0-0.1-0.1-0.1-0.1-0.2l-0.7-1.4c-1.8-3.9-3.5-7.9-5.1-11.9l-0.7-1.8l-1.1-2.9l-0.5-1.2
		c-1.4-3.7-2.7-7.5-3.9-11.4c-0.2-0.7-0.4-1.3-0.6-2c-0.6-2.1-1.2-4.2-1.8-6.3c-0.5-1.9-1-3.9-1.5-5.9c-0.1-0.3-0.2-0.6-0.2-0.9
		c-4-16.9-5.7-35.1-1.7-53.6c0.3-1.3,0.6-2.5,0.9-3.8c0.5-1.9,1-3.7,1.7-5.6c0.1-0.4,0.3-0.9,0.4-1.3l0.2-0.5c0-0.1,0.1-0.2,0.1-0.3
		c0-0.1,0.1-0.1,0.1-0.2c0.3-0.9,0.7-1.8,1.1-2.8s0.8-1.9,1.2-2.8l0,0l0.1-0.1c0-0.1,0.1-0.2,0.2-0.4c0.3-0.7,0.7-1.4,1-2.1l0.4-0.7
		l0.1-0.4c0.2-0.4,0.4-0.8,0.6-1.1c2.7-5.2,6-10.1,9.7-14.7c2.1-2.5,4.3-5,6.6-7.2c3.5-3.5,7.4-6.6,11.6-9.3
		c0.7-0.4,1.3-0.8,1.9-1.2c5.3-3.2,11.2-5.3,17.4-6.3c7.9-1.1,15.4,0.2,22.6,1.9l0.7,0.2c1.2,0.3,2.4,0.6,3.7,0.9
		c4.2,1.1,8.5,2.2,12.8,3.1c4,0.9,8,1.6,12.1,2.2c4.2,0.5,8.4,0.8,12.5,0.7c0.6,0,1.3,0,1.9-0.1c7.7-0.4,15.3-2,22.5-4.9
		c5.5-2.2,10.5-5.5,14.6-9.7c0.8-0.8,1.6-1.7,2.3-2.6l0,0c1.2-1.6,2.3-3.2,3.2-5c0.3-0.5,0.5-1.1,0.8-1.6l0,0
		c0.1-0.2,0.2-0.4,0.3-0.6l0,0l1.5-3l0,0c0.1-0.1,0.1-0.2,0.2-0.3c0.7-1.4,1.5-2.8,2.2-4.2c3-5.7,6.6-11.1,10.8-15.9l0,0
		c4.4-5,9.9-8.9,16.1-11.5c1-0.4,2-0.8,3.1-1.2c4.7-1.6,9.5-2.5,14.5-2.6c0.6,0,1.2,0,1.7,0c4.9,0.1,9.8,1,14.4,2.6l0,0
		c7.1,2.4,13.8,5.9,19.8,10.3c9.2,6.5,17.5,14.2,24.8,22.8c0.6,0.7,1.2,1.4,1.7,2.1c6.2,7.7,11.8,15.9,16.6,24.5
		c14.5,25.6,23.9,55.6,30.8,86.2l0.3,1.5c0.2,0.7,0.3,1.4,0.5,2.1c0.3,1.5,0.6,3,0.9,4.4c0.2,1.1,0.5,2.2,0.7,3.3l0,0
		c0.2,0.8,0.3,1.6,0.5,2.4c0.1,0.5,0.2,1,0.3,1.5c1.6,8.2,2.9,16.4,3.6,24.8c0,0.3,0,0.6,0.1,0.9
		C1099.7,373.5,1099.5,383.8,1098.1,393.9z"/>
	<path class="st13" d="M1025.2,475.2c-1.1-0.3-3,1-5.4,3.1c-1.2,1-2.5,2.2-3.9,3.6l-0.7,0.7l-0.3,0.3c-1.9,1.8-3.9,3.8-6.1,5.8
		c-1.4,1.3-2.8,2.5-4.2,3.8c-1.9,1.7-3,6.2-3.5,12.4c-5.1,1.4-10.4,2.5-15.6,3.3l-0.9,0.1l-0.4,0.1c-0.3-1.9-0.5-3.1-0.5-3.1
		s-9-7.5-6.4-16.9c1.5-5.4,16.3-15.5,28.6-23.1c1.5-0.9,3-1.8,4.4-2.7l0.9-0.5c0.6-0.3,1.1-0.7,1.7-1l4.1-2.4
		c2.8-1.6,4.9-2.8,5.6-3.2l0.3-0.2C1022.7,455.3,1028,475.9,1025.2,475.2z"/>
	<path class="st3" d="M1025.2,475.2c-1.1-0.3-3,1-5.4,3.1c-1.2,1-2.5,2.2-3.9,3.6l-0.7,0.7l-0.3,0.3c-1.9,1.8-3.9,3.8-6.1,5.8
		c-1.4,1.3-2.8,2.5-4.2,3.8c-1.9,1.7-3,6.2-3.5,12.4c-5.1,1.4-10.4,2.5-15.6,3.3l-0.9,0.1l-0.4,0.1c-0.3-1.9-0.5-3.1-0.5-3.1
		s-9-7.5-6.4-16.9c1.5-5.4,16.3-15.5,28.6-23.1c1.5-0.9,3-1.8,4.4-2.7l0.9-0.5c0.6-0.3,1.1-0.7,1.7-1l4.1-2.4
		c2.8-1.6,4.9-2.8,5.6-3.2l0.3-0.2C1022.7,455.3,1028,475.9,1025.2,475.2z"/>
	<path class="st13" d="M1023,463.9c0,0-1.8,1.9-4.7,4.9c-1.2,1.2-2.6,2.7-4.1,4.3l-0.1,0.1l-0.8,0.8c-1.8,1.9-3.7,3.9-5.7,6
		c-10.2,10.9-21.8,23.8-21.8,25.8c0,0.8-0.2,1.5-0.5,2.2l-0.9,0.1l-0.4,0.1c-6.7,1-13.4,1.5-20,1.8c-9.1,0.5-18.3,0.5-27.5,0
		l-2.5-0.2h-0.5c-1.7-0.1-3.5-0.3-5.2-0.5c-1-0.1-2-0.2-3-0.3c1.2-1.6,2.4-3.4,3.6-5.1c2.5-3.5,4.9-7.2,6.9-10.5
		c0.1-0.2,0.2-0.4,0.3-0.6c1.2-2,2.3-3.9,3.1-5.5c0.8-1.4,1.3-3,1.6-4.6c0.4-2,1-3.9,1.8-5.7c4.4-11.2,15.9-34,22.4-46.6l0.6-1.1
		l0.6-1.1c2.1-4,3.4-6.6,3.4-6.6l15.8-4.2l1-0.3l3.5-0.9l1.3-0.4l7.4-2h0.1l0.3-0.1l7.9-2.1l2.6-0.7l3-0.8l7.6,13l2.2,32.3
		L1023,463.9z"/>
	<path class="st3" d="M915.6,507.5c-3.1-4-4.9-6.5-4.9-6.5s4.4-1.1,10.1-2.7c2.9-0.8,6.2-1.8,9.4-2.8c2-0.7,4-1.4,5.9-2.1
		c1-0.4,1.9-0.7,2.8-1.1c4.1-1.7,7.2-3.5,7.9-5.1c0.1-0.6,0.1-1.3-0.2-1.9c-1-2.9-2.2-5.7-3.7-8.3c-0.5-1-1.1-2.1-1.7-3.2
		c-2-3.6-4.4-7.8-7-12.2c-2.2-3.7-4.5-7.5-6.9-11.4c-2.1-3.4-4.2-6.8-6.3-10.1c-0.1-0.1-0.1-0.2-0.2-0.3
		c-9.5-15.1-18.1-28-18.4-28.5l0,0l-5.6,13.5l-0.2,0.2l-9.2,8.2l-0.2,0.2c-2.9,2.5-6.2,5.5-9.5,8.5c-2.5,2.2-5,4.5-7.3,6.6
		c-3.4,3.1-6.6,6-9.2,8.3c-2.2,1.9-4.3,3.9-6.2,6c-1.7,3.5-3,7.1-4,10.8c4.4,3.9,8.9,7.7,13.6,11.2c3.6,2.7,7.3,5.2,11.1,7.5
		c2.7,1.7,5.5,3.2,8.4,4.7c2,1,4.1,2,6.2,2.9c2.8,1.2,5.7,2.3,8.6,3.3l0.9,0.3c4,1.3,8.1,2.4,12.3,3.3l0.4,0.1l2,0.4L915.6,507.5z"
		/>
	<path class="st13" d="M992.3,412.7l-0.9,1.4c-0.4,0.6-0.8,1.3-1.4,2.2s-1.4,2.1-2.2,3.5l-0.6,1c-1.5,2.3-3.2,4.9-5,7.8
		c-0.2,0.4-0.5,0.7-0.7,1.1s-0.5,0.7-0.7,1.1c-12,18.8-29.7,46.7-34.2,54.7c-0.4,0.6-0.7,1.2-1,1.9c-0.6,1.4-3.1,3-6.7,4.6
		c-0.8,0.4-1.6,0.7-2.5,1.1c-1.9,0.8-4.1,1.5-6.2,2.2c-3.2,1.1-6.4,2-9.4,2.9c-6.3,1.8-11.2,3-11.2,3s1.7,2.3,4.7,6.2l-2-0.4
		l-0.4-0.1c-4.2-0.9-8.3-2-12.3-3.3l-0.9-0.3c-2.9-1-5.8-2.1-8.6-3.3c-2.1-0.9-4.1-1.9-6.2-2.9c-2.9-1.5-5.7-3-8.4-4.7
		c-3.8-2.3-7.5-4.9-11.1-7.6c-4.7-3.5-9.2-7.3-13.6-11.2l-0.9-0.8c1-3.4,2.3-6.8,3.8-10c0-0.2,2.9-3,7.2-6.9
		c2.7-2.4,5.8-5.3,9.2-8.3l7.3-6.6l8.7-7.8l0.2-0.2l9-8l0.2-0.2l5.6-13.5h1.1l20.5,0.3h0.1h2h1.1l6.4,0.1l7.6,0.1l8.9,0.1l34.9,0.5
		h1.1l6.6,0.1L992.3,412.7z"/>
	<path class="st14" d="M992.9,273.4l-3.4,30.7c0,0-34.6,13.8-35.5,13.5s-23.1-20.3-19.4-33.5c1.8-6.6,2.7-15.8,3.1-23.3
		c0.4-7.5,0.3-13.2,0.3-13.2s50.4-18,45.9-5.6c-1.6,4.5-0.9,9.9,0.7,14.9C986.6,262.7,989.4,268.2,992.9,273.4z"/>
	<path class="st3" d="M984.6,256.8c-0.3,0.4-0.6,0.7-0.9,1c-12.2,12.9-32.3,14.2-46,2.9c0.4-7.5,0.3-13.2,0.3-13.2s50.4-18,45.9-5.6
		C982.3,246.3,983,251.7,984.6,256.8z"/>
	<path class="st14" d="M992.9,233.5c0,18.6-15.1,33.8-33.8,33.7c-18.6,0-33.8-15.1-33.7-33.8c0-18.6,15.1-33.7,33.7-33.7
		c18.5-0.1,33.7,14.8,33.8,33.3C992.9,233.2,992.9,233.3,992.9,233.5z"/>
	<path class="st3" d="M951.2,305.2c0,0-13.2-29.3-17.7-29.3S922,427.5,922,427.5l69,1.1l2.8-79.6l-14.1-70.6
		C979.7,278.4,967,306.3,951.2,305.2z"/>
	<path class="st3" d="M951.2,307.5c0,0-13.2-29.3-17.7-29.3S922,429.9,922,429.9l78.2,1.2l-6.5-79.7l-14.1-70.6
		C979.7,280.7,967,308.6,951.2,307.5z"/>
	<path class="st15" d="M951.2,306.3c0,0-13.2-29.3-17.7-29.3S922,428.6,922,428.6l78.2,1.2l-6.5-79.8l-14.1-70.6
		C979.7,279.5,967,307.4,951.2,306.3z"/>
	<path class="st3" d="M938.4,267.8c0,0-2.4-3.5-5.7-2.3s-5.9-2-9.3,1.1s-16.9,7.3-19.4,5.9s-11.5,4.8-13.5,8.5s-8.5,13.5-8.5,13.5
		s-5.6,6.8-4.8,10.4s-2,7.9-5.3,9.6s-10.1,18.6-10.1,18.6s1.8,22.6-5.8,26.5s-2,21.1-2,21.1l35.9-8.5l10.2-23.1
		c0,0-3.9,67.5-8.7,73.7s-5.3,10.1-5.3,10.1s18.6,3.9,22.5,7.3s14.4-0.8,14.4-0.8l10.1-89.8c0,0,3.7-16.9,3.7-25.6
		S938.4,267.8,938.4,267.8z"/>
	<path class="st16" d="M937.3,267.8c0,0-2.4-3.5-5.8-2.3s-5.9-2-9.3,1.1s-16.9,7.3-19.4,5.9s-11.5,4.8-13.5,8.5s-8.4,13.5-8.4,13.5
		s-5.6,6.8-4.8,10.4s-2,7.9-5.3,9.6s-10.1,18.6-10.1,18.6s1.8,22.6-5.8,26.5c-1.9,1-3,3.2-3.5,5.9c-2.2,11,6.9,21.1,18.1,20.8
		l19.3-8l10.1-29.2c0,0-3.9,67.5-8.7,73.7s-5.3,10.1-5.3,10.1s18.6,3.9,22.5,7.3s14.3-0.8,14.3-0.8l10.1-89.8c0,0,3.7-16.9,3.7-25.6
		S937.3,267.8,937.3,267.8z"/>
	<path class="st3" d="M875.2,316.7c0,0,3.4,9.3,12.7,8.5S875.2,316.7,875.2,316.7z"/>
	<path class="st3" d="M884.3,302.6c0,0,6.2,1.1,8.4,6.5S884.3,302.6,884.3,302.6z"/>
	<path class="st3" d="M901.7,293.1c0,1.1,3.9,20.8,0,29s-3.4,17.7-3.4,17.7L901.7,293.1z"/>
	<path class="st3" d="M984.8,261c0,0,2.2-2.6,4.5-2.3s3.7,1.7,6.5,2.8s9.6,1.4,9.6,2.2s5.9,4.2,9.9,5.1s16.3,9.3,19.4,25.6
		s8.4,21.1,8.4,21.1l-29.8,14.6c0,0,23.1,98,25.9,105s3.1,48.7,3.1,48.7s-18.3,8.2-23.1,10.7s-2.8-24.2-12.7-39.7s-21.1-38-21.1-38
		l-17.2-48.1c0,0-11-64.2-1.7-76S985.6,265.3,984.8,261z"/>
	<path class="st16" d="M1043.3,483.3c0,0.4,0,0.6,0,0.6l-1.1,0.5l-0.8,0.3l-7.6,3.5c-4.2,1.9-8.8,4-11.7,5.5
		c-0.7,0.3-1.3,0.7-1.8,0.9c-0.3,0.2-0.8,0.2-1.1,0c-1.5-1-2.2-6.1-3.2-12.7c-0.4-2.7-0.9-5.7-1.6-8.8c-0.1-0.5-0.2-1-0.3-1.4
		c-0.7-3.3-1.7-6.5-2.9-9.6c-0.9-2.5-2.1-4.9-3.5-7.1c-1.3-2-2.6-4.2-3.9-6.4c-3.5-5.9-7-12.2-9.9-17.6c-0.2-0.4-0.4-0.8-0.6-1.1
		c-0.7-1.4-1.4-2.7-2.1-3.9c-1.3-2.5-2.4-4.6-3.2-6.2l-1.3-2.5c0-0.1-0.1-0.2-0.1-0.3l-1.6-4.3l-3-8.4l-3.5-9.8l-1.7-4.6l-1.2-3.4
		l-0.4-1.1l-5.9-16.6c0,0-0.4-2.4-1-6.4c-1.6-10.4-4.4-31.7-4.4-48.3c0-4.1,0.2-8.1,0.7-12.1c0.1-0.4,0.1-0.9,0.2-1.3
		s0.2-0.9,0.2-1.4c0.4-2.3,1.2-4.6,2.6-6.5c9.3-11.8,19.2-27.5,18.3-31.7l0.2-0.2c0.4-0.4,0.9-0.8,1.4-1.2c0.6-0.4,1.3-0.7,2-0.9
		c0.3,0,0.6,0,0.9,0l0,0c2.2,0.3,3.7,1.7,6.5,2.8s9.6,1.4,9.6,2.2s5.9,4.2,9.8,5.1s16.3,9.3,19.4,25.6c3,15.7,8.1,20.7,8.4,21.1l0,0
		l-1.1,0.5l-16.9,8.3l-3.6,1.8l-8.2,4c0,0,2.1,9.1,5.2,21.9c0,0.2,0.1,0.4,0.1,0.5c0.1,0.4,0.2,0.8,0.3,1.2
		c2.2,9.4,4.9,20.6,7.6,31.6l0,0l0.2,1l0.8,3.2c0.2,1,0.5,2,0.7,3l0.4,1.6c0.7,3.1,1.5,6.1,2.2,9c1.1,4.3,2.1,8.4,3,12.2
		c2.6,10.4,4.6,18,5.3,19.7c1,2.6,1.7,9.8,2.2,18C1043.1,465.7,1043.2,480.3,1043.3,483.3z"/>
	<path class="st3" d="M1046.9,384.3c-0.8,0.1-1.9,0.3-3.1,0.4c-9,0.8-26.7,1-26.7,1s-13.2-26.2-24.5-25.3c0,0,10.4-11.8,14.6-10.4
		c0.7,0.2,1.1-0.3,1.4-1.3c1.1-5-2.8-22.4-2.8-22.4l-5.3-23.4l31,7.6c2.8,0.6,11.5,5.1,11.5,5.1s0.3,12.1,2.5,14.9
		s4.8,16.3,4.5,19.7s3.1,19.1-0.3,23.4S1054,383.1,1046.9,384.3z"/>
	<path class="st16" d="M1048.1,384.3c-0.8,0.1-1.9,0.3-3.1,0.4c-9,0.8-26.7,1-26.7,1s-13.2-26.2-24.5-25.3c0,0,10.4-11.8,14.6-10.4
		c0.7,0.2,1.2-0.3,1.4-1.3c1.1-5-2.8-22.4-2.8-22.4l-5.3-23.4l31,7.6c2.8,0.6,11.5,5.1,11.5,5.1s0.3,12.1,2.5,14.9
		s4.8,16.3,4.5,19.7s3.1,19.1-0.3,23.4S1055.1,383.1,1048.1,384.3z"/>
	<path class="st3" d="M1016.3,322.9c0,0,25.9,2.8,27,9.3S1016.3,322.9,1016.3,322.9z"/>
	<path class="st3" d="M992.9,233.5c0,8.6-3.3,16.9-9.2,23.2c0,0-0.1-0.1-0.1-0.2c-1-2.1-2-4.4-1.9-6.7c0.1-2.8,1.7-5.4,2.2-8.2
		c0.7-3.5-0.5-7.1-1.6-10.5c-0.8-2.5-2.4-5.5-5.1-5.2c-0.5,0.1-1,0.2-1.6,0.2c-1.4-0.2-1.7-2-1.8-3.4c-0.9-6.8-6-12.2-12.7-13.4
		c-0.7-0.2-1.5-0.1-2.2,0.1c-1,0.4-1.5,1.5-2.4,2.1c-2.9,2-6.5-1.8-10-1.5c-3,0.2-4.8,3.3-6,6s-2.7,5.8-5.6,6.4
		c-0.5,0.1-1,0.1-1.4-0.1c-0.9-0.7-0.3-2,0.2-3.1c1.2-2.7,0.4-4.8-1.1-6.7c11.6-14.6,32.9-17,47.4-5.3
		C988.2,213.5,992.8,223.2,992.9,233.5L992.9,233.5z"/>
	<path class="st17" d="M883.9,497.1c-2.9-1.5-5.7-3-8.4-4.7c-3.8-2.3-7.5-4.9-11.1-7.6l-3.5-28l-0.1-0.9l-6.5-53.3l-0.4-3.1
		l10.9-0.3l7.7-0.2l0.5,4.5l4.4,37.5l0.1,0.9L883.9,497.1z"/>
	<path class="st3" d="M875.5,492.4c-3.8-2.3-7.5-4.9-11.1-7.6l-3.5-28l-0.1-0.9l-6.5-53.3l-0.4-3.1l10.9-0.3l-0.5,1.7l0.3,2.2
		l5.5,44.5l0.1,0.9L875.5,492.4z"/>
	<path class="st17" d="M950.4,400l-0.6,4.8l-0.9,7.2l-2,15.9l-0.1,1.1l-0.1,1.1l-5.5,43.6l-1.7,13.6l-0.6,4.5l-0.1,0.5l-2.2,17.7
		l-2.5-0.2h-0.5c-1.7-0.1-3.5-0.3-5.2-0.5c-1-0.1-2-0.2-3-0.3c-1.5-0.2-3-0.4-4.5-0.6h-0.1l-1.5-0.2l1.4-9.9V498l6.4-47.9l2.7-20.3
		l0.2-1.1l0.2-1.1l2.1-15.9l0.9-6.7l0.5-3.9h0.7L950.4,400z"/>
	<path class="st2" d="M941.1,402.6l-0.3,2.4l-0.8,6.9l-1.9,15.9l-0.1,1.1l-0.2,1.2l-3.7,31.5l-4,33.6v0.4l-1,8.4l-0.6,5.5
		c-1-0.1-2-0.2-3-0.3c-1.5-0.2-3-0.4-4.5-0.6h-0.1l-1.5-0.2l1.4-9.9v-0.3l6.4-47.9l2.7-20.3l0.2-1.1l0.2-1.1l2.1-15.9l0.9-6.7
		l0.5-3.9h0.7L941.1,402.6z"/>
	<path class="st15" d="M1022,493.7l0.4,2.9c-1.8,0.9-3.6,1.8-5.4,2.6c-2.2,1-4.4,1.9-6.7,2.7l-1.7-13.2l-1.1-8.6l-1.9-14.8
		l-1.8-14.3l-0.3-2.4l-4.4-34.8l-0.8-6.1l-0.2-2l-0.2-1.8l-0.5-4.2h0.3h0.1l7.6-0.8l2.4-0.2l0.8,5.1l1.1,7.2l7.1,47.7l1.5,10.1
		l1.4,9.5l2.2,14.9L1022,493.7z"/>
	<path class="st18" d="M1022,493.7l0.4,2.9c-1.8,0.9-3.6,1.8-5.4,2.6c-2.2,1-4.4,1.9-6.7,2.7l-1.7-13.2l-1.1-8.6l-1.9-14.8
		l-1.8-14.3l-0.3-2.4l-4.4-34.8l-0.8-6.1l-0.2-2l-0.2-1.8l-0.5-4.2h0.3h0.1l7.6-0.8l2.4-0.2l0.8,5.1l1.1,7.2l7.1,47.7l1.5,10.1
		l1.4,9.5l2.2,14.9L1022,493.7z"/>
	<path class="st17" d="M1022.5,496.6c-1.8,0.9-3.6,1.8-5.4,2.6l-1.1-9.9l-0.8-6.7l-1.1-9.3l-0.2-1.6l-1.2-10.6l-5.7-49.4l-0.9-7.9
		l-0.3-2.6l-0.5-2.3l2.4-0.2l0.8,5.1l1.1,7.2l7.1,47.7l1.5,10.1l1.4,9.5l2.2,14.9l0.1,0.5L1022.5,496.6z"/>
	<path class="st15" d="M1046.4,399.2l-0.1,3.8l-1.2,78.9c-0.6,0.5-1.2,1-1.8,1.5c0,0.4,0,0.6,0,0.6l-1.1,0.5l-0.8,0.3
		c-0.7,0.5-1.4,1-2.1,1.5l-0.5,0.3c-1.7,1.2-3.3,2.3-5.1,3.5v-1.9v-0.5l1-68l0.1-4.2l0.2-12.3l0.1-5.5l7.6,1L1046.4,399.2z"/>
	<path class="st18" d="M1046.4,399.2l-0.1,3.8l-1.2,78.9c-0.6,0.5-1.2,1-1.8,1.5c0,0.4,0,0.6,0,0.6l-1.1,0.5l-0.8,0.3
		c-0.7,0.5-1.4,1-2.1,1.5l-0.5,0.3c-1.7,1.2-3.3,2.3-5.1,3.5v-1.9v-0.5l1-68l0.1-4.2l0.2-12.3l0.1-5.5l7.6,1L1046.4,399.2z"/>
	<path class="st17" d="M1046.4,399.2l-0.1,3.8l-1.2,78.9c-0.6,0.5-1.2,1-1.8,1.5c0,0.4,0,0.6,0,0.6l-1.1,0.5v-0.3l0.2-31l0.3-50.1
		v-4.4L1046.4,399.2z"/>
	<path class="st15" d="M1098,394.1L1098,394.1c0,0.4-0.1,0.6-0.1,0.9c-0.4,2.4-0.8,4.7-1.3,7.1l-50.2,0.9l-3.7,0.1l-7.6,0.1
		l-3.2,0.1h-1.1l-22.1,0.4h-2.4l-8,0.1h-0.2l-6.1,0.1l-9.9,0.2H981l0,0l-31,0.6l-9,0.2l-7.6,0.1l-6.6,0.1h-1.1h-2.4h-0.1l-5,0.1
		l-22.8-1h-1.1l-21.2-0.9l-8.4-0.4l-10.3-0.5l-62.2-2.7c-1.5-2.8-3-5.7-4.4-8.7c-0.4-0.9-0.9-1.8-1.3-2.7l63.3-1l0,0l39-0.6l0,0
		l7.4-0.1h1.1l20-0.3l6.8,0.4h0.1l3.4,0.2l1.1,0.1l13.7,0.8l0,0l33.2,1.8l1.2,0.1l15.5,0.9l4.7,0.3h0.1l31,1.7l1.1,0.1h0.2
		L1098,394.1z"/>
	<path class="st17" d="M1098,394.1L1098,394.1c0,0.4-0.1,0.6-0.1,0.9c-0.4,2.4-0.8,4.7-1.3,7.1l-50.2,0.9l-3.6,0.1l-7.6,0.1
		l-3.2,0.1h-1.1l-22.1,0.4h-2.4l-8,0.1h-0.2l-6.1,0.1l-9.9,0.2h-1.1l0,0l-31,0.6l-9,0.2l-7.6,0.1l-6.6,0.1h-1.1h-2.4h-0.1l-5,0.1
		l-22.8-1h-1.1l-21.2-0.9l-8.4-0.4l-10.3-0.4l-62.2-2.7c-1.5-2.8-3-5.7-4.4-8.7c-0.4-0.9-0.9-1.8-1.3-2.7l63.3-1l0,0l39-0.6l0,0
		l7.4-0.1h1.1l20-0.3l6.8,0.4h0.1l3.4,0.2l1.1,0.1l13.7,0.8l0,0l33.2,1.8l1.1,0.1l15.5,0.9l4.7,0.3h0.1l31,1.7l1.1,0.1h0.2
		L1098,394.1z"/>
	<path class="st3" d="M1098,394.1L1098,394.1l-68.4,0.2h-1.1l-31.2,0.1h-5.2h-13.7h-1.1l-49.4,0.1h-4.3l-27.2,0.1h-1.1l-28.5,0.1
		l-79.2-3.4c-0.4-0.9-0.9-1.8-1.3-2.7l63.3-1l0,0l39-0.6l0,0l7.4-0.1h1.1l20-0.3l6.8,0.4h0.1l3.4,0.2l1.1,0.1l13.7,0.8l0,0l33.2,1.8
		l1.1,0.1l15.5,0.9l4.7,0.3h0.1l31,1.7l1.1,0.1h0.2L1098,394.1z"/>
	<path class="st3" d="M1031.7,348.2c1.7,0.6,11.5,3.1,13.5,9S1031.7,348.2,1031.7,348.2z"/>
	<path class="st14" d="M1002.7,358.1c0,0-14.3,4.4-20.8,4.4s-31.8-0.1-31.8-0.1s-66.2-22.1-46.3,8.2S955,384,955,384
		s2.5,0.6,5.6,1.3c3.1,0.7,62.9,0.1,64.9-2.2C1027.5,380.8,1002.7,358.1,1002.7,358.1z"/>
	<path class="st3" d="M1043.8,384.6c-9,0.8-26.7,1-26.7,1s-13.2-26.2-24.5-25.3c0,0,10.4-11.8,14.6-10.4c0.7,0.2,1.1-0.3,1.4-1.3
		c11,3.4,32,11.6,34.1,26.1C1043.3,378.6,1043.6,381.8,1043.8,384.6z"/>
	<path class="st19" d="M1044.9,384.6c-9,0.8-26.7,1-26.7,1s-13.2-26.2-24.5-25.3c0,0,10.4-11.8,14.6-10.4c0.7,0.2,1.2-0.3,1.4-1.3
		c11,3.4,32,11.6,34.1,26.1C1044.4,378.6,1044.7,381.8,1044.9,384.6z"/>
	<path class="st3" d="M1043.8,384.6c-9,0.8-26.7,1-26.7,1s-13.2-26.2-24.5-25.3c0,0,10.4-11.8,14.6-10.4c0.7,0.2,1.1-0.3,1.4-1.3
		c11,3.4,32,11.6,34.1,26.1C1043.3,378.6,1043.6,381.9,1043.8,384.6z"/>
	<path class="st3" d="M965.9,460c0,0,25.3-6.2,29.3-2.8S965.9,460,965.9,460z"/>
	<path class="st3" d="M893.3,484.2c0,0,10.7,6.2,11.8,11.3S893.3,484.2,893.3,484.2z"/>
	<path class="st20" d="M848,274.1V385c0,1.9,1,2.2,2.7,3.1c5.6,3.1,19.5,8.7,36.1-0.1c1.7-0.9,2.8-1.2,2.8-3.1V274.8
		C889.6,274.8,868.4,283.3,848,274.1z"/>
	<ellipse class="st21" cx="868.8" cy="274" rx="20.8" ry="4.4"/>
	<g class="st22">
		<circle cx="849.9" cy="320.2" r="0.5"/>
		<circle cx="852.2" cy="320.8" r="0.5"/>
		<circle cx="855.2" cy="321.7" r="0.5"/>
		<circle cx="860.4" cy="322.9" r="0.5"/>
		<circle cx="865.9" cy="323.5" r="0.5"/>
		<circle cx="871.7" cy="323.8" r="0.5"/>
		<circle cx="879.9" cy="322.7" r="0.5"/>
		<circle cx="877.2" cy="323.3" r="0.5"/>
		<circle cx="885" cy="321.7" r="0.5"/>
		<circle cx="882.5" cy="322.2" r="0.5"/>
		<circle cx="887.7" cy="320.8" r="0.5"/>
		<circle cx="857.8" cy="322.4" r="0.5"/>
		<circle cx="863.3" cy="323.3" r="0.5"/>
		<circle cx="869.1" cy="323.8" r="0.5"/>
		<circle cx="874.5" cy="323.8" r="0.5"/>
	</g>
	<g class="st22">
		<circle cx="849.9" cy="322.4" r="0.5"/>
		<circle cx="852.2" cy="323.1" r="0.5"/>
		<circle cx="855.2" cy="324" r="0.5"/>
		<circle cx="860.4" cy="325.2" r="0.5"/>
		<circle cx="865.9" cy="325.8" r="0.5"/>
		<circle cx="871.7" cy="326.1" r="0.5"/>
		<circle cx="879.9" cy="325" r="0.5"/>
		<circle cx="877.2" cy="325.6" r="0.5"/>
		<circle cx="885" cy="324" r="0.5"/>
		<circle cx="882.5" cy="324.5" r="0.5"/>
		<circle cx="887.7" cy="323.1" r="0.5"/>
		<circle cx="857.8" cy="324.7" r="0.5"/>
		<circle cx="863.3" cy="325.6" r="0.5"/>
		<circle cx="869.1" cy="326.1" r="0.5"/>
		<circle cx="874.5" cy="326.1" r="0.5"/>
	</g>
	<g class="st22">
		<circle cx="849.9" cy="324.7" r="0.5"/>
		<circle cx="852.2" cy="325.4" r="0.5"/>
		<circle cx="855.2" cy="326.3" r="0.5"/>
		<circle cx="860.4" cy="327.5" r="0.5"/>
		<circle cx="865.9" cy="328.1" r="0.5"/>
		<circle cx="871.7" cy="328.4" r="0.5"/>
		<circle cx="879.9" cy="327.3" r="0.5"/>
		<circle cx="877.2" cy="327.9" r="0.5"/>
		<circle cx="885" cy="326.3" r="0.5"/>
		<circle cx="882.5" cy="326.8" r="0.5"/>
		<circle cx="887.7" cy="325.4" r="0.5"/>
		<circle cx="857.8" cy="327" r="0.5"/>
		<circle cx="863.3" cy="327.9" r="0.5"/>
		<circle cx="869.1" cy="328.4" r="0.5"/>
		<circle cx="874.5" cy="328.4" r="0.5"/>
	</g>
	<g class="st22">
		<circle cx="849.9" cy="327" r="0.5"/>
		<circle cx="852.2" cy="327.7" r="0.5"/>
		<circle cx="855.2" cy="328.6" r="0.5"/>
		<circle cx="860.4" cy="329.8" r="0.5"/>
		<circle cx="865.9" cy="330.4" r="0.5"/>
		<circle cx="871.7" cy="330.7" r="0.5"/>
		<circle cx="879.9" cy="329.6" r="0.5"/>
		<circle cx="877.2" cy="330.2" r="0.5"/>
		<circle cx="885" cy="328.6" r="0.5"/>
		<circle cx="882.5" cy="329.1" r="0.5"/>
		<circle cx="887.7" cy="327.7" r="0.5"/>
		<circle cx="857.8" cy="329.3" r="0.5"/>
		<circle cx="863.3" cy="330.2" r="0.5"/>
		<circle cx="869.1" cy="330.7" r="0.5"/>
		<circle cx="874.5" cy="330.7" r="0.5"/>
	</g>
	<g class="st22">
		<circle cx="849.9" cy="329.3" r="0.5"/>
		<circle cx="852.2" cy="330" r="0.5"/>
		<circle cx="855.2" cy="330.9" r="0.5"/>
		<circle cx="860.4" cy="332.1" r="0.5"/>
		<circle cx="865.9" cy="332.7" r="0.5"/>
		<circle cx="871.7" cy="333" r="0.5"/>
		<circle cx="879.9" cy="331.9" r="0.5"/>
		<circle cx="877.2" cy="332.5" r="0.5"/>
		<circle cx="885" cy="330.9" r="0.5"/>
		<circle cx="882.5" cy="331.4" r="0.5"/>
		<circle cx="887.7" cy="330" r="0.5"/>
		<circle cx="857.8" cy="331.6" r="0.5"/>
		<circle cx="863.3" cy="332.5" r="0.5"/>
		<circle cx="869.1" cy="333" r="0.5"/>
		<circle cx="874.5" cy="333" r="0.5"/>
	</g>
	<g class="st22">
		<circle cx="849.9" cy="331.6" r="0.5"/>
		<circle cx="852.2" cy="332.3" r="0.5"/>
		<circle cx="855.2" cy="333.2" r="0.5"/>
		<circle cx="860.4" cy="334.3" r="0.5"/>
		<circle cx="865.9" cy="335" r="0.5"/>
		<circle cx="871.7" cy="335.3" r="0.5"/>
		<circle cx="879.9" cy="334.2" r="0.5"/>
		<circle cx="877.2" cy="334.8" r="0.5"/>
		<circle cx="885" cy="333.2" r="0.5"/>
		<circle cx="882.5" cy="333.7" r="0.5"/>
		<circle cx="887.7" cy="332.3" r="0.5"/>
		<circle cx="857.8" cy="333.9" r="0.5"/>
		<circle cx="863.3" cy="334.8" r="0.5"/>
		<circle cx="869.1" cy="335.3" r="0.5"/>
		<circle cx="874.5" cy="335.3" r="0.5"/>
	</g>
	<g class="st22">
		<circle cx="849.9" cy="333.9" r="0.5"/>
		<circle cx="852.2" cy="334.6" r="0.5"/>
		<circle cx="855.2" cy="335.5" r="0.5"/>
		<circle cx="860.4" cy="336.7" r="0.5"/>
		<circle cx="865.9" cy="337.3" r="0.5"/>
		<circle cx="871.7" cy="337.6" r="0.5"/>
		<circle cx="879.9" cy="336.4" r="0.5"/>
		<circle cx="877.2" cy="337.1" r="0.5"/>
		<circle cx="885" cy="335.5" r="0.5"/>
		<circle cx="882.5" cy="336" r="0.5"/>
		<circle cx="887.7" cy="334.6" r="0.5"/>
		<circle cx="857.8" cy="336.2" r="0.5"/>
		<circle cx="863.3" cy="337.1" r="0.5"/>
		<circle cx="869.1" cy="337.6" r="0.5"/>
		<circle cx="874.5" cy="337.6" r="0.5"/>
	</g>
	<g class="st22">
		<circle cx="849.9" cy="336.2" r="0.5"/>
		<circle cx="852.2" cy="336.9" r="0.5"/>
		<circle cx="855.2" cy="337.8" r="0.5"/>
		<circle cx="860.4" cy="338.9" r="0.5"/>
		<circle cx="865.9" cy="339.6" r="0.5"/>
		<circle cx="871.7" cy="339.9" r="0.5"/>
		<circle cx="879.9" cy="338.7" r="0.5"/>
		<circle cx="877.2" cy="339.4" r="0.5"/>
		<circle cx="885" cy="337.8" r="0.5"/>
		<circle cx="882.5" cy="338.3" r="0.5"/>
		<circle cx="887.7" cy="336.9" r="0.5"/>
		<circle cx="857.8" cy="338.5" r="0.5"/>
		<circle cx="863.3" cy="339.4" r="0.5"/>
		<circle cx="869.1" cy="339.9" r="0.5"/>
		<circle cx="874.5" cy="339.9" r="0.5"/>
	</g>
	<g class="st22">
		<circle cx="849.9" cy="338.5" r="0.5"/>
		<circle cx="852.2" cy="339.2" r="0.5"/>
		<circle cx="855.2" cy="340.1" r="0.5"/>
		<circle cx="860.4" cy="341.2" r="0.5"/>
		<circle cx="865.9" cy="341.9" r="0.5"/>
		<circle cx="871.7" cy="342.2" r="0.5"/>
		<circle cx="879.9" cy="341" r="0.5"/>
		<circle cx="877.2" cy="341.7" r="0.5"/>
		<circle cx="885" cy="340.1" r="0.5"/>
		<circle cx="882.5" cy="340.6" r="0.5"/>
		<circle cx="887.7" cy="339.2" r="0.5"/>
		<circle cx="857.8" cy="340.8" r="0.5"/>
		<circle cx="863.3" cy="341.7" r="0.5"/>
		<circle cx="869.1" cy="342.2" r="0.5"/>
		<circle cx="874.5" cy="342.2" r="0.5"/>
	</g>
	<g class="st22">
		<circle cx="849.9" cy="340.8" r="0.5"/>
		<circle cx="852.2" cy="341.5" r="0.5"/>
		<circle cx="855.2" cy="342.4" r="0.5"/>
		<circle cx="860.4" cy="343.5" r="0.5"/>
		<circle cx="865.9" cy="344.2" r="0.5"/>
		<circle cx="871.7" cy="344.5" r="0.5"/>
		<circle cx="879.9" cy="343.3" r="0.5"/>
		<circle cx="877.2" cy="344" r="0.5"/>
		<circle cx="885" cy="342.4" r="0.5"/>
		<circle cx="882.5" cy="342.9" r="0.5"/>
		<circle cx="887.7" cy="341.5" r="0.5"/>
		<circle cx="857.8" cy="343.1" r="0.5"/>
		<circle cx="863.3" cy="344" r="0.5"/>
		<circle cx="869.1" cy="344.5" r="0.5"/>
		<circle cx="874.5" cy="344.5" r="0.5"/>
	</g>
	<g class="st22">
		<circle cx="849.9" cy="343.1" r="0.5"/>
		<circle cx="852.2" cy="343.8" r="0.5"/>
		<circle cx="855.2" cy="344.7" r="0.5"/>
		<circle cx="860.4" cy="345.8" r="0.5"/>
		<circle cx="865.9" cy="346.5" r="0.5"/>
		<circle cx="871.7" cy="346.8" r="0.5"/>
		<circle cx="879.9" cy="345.6" r="0.5"/>
		<circle cx="877.2" cy="346.3" r="0.5"/>
		<circle cx="885" cy="344.7" r="0.5"/>
		<circle cx="882.5" cy="345.2" r="0.5"/>
		<circle cx="887.7" cy="343.8" r="0.5"/>
		<circle cx="857.8" cy="345.4" r="0.5"/>
		<circle cx="863.3" cy="346.3" r="0.5"/>
		<circle cx="869.1" cy="346.8" r="0.5"/>
		<circle cx="874.5" cy="346.8" r="0.5"/>
	</g>
	<g class="st22">
		<circle cx="849.9" cy="345.4" r="0.5"/>
		<circle cx="852.2" cy="346.1" r="0.5"/>
		<circle cx="855.2" cy="347" r="0.5"/>
		<circle cx="860.4" cy="348.1" r="0.5"/>
		<circle cx="865.9" cy="348.8" r="0.5"/>
		<circle cx="871.7" cy="349.1" r="0.5"/>
		<circle cx="879.9" cy="347.9" r="0.5"/>
		<circle cx="877.2" cy="348.6" r="0.5"/>
		<circle cx="885" cy="347" r="0.5"/>
		<circle cx="882.5" cy="347.5" r="0.5"/>
		<circle cx="887.7" cy="346.1" r="0.5"/>
		<circle cx="857.8" cy="347.7" r="0.5"/>
		<circle cx="863.3" cy="348.6" r="0.5"/>
		<circle cx="869.1" cy="349.1" r="0.5"/>
		<circle cx="874.5" cy="349.1" r="0.5"/>
	</g>
	<g class="st22">
		<circle cx="849.9" cy="347.7" r="0.5"/>
		<circle cx="852.2" cy="348.4" r="0.5"/>
		<circle cx="855.2" cy="349.3" r="0.5"/>
		<circle cx="860.4" cy="350.4" r="0.5"/>
		<circle cx="865.9" cy="351.1" r="0.5"/>
		<circle cx="871.7" cy="351.3" r="0.5"/>
		<circle cx="879.9" cy="350.2" r="0.5"/>
		<circle cx="877.2" cy="350.9" r="0.5"/>
		<circle cx="885" cy="349.3" r="0.5"/>
		<circle cx="882.5" cy="349.8" r="0.5"/>
		<circle cx="887.7" cy="348.4" r="0.5"/>
		<circle cx="857.8" cy="350" r="0.5"/>
		<circle cx="863.3" cy="350.9" r="0.5"/>
		<circle cx="869.1" cy="351.3" r="0.5"/>
		<circle cx="874.5" cy="351.3" r="0.5"/>
	</g>
	<g class="st22">
		<circle cx="849.9" cy="350" r="0.5"/>
		<circle cx="852.2" cy="350.7" r="0.5"/>
		<circle cx="855.2" cy="351.6" r="0.5"/>
		<circle cx="860.4" cy="352.7" r="0.5"/>
		<circle cx="865.9" cy="353.4" r="0.5"/>
		<circle cx="871.7" cy="353.7" r="0.5"/>
		<circle cx="879.9" cy="352.5" r="0.5"/>
		<circle cx="877.2" cy="353.2" r="0.5"/>
		<circle cx="885" cy="351.6" r="0.5"/>
		<circle cx="882.5" cy="352.1" r="0.5"/>
		<circle cx="887.7" cy="350.7" r="0.5"/>
		<circle cx="857.8" cy="352.2" r="0.5"/>
		<circle cx="863.3" cy="353.2" r="0.5"/>
		<circle cx="869.1" cy="353.7" r="0.5"/>
		<circle cx="874.5" cy="353.7" r="0.5"/>
	</g>
	<g class="st22">
		<circle cx="849.9" cy="352.3" r="0.5"/>
		<circle cx="852.2" cy="353" r="0.5"/>
		<circle cx="855.2" cy="353.9" r="0.5"/>
		<circle cx="860.4" cy="355" r="0.5"/>
		<circle cx="865.9" cy="355.7" r="0.5"/>
		<circle cx="871.7" cy="356" r="0.5"/>
		<circle cx="879.9" cy="354.8" r="0.5"/>
		<circle cx="877.2" cy="355.5" r="0.5"/>
		<circle cx="885" cy="353.9" r="0.5"/>
		<circle cx="882.5" cy="354.3" r="0.5"/>
		<circle cx="887.7" cy="353" r="0.5"/>
		<circle cx="857.8" cy="354.6" r="0.5"/>
		<circle cx="863.3" cy="355.5" r="0.5"/>
		<circle cx="869.1" cy="356" r="0.5"/>
		<circle cx="874.5" cy="356" r="0.5"/>
	</g>
	<g class="st22">
		<circle cx="849.9" cy="354.6" r="0.5"/>
		<circle cx="852.2" cy="355.2" r="0.5"/>
		<circle cx="855.2" cy="356.2" r="0.5"/>
		<circle cx="860.4" cy="357.3" r="0.5"/>
		<circle cx="865.9" cy="358" r="0.5"/>
		<circle cx="871.7" cy="358.2" r="0.5"/>
		<circle cx="879.9" cy="357.1" r="0.5"/>
		<circle cx="877.2" cy="357.8" r="0.5"/>
		<circle cx="885" cy="356.2" r="0.5"/>
		<circle cx="882.5" cy="356.6" r="0.5"/>
		<circle cx="887.7" cy="355.2" r="0.5"/>
		<circle cx="857.8" cy="356.8" r="0.5"/>
		<circle cx="863.3" cy="357.8" r="0.5"/>
		<circle cx="869.1" cy="358.2" r="0.5"/>
		<circle cx="874.5" cy="358.2" r="0.5"/>
	</g>
	<g class="st22">
		<circle cx="849.9" cy="356.9" r="0.5"/>
		<circle cx="852.2" cy="357.5" r="0.5"/>
		<circle cx="855.2" cy="358.5" r="0.5"/>
		<circle cx="860.4" cy="359.6" r="0.5"/>
		<circle cx="865.9" cy="360.3" r="0.5"/>
		<circle cx="871.7" cy="360.5" r="0.5"/>
		<circle cx="879.9" cy="359.4" r="0.5"/>
		<circle cx="877.2" cy="360.1" r="0.5"/>
		<circle cx="885" cy="358.5" r="0.5"/>
		<circle cx="882.5" cy="358.9" r="0.5"/>
		<circle cx="887.7" cy="357.5" r="0.5"/>
		<circle cx="857.8" cy="359.1" r="0.5"/>
		<circle cx="863.3" cy="360.1" r="0.5"/>
		<circle cx="869.1" cy="360.5" r="0.5"/>
		<circle cx="874.5" cy="360.5" r="0.5"/>
	</g>
	<g class="st22">
		<circle cx="849.9" cy="359.2" r="0.5"/>
		<circle cx="852.2" cy="359.8" r="0.5"/>
		<circle cx="855.2" cy="360.8" r="0.5"/>
		<circle cx="860.4" cy="361.9" r="0.5"/>
		<circle cx="865.9" cy="362.6" r="0.5"/>
		<circle cx="871.7" cy="362.8" r="0.5"/>
		<circle cx="879.9" cy="361.7" r="0.5"/>
		<circle cx="877.2" cy="362.4" r="0.5"/>
		<circle cx="885" cy="360.8" r="0.5"/>
		<circle cx="882.5" cy="361.2" r="0.5"/>
		<circle cx="887.7" cy="359.8" r="0.5"/>
		<circle cx="857.8" cy="361.4" r="0.5"/>
		<circle cx="863.3" cy="362.4" r="0.5"/>
		<circle cx="869.1" cy="362.8" r="0.5"/>
		<circle cx="874.5" cy="362.8" r="0.5"/>
	</g>
	<g class="st22">
		<circle cx="849.9" cy="361.5" r="0.5"/>
		<circle cx="852.2" cy="362.1" r="0.5"/>
		<circle cx="855.2" cy="363.1" r="0.5"/>
		<circle cx="860.4" cy="364.2" r="0.5"/>
		<circle cx="865.9" cy="364.9" r="0.5"/>
		<circle cx="871.7" cy="365.1" r="0.5"/>
		<circle cx="879.9" cy="364" r="0.5"/>
		<circle cx="877.2" cy="364.7" r="0.5"/>
		<circle cx="885" cy="363.1" r="0.5"/>
		<circle cx="882.5" cy="363.5" r="0.5"/>
		<circle cx="887.7" cy="362.1" r="0.5"/>
		<circle cx="857.8" cy="363.7" r="0.5"/>
		<circle cx="863.3" cy="364.7" r="0.5"/>
		<circle cx="869.1" cy="365.1" r="0.5"/>
		<circle cx="874.5" cy="365.1" r="0.5"/>
	</g>
	<g class="st22">
		<circle cx="849.9" cy="363.8" r="0.5"/>
		<circle cx="852.2" cy="364.4" r="0.5"/>
		<circle cx="855.2" cy="365.4" r="0.5"/>
		<circle cx="860.4" cy="366.5" r="0.5"/>
		<circle cx="865.9" cy="367.2" r="0.5"/>
		<circle cx="871.7" cy="367.4" r="0.5"/>
		<circle cx="879.9" cy="366.3" r="0.5"/>
		<circle cx="877.2" cy="367" r="0.5"/>
		<circle cx="885" cy="365.4" r="0.5"/>
		<circle cx="882.5" cy="365.8" r="0.5"/>
		<circle cx="887.7" cy="364.4" r="0.5"/>
		<circle cx="857.8" cy="366" r="0.5"/>
		<circle cx="863.3" cy="367" r="0.5"/>
		<circle cx="869.1" cy="367.4" r="0.5"/>
		<circle cx="874.5" cy="367.4" r="0.5"/>
	</g>
	<g class="st22">
		<circle cx="849.9" cy="366.1" r="0.5"/>
		<circle cx="852.2" cy="366.7" r="0.5"/>
		<circle cx="855.2" cy="367.7" r="0.5"/>
		<circle cx="860.4" cy="368.8" r="0.5"/>
		<circle cx="865.9" cy="369.5" r="0.5"/>
		<circle cx="871.7" cy="369.7" r="0.5"/>
		<circle cx="879.9" cy="368.6" r="0.5"/>
		<circle cx="877.2" cy="369.2" r="0.5"/>
		<circle cx="885" cy="367.7" r="0.5"/>
		<circle cx="882.5" cy="368.1" r="0.5"/>
		<circle cx="887.7" cy="366.7" r="0.5"/>
		<circle cx="857.8" cy="368.3" r="0.5"/>
		<circle cx="863.3" cy="369.2" r="0.5"/>
		<circle cx="869.1" cy="369.7" r="0.5"/>
		<circle cx="874.5" cy="369.7" r="0.5"/>
	</g>
	<g class="st22">
		<circle cx="849.9" cy="368.4" r="0.5"/>
		<circle cx="852.2" cy="369" r="0.5"/>
		<circle cx="855.2" cy="370" r="0.5"/>
		<circle cx="860.4" cy="371.1" r="0.5"/>
		<circle cx="865.9" cy="371.7" r="0.5"/>
		<circle cx="871.7" cy="372" r="0.5"/>
		<circle cx="879.9" cy="370.9" r="0.5"/>
		<circle cx="877.2" cy="371.6" r="0.5"/>
		<circle cx="885" cy="370" r="0.5"/>
		<circle cx="882.5" cy="370.4" r="0.5"/>
		<circle cx="887.7" cy="369" r="0.5"/>
		<circle cx="857.8" cy="370.6" r="0.5"/>
		<circle cx="863.3" cy="371.6" r="0.5"/>
		<circle cx="869.1" cy="372" r="0.5"/>
		<circle cx="874.5" cy="372" r="0.5"/>
	</g>
	<g class="st22">
		<circle cx="849.9" cy="370.7" r="0.5"/>
		<circle cx="852.2" cy="371.3" r="0.5"/>
		<circle cx="855.2" cy="372.2" r="0.5"/>
		<circle cx="860.4" cy="373.4" r="0.5"/>
		<circle cx="865.9" cy="374.1" r="0.5"/>
		<circle cx="871.7" cy="374.3" r="0.5"/>
		<circle cx="879.9" cy="373.2" r="0.5"/>
		<circle cx="877.2" cy="373.8" r="0.5"/>
		<circle cx="885" cy="372.2" r="0.5"/>
		<circle cx="882.5" cy="372.7" r="0.5"/>
		<circle cx="887.7" cy="371.3" r="0.5"/>
		<circle cx="857.8" cy="372.9" r="0.5"/>
		<circle cx="863.3" cy="373.8" r="0.5"/>
		<circle cx="869.1" cy="374.3" r="0.5"/>
		<circle cx="874.5" cy="374.3" r="0.5"/>
	</g>
	<g class="st22">
		<circle cx="849.9" cy="373" r="0.5"/>
		<circle cx="852.2" cy="373.6" r="0.5"/>
		<circle cx="855.2" cy="374.5" r="0.5"/>
		<circle cx="860.4" cy="375.7" r="0.5"/>
		<circle cx="865.9" cy="376.3" r="0.5"/>
		<circle cx="871.7" cy="376.6" r="0.5"/>
		<circle cx="879.9" cy="375.5" r="0.5"/>
		<circle cx="877.2" cy="376.1" r="0.5"/>
		<circle cx="885" cy="374.5" r="0.5"/>
		<circle cx="882.5" cy="375" r="0.5"/>
		<circle cx="887.7" cy="373.6" r="0.5"/>
		<circle cx="857.8" cy="375.2" r="0.5"/>
		<circle cx="863.3" cy="376.1" r="0.5"/>
		<circle cx="869.1" cy="376.6" r="0.5"/>
		<circle cx="874.5" cy="376.6" r="0.5"/>
	</g>
	<path class="st13" d="M924.1,217.9c0,0,13.7-5.1,18.2,5.4l1.3,0.3l2.9,0.7c7.2-10.8,26.3,0,26.3,0l26.8,11.9l-1,1.7l-26.9-9.4
		c0,0-3.6,11-8.2,13.6s-12.2-1.5-12.2-1.5c-4.7-1.9-5.1-10.2-5-14.2l-4.1-0.8c-0.3,4-1.8,11.7-9,12.6c-9.8,1.2-10.5-7.5-10.5-7.5
		S922.4,219.7,924.1,217.9z"/>
	<path class="st19" d="M933.8,218c-0.5,1-1.1,2.4-0.2,3.1c0.4,0.2,0.9,0.3,1.4,0.2c2.9-0.6,4.4-3.7,5.6-6.4s3-5.7,6-6
		c3.5-0.3,7.1,3.5,10,1.5c0.9-0.6,1.4-1.7,2.4-2.1c0.7-0.3,1.5-0.3,2.2-0.1c6.7,1.2,11.9,6.6,12.7,13.3c0.2,1.4,0.4,3.2,1.8,3.4
		c0.5,0,1-0.1,1.6-0.2c2.6-0.3,4.2,2.7,5.1,5.2c1.1,3.4,2.3,7,1.6,10.5c-0.5,2.8-2.2,5.4-2.2,8.2c-0.1,2.3,0.9,4.6,1.9,6.7
		c1,2.1,2.6,4.6,4.9,4.3c1.9-0.2,2.9-2.3,3.9-4c1-1.7,2.6-3.5,4.4-3c0.8,0.2,1.7,0.9,2.4,0.5c0.4-0.3,0.7-0.7,0.7-1.2
		c0.9-3.9-0.4-8.4,1.5-11.9c1.5-2.7,4.5-4.2,6.9-6.1c8.5-6.8,9.9-19.2,3.1-27.7c-0.1-0.2-0.3-0.4-0.4-0.5c-2.6-3-6.3-5.7-6.5-9.7
		c-0.2-3,1.9-5.8,1.9-8.9s-1.9-5.6-4-7.6c-6.4-5.8-15.2-8.1-23.6-6.2c-2.2,0.5-4.4,1.3-6.6,1.1c-2.6-0.3-4.7-2-7.1-3.2
		c-7.6-3.9-17.9-1.1-22.5,6.1c-2.7,4.1-3.7,9.6-7.7,12.5c-2.6,1.9-6.4,2.6-7.8,5.5c-0.9,1.7-0.6,3.8-0.4,5.7
		c0.4,3.2,1.9,6.1,4.3,8.2C933.3,211.7,935.4,214.3,933.8,218z"/>
	<g class="st9">
		<path d="M1005.6,190.6c0.3-0.8,0.5-1.5,0.6-2.3C1006,189,1005.8,189.8,1005.6,190.6z"/>
		<path d="M934.4,215.6c0.1-0.5,0.3-1,0.6-1.5c1.6-3.7-0.5-6.3-2.9-8.8c-2.4-2.1-3.9-5-4.3-8.2c-0.1-0.9-0.2-1.7-0.2-2.6
			c-0.2,0.3-0.4,0.5-0.5,0.8c-0.9,1.7-0.6,3.8-0.4,5.7c0.4,3.2,1.9,6.1,4.3,8.2C932.8,211.1,934.4,213.1,934.4,215.6z"/>
		<path d="M997.8,248.8c-1.8-0.5-3.5,1.3-4.4,3s-2,3.7-3.9,4c-2.3,0.3-3.9-2.2-4.9-4.3s-2-4.4-1.9-6.7c0-0.3,0-0.6,0.1-0.8
			c-0.7,1.5-1.1,3.1-1.2,4.8c-0.1,2.3,0.9,4.6,1.9,6.7c1,2.1,2.6,4.6,4.9,4.3c1.9-0.2,2.9-2.3,3.9-4c1-1.7,2.6-3.5,4.4-3
			c0.8,0.2,1.7,0.9,2.4,0.5c0.4-0.3,0.7-0.7,0.7-1.2c0.2-0.9,0.3-1.8,0.3-2.7C999.5,249.7,998.6,249.1,997.8,248.8z"/>
		<path d="M1009.4,230.1c-2.4,1.9-5.4,3.4-6.9,6.1c-0.6,1.2-0.9,2.5-1,3.8c1.5-2.6,4.4-4.1,6.8-6c3.7-3,6.2-7.3,7.1-12
			C1014.1,225.2,1012.1,228,1009.4,230.1z"/>
		<path d="M984,240c0.4-1.1,0.8-2.3,1.1-3.5c0.7-3.5-0.5-7.1-1.6-10.5c-0.8-2.5-2.4-5.5-5-5.2c-0.5,0.1-1,0.2-1.6,0.2
			c-1.4-0.2-1.7-2-1.8-3.4c-0.9-6.7-6-12.1-12.7-13.3c-0.7-0.2-1.5-0.1-2.2,0.1c-1,0.4-1.5,1.5-2.4,2.1c-2.9,2-6.5-1.8-10-1.5
			c-2.9,0.2-4.8,3.3-6,6s-2.7,5.8-5.6,6.4c-0.5,0.1-0.9,0.1-1.4-0.2c-0.3-0.2-0.4-0.5-0.5-0.8c-0.1,0.6-0.3,1.2-0.5,1.7
			c-0.5,1-1.1,2.4-0.2,3.1c0.4,0.2,0.9,0.3,1.4,0.2c2.9-0.6,4.4-3.7,5.6-6.4s3-5.7,6-6c3.5-0.3,7.1,3.5,10,1.5
			c0.9-0.6,1.4-1.7,2.4-2.1c0.7-0.3,1.5-0.3,2.2-0.1c6.7,1.2,11.9,6.6,12.7,13.3c0.2,1.4,0.4,3.2,1.8,3.4c0.5,0,1-0.1,1.6-0.2
			c2.6-0.3,4.2,2.7,5.1,5.2C983.4,233.2,984.5,236.6,984,240z"/>
	</g>
</g>
<path class="st23" d="M654.7,216l-57.6,21c-0.6,0.2-0.9,0.9-0.7,1.5c0.1,0.2,0.2,0.4,0.4,0.5l8.6,4.8c0.5,0.3,0.8,0.8,1,1.3
	l4.9,15.6c0,0.7,1.2,1,1.3,0.4l0.7-12.2c0.2-0.9,0.7-1.7,1.3-2.3l31.7-23c0.2-0.1,0.4-0.2,0.6-0.1c0.3,0.1,0.5,0.5,0.4,0.8
	c0,0.1-0.1,0.2-0.2,0.2l-28.2,25.7c-0.6,0.6-1.1,1.4-1.3,2.3l-3,10.2c0,0.9,0.6,1.4,1.3,0.6l6-5.3c0.4-0.4,1.1-0.4,1.5,0l0,0
	l11.8,11.6c0.4,0.4,1.1,0.4,1.5,0c0.1-0.1,0.2-0.3,0.3-0.4l18.7-51.7c0.2-0.6,0-1.2-0.6-1.4C655.1,216,654.9,216,654.7,216
	L654.7,216z"/>
<path class="st16" d="M317.6,706c-0.7,1.2-1.6,2.3-2.7,3.3l-64.7,60.2l-88.3-292.8l84.8,8.4c6,0.6,11.1,4.8,12.8,10.5l59.6,198.5
	C320.3,698.1,319.7,702.4,317.6,706z"/>
<g class="st11">
	<path class="st12" d="M14.5,210.8c0,0.9,0,1.9,0.1,2.8c0.4,10.2,1.6,20.4,3.5,30.4c5.7,29.8,17.7,59.6,31.9,88
		c0.2,0.5,0.5,0.9,0.7,1.4c0.3,0.7,0.7,1.3,1,2c0.7,1.4,1.4,2.7,2.1,4.1l1.6,3l0,0c0.4,0.7,0.8,1.4,1.1,2.2c0.2,0.4,0.5,0.9,0.7,1.3
		c3.9,7.5,8.2,14.7,12.8,21.8l0.5,0.8c5.8,8.8,12.7,16.8,20.4,24c13.5,12.5,30.7,21.5,49.1,26.6c0.6,0.2,1.2,0.3,1.9,0.5
		c1.2,0.3,2.4,0.6,3.6,0.9c0.8,0.2,1.7,0.4,2.5,0.6c5.9,1.3,11.8,2.1,17.8,2.6c3.2,0.2,6.5,0.4,9.7,0.4h1.4c4,0,8-0.3,11.9-0.7
		l0.6-0.1c10.8-1.2,21.3-4,31.2-8.4c1.6-0.7,3.1-1.5,4.6-2.2l0.8-0.4l0.4-0.2l0,0c5.1-2.7,10-5.8,14.7-9.2
		c5.5-3.9,10.6-8.1,15.6-12.5c7.4-6.5,14.4-13.4,21-20.7l0.3-0.3c2.8-3.2,5.5-6.4,8.1-9.8v-0.1c1.8-2.3,3.5-4.7,5.1-7.1
		c0.1-0.1,0.1-0.2,0.2-0.3c2.4-3.6,4.6-7.2,6.6-11l0.5-0.9c1.5-2.8,2.8-5.6,4-8.4c6.9-16.1,10-33.5,11.7-50.9
		c3.5-35.3,1.4-71.6-7.9-106.9c-1.3-4.8-2.7-9.5-4.2-14.2c-0.2-0.6-0.4-1.3-0.6-1.9c-0.3-1-0.7-2-1-3.1c-0.1-0.4-0.3-0.9-0.4-1.3
		c-1.3-3.8-2.8-7.7-4.3-11.4l-0.8-2c-0.9-2-1.7-4.1-2.6-6.1c-0.8-1.9-1.7-3.7-2.6-5.6c-0.1-0.3-0.3-0.6-0.4-0.9
		c-7.7-15.8-17.8-31.2-32.2-42.8c-1-0.8-2-1.6-3-2.3c-1.5-1.1-3-2.2-4.6-3.2l-1.1-0.7l-0.4-0.3l-0.3-0.2l-0.2-0.1
		c-0.8-0.5-1.6-1-2.5-1.4s-1.7-0.9-2.6-1.3l0,0h-0.1l-0.3-0.2c-0.7-0.3-1.4-0.7-2-1l-0.7-0.3l-0.3-0.1l-1.1-0.5
		c-5.1-2.1-10.5-3.7-15.9-4.8c-3-0.6-6.1-0.9-9.2-1.1c-4.7-0.3-9.3,0-13.9,0.8c-0.7,0.1-1.4,0.2-2.1,0.4c-5.8,1.2-11.3,3.6-16.1,7
		c-6.3,4.6-10.7,10.7-14.8,17l-0.4,0.6c-0.7,1.1-1.3,2.1-2,3.2c-2.3,3.7-4.6,7.5-7.1,11.2c-2.3,3.4-4.6,6.8-7.2,10
		c-2.6,3.2-5.4,6.3-8.4,9.1c-0.4,0.4-0.9,0.8-1.4,1.2c-5.6,5-12,8.9-18.9,11.6c-6.3,2.4-13,3.4-19.5,2.1l0,0c-1.9-0.4-3.7-1-5.4-1.7
		c-3.3-1.4-6.4-2.9-9.6-4.1c-5.6-2.4-11.5-4.1-17.5-5l0,0c-6.2-0.8-12.6-0.1-18.5,2c-1,0.4-1.9,0.8-2.9,1.2
		c-4.4,1.9-8.4,4.6-11.8,7.9c-0.4,0.4-0.8,0.8-1.2,1.2c-8.8,8.9-13.6,21.3-16.2,33.4C15.4,187.5,14.3,199.2,14.5,210.8z"/>
	
		<linearGradient id="SVGID_00000030454235403543344490000015225642191151196084_" gradientUnits="userSpaceOnUse" x1="1099.6985" y1="2034.2137" x2="1099.6985" y2="1614.3065" gradientTransform="matrix(-1 0 0 1 1336.72 -1610.2101)">
		<stop  offset="0" style="stop-color:#808080;stop-opacity:0.25"/>
		<stop  offset="0.54" style="stop-color:#808080;stop-opacity:0.12"/>
		<stop  offset="1" style="stop-color:#808080;stop-opacity:0.1"/>
	</linearGradient>
	<path style="fill:url(#SVGID_00000030454235403543344490000015225642191151196084_);" d="M142,416.7l-2,2.3
		c0.6,0.2,1.2,0.3,1.9,0.5c1.2,0.3,2.4,0.6,3.6,0.9c0.8,0.2,1.7,0.4,2.5,0.6c5.9,1.3,11.8,2.1,17.8,2.6c3.2,0.2,6.5,0.4,9.7,0.4
		c0.6-0.9,1.2-1.9,1.6-2.9c1.3-3.1,6.5-8.6,12-13.8c-0.1,0.9-0.2,1.4-0.2,1.4v0.4l-0.1,14.3l0.6-0.1c10.8-1.2,21.3-4,31.2-8.4
		c1.6-0.7,3.1-1.5,4.6-2.2l0.8-0.4l0.4-0.2c0.7-3.4,1.3-6.7,1.8-9.4l0.1-0.4c0.1-0.4,0.1-0.7,0.2-1s0.1-0.6,0.2-0.9s0.1-0.4,0.1-0.6
		c0.3-1.8,0.5-2.9,0.5-2.9c0-0.5,0.1-1.1,0.2-1.6l0,0c0.4-3,1.8-5.9,3.9-8.1c0.9-0.9,1.5-2,1.9-3.2l0,0c1.1-3.4,0.9-7.8,0.8-9.9
		c0-0.7-0.1-1.1-0.1-1.1s3.8-2,6.1-8.2c0.5-1.3,0.8-2.6,1.1-4c1.6-8.8,6.7-27.3,7.3-29.6l0,0l0.1-0.2c0,0,0.1-0.3,0.4-0.9
		c0-0.1,0-0.1,0.1-0.2l0.1-0.2l0,0c2.3-6.2,11-31.3,10.3-47.9c-0.8-19.1,1.2-29.1,1.2-29.1l2.3-41.6v-0.4l0.1-2.4v-0.7
		c0.3,0.2,0.6,0.5,0.9,0.7l0.5,0.5l0.2,0.2c0,0,0-0.2,0-0.5c0.4,0.3,0.5,0.5,0.5,0.5s1-16.1,0.9-25.3c0-1.1,0-2.1-0.1-2.9
		c6.8-2.3,17-6.1,17.6-8c0.5-1.6,4.3-5.1,7.6-7.9l1.8-1.5l0.9-0.8c1.3-1.1,2.2-1.8,2.2-1.8c-0.3,0-0.5-0.1-0.7-0.3
		c0.4-0.2,0.8-0.4,1.1-0.6c1-0.5,2-1.2,3.2-1.9c4.8-3.2,10.7-8.2,14-13c1.8-2.7,2.8-5.4,2.4-7.6c0-0.2-0.1-0.4-0.2-0.6l13.8-19.9
		l1.6-2.3c1-1.5,0.9-3.4-0.3-4.7l0.1-0.1l-0.1-0.1l-0.6-0.4l0.1,0.1c-0.9-0.5-2-0.3-2.6,0.6l-0.2,0.4l-13.3,19.1l-2.4,3.4
		c-5.2-1.6-12.8,2.9-18.7,7.4c-2.2,1.6-4.1,3.3-5.7,4.6l-1,0.9c-0.5-1-0.7-1.7-0.7-1.7c-0.3,3.2-11.5,7.9-14,9.6
		c-1.2,0.7-2.5,1.2-3.9,1.3c0.4-12-8.9-24.6-8.9-24.6l-18-22.9l0,0l-1.1-1.4l-3.6-4.5c-0.3-1.4-0.4-2.8-0.3-4.3c0-2.3,0.4-4.7,1-6.9
		c0.1-0.4,0.2-0.7,0.4-1.1c0.3-1,0.8-2,1.2-3c0.2-0.4,0.4-0.8,0.6-1.1h0.1c-0.4,1.4-0.8,2.8-1.1,4.2c-0.1,0.4-0.1,0.8-0.2,1.1
		L240,91c-0.1,0.6-0.1,1.2-0.1,1.8c0,0.1,0,0.2,0,0.3c0.2,2.4,2,11.2,4.4,10.8c0.5,0,1-0.2,1.3-0.6c0.3-0.3,0.5-0.6,0.7-1
		c0.2-0.3,0.3-0.6,0.4-0.8c0.2-0.4,0.3-0.8,0.4-1.2c0.5-2.3,0.7-4.7,0.6-7c0,1.1-0.2,2.2-0.4,3.3c0.1-2.5-0.1-5.2-0.2-7.3
		c0-0.5,0-0.9,0-1.3s0-0.9,0-1.4l0,0c0-0.5,0-0.9,0-1.4h0.1h0.2c0,0.3,0,0.7,0,1.1c0-0.4,0-0.8,0-1.1h0.1h0.2c2.3-0.4,4.5-1.1,6.6-2
		c2.6-1.1,5-2.6,7.2-4.4c0.5,0,1-0.1,1.4-0.2c1.4-0.3,2.6-1,3.6-2l0.2-0.2c0.5,1.6,0.2,3.3-0.9,4.6c0,0.1-0.1,0.1-0.1,0.1h0.1
		c2.9-0.2,5.3-2.4,6.5-5c0-0.1,0.1-0.2,0.1-0.3c1-2.8,1.3-5.9,0.9-8.9s-0.7-6-0.6-9c0-0.7,0.1-1.5,0.2-2.2c0-0.1,0-0.2,0-0.3
		c0.1-0.8,0.1-1.6,0-2.4c0-0.1,0-0.1,0-0.2c0-0.4-0.1-0.9-0.2-1.3h0.1c0.7,0,1.3-0.3,1.6-0.9l0.2-0.2c0.2-0.2,0.4-0.4,0.6-0.7
		s0.4-0.6,0.5-1c0.3-0.8,0.5-1.6,0.7-2.4c0.9-3.4,1.3-6.8,1.2-10.3c-0.1,1-0.2,2.1-0.4,3.2c0.3-4-0.3-7.8-2.9-10.7
		c-1.8-2-4.3-3.2-6.8-4.3c-0.9-0.3-1.6-0.9-2.2-1.6c-0.4-0.9-0.7-1.8-0.7-2.7c-0.9-5.8-6.3-9.9-11.8-12.2c-7-3-15.4-4.4-22.2-0.7
		c-3.3,1.8-5.9,4.5-8.8,6.8c-3.7,2.8-8,4.8-12,7.3s-7.8,5.6-9.7,9.8s-1.6,9.2-1.1,14c0.3,2.4,0.6,4.9,0.7,7.3c0,0.2,0,0.4,0,0.6
		c0.2,5.5-0.8,11-3,16.1c-2.2,5.2-5.8,9.8-10.3,13.2c-1.1,0.7-2.1,1.5-2.9,2.5c-0.8,1-0.9,2.5-0.2,3.6c0.2,0.3,0.5,0.5,0.8,0.8
		c0.3,0.2,0.6,0.5,0.9,0.8c0.2,0.3,0.4,0.6,0.5,0.9c0.3,0.9,0.3,2,0.1,2.9c0,0.1,0,0.2-0.1,0.3l-0.1,0.5c-1.3,5-4,9.5-7.7,13.1
		c0.2,1.2,1.6,1.6,2.8,1.8l0,0c3.1,0.5,6.3,0.7,9.4,0.7h1.4c-0.1,0.4-0.3,0.7-0.4,1.1l0,0c-0.3,0.9-0.7,1.8-1,2.8l0,0
		c-1.4,4.2-2.8,9.4-2.2,12.9c1.2,6.7,4.6,37.3,2.9,42.7s2.7,44.6,2.7,44.6s0.1,0.6,0.4,1.7c0.3,1.3,0.7,3.3,1.3,5.8
		c0,0.1-0.1,0.2-0.1,0.3c-2.7,6.4-5.7,13.3-7.3,16.1c-2.1,3.8-2.1,17.8,1.2,30.7c1.7,6.6,4.3,12.9,8,17.3c0,0,3.8,5.3,3.5,8
		c0,0.2-0.1,0.4-0.2,0.6c-0.8,1.6-0.4,4-0.1,5.4c0.1,0.6,0.3,0.9,0.3,0.9v1l1.7,36.9c0,3.9-0.3,7.7-0.8,11.6
		c-4.6,5.7-11.7,14-15.1,15.4c-5.2,2.1-43.8,49-43.8,49s0.3,0.6,0.9,1.5L142,416.7z"/>
	<path class="st25" d="M296.8,163c-1.1,0.7-2.4,1.2-3.7,1.4c-4.8,0.1-8.8-12.9-8.8-12.9s1.4-1.4,3.6-3.3c6.5-5.8,20-16.4,26.4-10.4
		C321.4,144.4,305.1,158.5,296.8,163z"/>
	<path class="st25" d="M148,421c5.9,1.3,11.8,2.1,17.8,2.6c-2.5-4.5-19-9.8-19-9.8l-2.2,2.6l-1.1,1.2l-1.6,1.9
		c1.2,0.3,2.4,0.6,3.6,0.9C146.3,420.6,147.2,420.8,148,421z"/>
	<path class="st3" d="M296.8,163c-1.1,0.7-2.4,1.2-3.7,1.4c-4.8,0.1-8.8-12.9-8.8-12.9s1.4-1.4,3.6-3.3
		C289.4,151.7,293.7,161.2,296.8,163z"/>
	<path class="st26" d="M265.8,158.3c0,0,4,0.3,6.5-1.4c2.5-1.7,13.5-6.4,13.8-9.5c0,0,6.5,15.9,10.2,16.5c0,0-11.4,8.9-12.2,11.8
		s-23,9.8-23,9.8L265.8,158.3z"/>
	<path class="st27" d="M265.8,158.3c0,0,4,0.3,6.5-1.4c2.5-1.7,13.5-6.4,13.8-9.5c0,0,6.5,15.9,10.2,16.5c0,0-11.4,8.9-12.2,11.8
		s-23,9.8-23,9.8L265.8,158.3z"/>
	<path class="st3" d="M143.5,417.6c0.5,0.8,1.2,1.7,2,2.8c0.8,0.2,1.7,0.4,2.5,0.6c5.9,1.3,11.8,2.1,17.8,2.6
		c-2.5-4.5-19-9.8-19-9.8l-2.2,2.6L143.5,417.6z"/>
	<path class="st27" d="M143.7,414.9c0,0,0.3,0.6,0.9,1.5c1.1,1.6,2.2,3.2,3.5,4.6c5.9,1.3,11.8,2.1,17.8,2.6
		c3.2,0.2,6.5,0.4,9.7,0.4h1.4c0.4-0.6,0.7-1.3,1-2c1.2-2.9,5.9-8,11-13c0.2-0.2,0.5-0.5,0.7-0.7c7.3-7.1,15.2-13.8,15.2-13.8
		l0.8-48.7c0,0-1.7,2.3-4.2,5.4c-4.5,5.6-11.5,13.9-14.8,15.2C181.5,368.5,143.7,414.9,143.7,414.9z"/>
	<path class="st3" d="M143.7,414.9c0,0,0.3,0.6,0.9,1.5c1.1,1.6,2.2,3.2,3.5,4.6c5.9,1.3,11.8,2.1,17.8,2.6c3.2,0.2,6.5,0.4,9.7,0.4
		h1.4c0.4-0.6,0.7-1.3,1-2c1.2-2.9,5.9-8,11-13c0.2-0.2,0.5-0.5,0.7-0.7c7.3-7.1,15.2-13.8,15.2-13.8l0.8-48.7c0,0-1.7,2.3-4.2,5.4
		c-4.5,5.6-11.5,13.9-14.8,15.2C181.5,368.5,143.7,414.9,143.7,414.9z"/>
	<path class="st3" d="M163.5,408c4.2,0.4,8.4,0.4,12.6,0C183.7,407.3,178,411.8,163.5,408z"/>
	<path class="st3" d="M160.1,412.8c0,0,9.9,5.7,13.8,2.8S170.2,418.4,160.1,412.8z"/>
	<path class="st27" d="M200.2,293.2c0.4,0.9,0.5,1.9,0.2,2.8c-0.4,1-0.6,2.1-0.4,3.2c0.1,0.6,0.2,1.3,0.3,1.9
		c0.2,0.7,0.3,1.1,0.3,1.1l1.7,37.5c0,3.8-0.3,7.7-0.8,11.5c-0.5,4-1.5,8.1-3,10.5c-3.4,5.2-7.8,39.2-8.7,46.5l-0.2,1.4l-0.1,13.5
		c10.8-1.2,21.3-4,31.2-8.4c1.6-0.7,3.1-1.5,4.6-2.2l0.8-0.4l0.4-0.2l0,0c0.7-3.5,1.3-6.8,1.8-9.4l0.1-0.4c0.1-0.4,0.1-0.7,0.2-1
		s0.1-0.6,0.2-0.9s0.1-0.4,0.1-0.6c0.2-1.1,0.3-1.8,0.3-1.8c0.1-0.9,0.2-1.9,0.4-2.8l0,0c0.5-2.6,1.7-5,3.6-6.9
		c1.1-1.2,1.9-2.8,2.2-4.4l0,0c0.6-3.2,0.7-6.4,0.3-9.6c0.2-0.1,0.4-0.2,0.5-0.4c1.2-0.8,4.3-3.5,6-9.3c0.2-0.8,0.4-1.7,0.6-2.5
		c1.7-9.3,7.2-29.6,7.2-29.6s0.2-0.5,0.6-1.5l0,0c0.1-0.3,0.3-0.7,0.4-1.1c0-0.1,0-0.1,0.1-0.2l0.1-0.2l0,0
		c2.9-8.2,10.1-30.5,9.5-45.7c-0.8-18.9,1.1-28.8,1.1-28.8l2.4-44v-0.7v-0.4l0.2-4.1l-21.8-0.6h-1.3l-5.2-0.2h-0.2h-0.6l-7-0.2
		l-3.1-0.1l-5.6-0.2h-1.1h-1.1l-4.4-0.1l-12.7,7.4c0,0-0.5,1.2-1.3,3.2c-0.2,0.4-0.4,0.9-0.6,1.4s-0.4,1.1-0.7,1.7l-1.8,4.3
		c-0.2,0.5-0.4,1-0.6,1.5c-2.7,6.4-5.7,13.4-7.3,16.3c-1.9,3.5-2,16,0.6,28c1.6,7.4,4.4,14.7,8.4,19.6
		C198.3,289.3,199.3,291.2,200.2,293.2z"/>
	<path class="st3" d="M214.4,394.3c0,0,7.8,6.1,11,6.1S214.4,394.3,214.4,394.3z"/>
	<path class="st25" d="M261.1,137.9v12.5l-8.3-3.6l-8.2-3.6l-17.9-17.6c0,0-14.2-9.2-21.8-17.6c-4.3-4.8-6.5-9.3-2.7-11.7
		c1.8-1.2,3.5-2.7,4.9-4.3c3.8-4.5,7.1-9.4,9.9-14.6c0.1-0.2,0.2-0.4,0.4-0.6c3.7-6.8,6.1-12.6,6.1-12.6s10.4,3.3,17.1,8
		c0.5,0.4,1,0.8,1.5,1.2c3.7,3.1,5.6,6.6,2.1,10.1c-0.9,0.9-1.7,1.9-2.5,2.9l0,0c-0.6,0.8-1.1,1.6-1.5,2.4c-0.2,0.4-0.4,0.7-0.6,1.1
		c-2.3,4.7-3.1,10-2.3,15.2L261.1,137.9z"/>
	<path class="st19" d="M259.6,48.6c0.4,0.7,1,1.4,1.4,2.2c0.8,1.6,0.7,3.5,0.6,5.3c-0.2,2.8,0,5.7,0.5,8.5c0.6,2.5,1.7,4.9,1.8,7.5
		c0.1,3.6-1.8,7-3.6,10.1c2-0.1,3.9-0.9,5.2-2.4c0.5,1.6,0.1,3.4-1,4.7c3-0.1,5.5-2.5,6.6-5.2c1-2.8,1.3-5.8,0.9-8.8
		c-0.4-2.9-0.7-5.9-0.6-8.9c0.2-1.6,0.3-3.2,0.3-4.8c-0.3-3.2-2.3-6-4.2-8.6l-3.9-5.3c-0.3-0.4-0.6-0.8-1.1-1
		C259,40.1,258.6,46.8,259.6,48.6z"/>
	<path class="st3" d="M244.3,83.6c-0.9,0.9-1.7,1.9-2.5,2.9l0,0c-0.6,0.8-1.1,1.6-1.5,2.4c-0.2,0.4-0.4,0.7-0.6,1.1
		c-5-0.3-9.9-1.8-14.2-4.5c-3.2-2-5.9-4.6-8.1-7.6c-0.1-0.2-0.2-0.3-0.4-0.5c0.1-0.2,0.2-0.4,0.4-0.6c3.7-6.8,6.1-12.6,6.1-12.6
		s10.4,3.3,17.1,8c0.5,0.4,1,0.8,1.5,1.2C245.9,76.5,247.8,80,244.3,83.6z"/>
	<path class="st25" d="M271.3,59.1c0,14.4-10.3,26.7-24.4,29.4c-1.8,0.3-3.6,0.5-5.4,0.5h-0.1c-0.3,0-0.6,0-1,0
		c-5.2-0.2-10.3-1.7-14.8-4.5c-3.2-2-5.9-4.5-8.1-7.6c-9.7-13.3-6.8-31.9,6.4-41.7c13.3-9.7,31.9-6.8,41.7,6.4
		C269.3,46.7,271.3,52.8,271.3,59.1z"/>
	<path class="st3" d="M245.4,132.8c0,0,15,8.5,11.2,1.3l-19.6-29l0,0l22.3,28.6c0,0,14.2,19.5,6.4,33c0,0-1.1,11.2,0.2,13.8
		c1.3,2.6-0.4,30.9-0.4,30.9s-5.3-4.9-8.1-4c-2.8,0.9-22.9,2.6-22.9,2.6L245.4,132.8z"/>
	<path class="st3" d="M264.1,205.6l-0.3,5.2c-1.8-1.3-4.3-2.8-6-2.2c-2.8,0.9-22.9,2.7-22.9,2.7l0.9-6.5L264.1,205.6z"/>
	<path class="st19" d="M246,132.8c0,0,15,8.5,11.2,1.3l-19.6-29l0,0l22.3,28.6c0,0,14.2,19.5,6.4,33c0,0-1.1,11.2,0.2,13.8
		c1.3,2.6-0.4,30.9-0.4,30.9s-5.3-4.9-8.1-4c-2.8,0.9-22.9,2.6-22.9,2.6L246,132.8z"/>
	<path class="st3" d="M254,147.4c-0.9,9.1-4.6,19.9-4.6,19.9s-2.6,26.9-6,34.9s-1.9,18.9-3.8,39.2c-0.7,7.3-3,12.3-6.2,15.7
		c-5.2,5.6-12.7,6.7-18.6,6.4c-0.5,0-0.9-0.1-1.4-0.1c-9.5-1-18.6-46.6-18.6-46.6s-4.4-38.8-2.6-44.1s-1.7-35.6-2.8-42.2
		c-0.7-4.2,1.4-11.1,3.1-15.5c1-2.6,1.8-4.4,1.8-4.4s3.2-10.2,8.5-15.5c1.5-1.5,3.5-2.4,5.6-2.4c2.5,0.1,4.9,0.9,7,2.2l0.2,0.2
		c0,0,34.5,35.2,37.7,43.4C254.2,140.6,254.3,143.9,254,147.4z"/>
	<path class="st27" d="M252.8,146.8c-0.9,9.1-4.6,19.9-4.6,19.9s-2.6,26.9-6.1,34.9s-1.9,18.9-3.8,39.2c-0.7,7.3-3,12.3-6.2,15.7
		c-5.2,5.6-12.7,6.7-18.6,6.4l-1.4-0.1c-9.5-0.9-18.6-46.6-18.6-46.6s-4.4-38.8-2.6-44.1s-1.7-35.6-2.8-42.2
		c-0.7-4.2,1.4-11.1,3.1-15.5c1-2.6,1.8-4.4,1.8-4.4s3.2-10.2,8.5-15.5c1.5-1.5,3.5-2.4,5.6-2.4c2.5,0.1,4.9,0.9,7,2.2l0.2,0.2
		c0,0,34.5,35.2,37.7,43.4C253.1,140,253.2,143.3,252.8,146.8z"/>
	<path class="st3" d="M214.2,285.5c0,0-7.8,7-10.5,6.7S214.2,285.5,214.2,285.5z"/>
	<path class="st3" d="M216.3,292.2c0,0-8.2,3.8-10.7,4.4S213.1,291.2,216.3,292.2z"/>
	<path class="st3" d="M248.2,187.6c0,0,12.2,0.1,14.1,4C264.2,195.5,252.2,186,248.2,187.6z"/>
	<path class="st3" d="M246.5,194.3c0,0,9.4,2,12.2,4.3C261.5,200.9,246.5,194.3,246.5,194.3z"/>
	<path class="st3" d="M230.7,171.1c0,0-1.1,38.5-5.3,43.5S230.7,171.1,230.7,171.1z"/>
	<path class="st3" d="M220.2,279.9c0,0-7.8,34,7.9,36.1s10.9-38.6,10.9-38.6L220.2,279.9z"/>
	<path class="st25" d="M219.6,279.4c0,0-7.8,34,7.9,36.1s10.9-38.6,10.9-38.6L219.6,279.4z"/>
	<path class="st3" d="M271.1,55.8c-0.4-0.6-0.8-1.3-1.1-2.1c-2.1-4.3-7.5-2.2-11.4-0.1l-2.1,2.7c-1,1.1-1.8,2.4-2.4,3.7
		c-0.4,1.1-0.7,2.2-1,3.3c-0.5,1.9-1.3,3.8-2.1,5.6c-2.4,6.2-3.8,12.8-4.2,19.5c-1.8,0.3-3.6,0.5-5.4,0.5h-0.1v-0.1
		c0.2-0.8,0.4-1.5,0.5-2.3l0,0c0.8-4.3,0.9-8.7,0.3-13c0-0.1,0-0.2,0-0.3c-0.1-1-0.3-1.9-0.4-2.9c-0.4,0.7-0.7,1.3-1.1,2
		c-2.4,4.5-4.9,8.8-9.4,10.8c-1.8,0.7-3.7,1.1-5.7,1.3c-2.4,0.1-4.8,0.5-7.1,1.2c-0.8,0.2-1.5,0.7-2.1,1.2c-0.6,0.9-1,2-1,3.1
		c-0.2,1.5-0.6,2.9-1.1,4.3c-2,5.2-5.2,9.9-9.2,13.8l-1,1c-1.7,1.8-3.8,3.2-6.1,4.2c-2.1,0.7-4.3,1.1-6.5,1c1-2.6,1.8-4.4,1.8-4.4
		s3.2-10.2,8.5-15.5c1.5-1.5,3.5-2.4,5.6-2.4c3.9-4.7,7.3-9.8,10.2-15.2c-9.8-13.3-7-31.9,6.3-41.7s31.9-7,41.7,6.3
		C268.6,45.6,270.6,50.6,271.1,55.8L271.1,55.8z"/>
	<path class="st19" d="M273,32.5c-1.8-2-4.2-3.1-6.6-4.2c-0.8-0.3-1.6-0.9-2.1-1.6c-0.4-0.8-0.6-1.8-0.7-2.7
		c-0.8-5.8-6.2-9.8-11.5-12.1c-6.9-3-15.1-4.3-21.7-0.7c-3.2,1.7-5.7,4.5-8.6,6.7c-3.7,2.8-7.9,4.8-11.8,7.2s-7.6,5.5-9.5,9.8
		c-2.9,6.5-0.7,14-0.4,21.1c0.6,11.2-4,22.9-13.1,29.6c-1.1,0.7-2.1,1.5-2.9,2.5c-0.8,1-0.9,2.4-0.2,3.6c0.4,0.6,1.2,1,1.7,1.6
		c1,1.2,0.8,3,0.4,4.5c-1.3,4.9-3.9,9.4-7.6,13c0.1,1.2,1.6,1.6,2.7,1.8c3.1,0.5,6.2,0.7,9.3,0.7c4.9,0.4,9.7-1.5,13-5.2
		c5.5-5.2,10.2-11.7,11.4-19.1c0.1-1.1,0.4-2.2,1-3.1c0.6-0.6,1.3-1,2.1-1.2c4.1-1.4,8.8-0.7,12.8-2.5c5.2-2.2,7.7-7.7,10.4-12.8
		c0.1,1,0.3,1.9,0.4,2.9c0.8,5.2,0.5,10.5-0.8,15.6c-0.7,2.9-1.8,5.8-1.7,8.7c0.1,2.2,2.3,13.8,5.2,10.3s1.9-11.1,1.9-15.4
		c0-8,1.5-16,4.3-23.5c0.7-1.9,1.5-3.7,2.1-5.6c0.3-1.1,0.6-2.2,1-3.3c0.6-1.3,1.4-2.6,2.4-3.7l2.1-2.7c3.9-2.1,9.3-4.2,11.4,0.1
		c0.8,1.7,1.2,3.5,3.3,1.9c1.2-1,1.6-2.8,2-4.3C276.1,44.2,277.2,37.1,273,32.5z"/>
	<path class="st3" d="M233,136.8c-0.8-20.4-29.4-24.6-36-5.3c-0.1,0.1-0.1,0.3-0.1,0.4c-4.4,13.1-2.5,46.2-2.5,46.2
		s0.6,22.2,2.7,29.6s7.9,28.6,7.9,32s5.4,16.5,7.7,17.4s3.5,8.3,4,9.7s2.2,18.6,2.2,18.6s21.4-1.3,21.8-4.7s-4.7-20.1-4.7-20.1
		s-3.8-6.8-4.2-12.3s-3.5-8-2.9-11.7s-1.7-5.7-1.7-8.1s-1.7-9.1-1.7-9.1s-3.6-2.8-3-6.2s-5.1-10.2-3.6-12.7s1.9-8.5,1.9-8.5
		s1.9-27.3,3.2-34.7s9.1-19.3,9.1-19.3S233.1,137.4,233,136.8z"/>
	<path class="st3" d="M232.2,256.5c-5.2,5.6-12.7,6.7-18.6,6.4c-0.7-2.6-1.7-5.8-3.1-6.4c-2.3-1-7.7-14-7.7-17.4s-5.9-24.6-8-32
		s-2.6-29.6-2.6-29.6s-1.9-33.1,2.5-46.2c0-0.1,0.1-0.3,0.1-0.4c6.7-19.3,35.2-15.1,36,5.3c0,0.6,0,0.9,0,0.9s-7.8,11.9-9.1,19.3
		s-3.2,34.7-3.2,34.7s-0.4,6.1-1.9,8.5s4.2,9.3,3.6,12.7s3,6.2,3,6.2s1.7,6.6,1.7,9.1s2.3,4.4,1.7,8.1c-0.6,3.8,2.5,6.2,2.9,11.8
		C229.9,250.7,230.8,253.7,232.2,256.5z"/>
	<path class="st27" d="M231.9,136.2c-0.8-20.4-29.4-24.6-36-5.3c0,0.1-0.1,0.3-0.1,0.4c-4.4,13.1-2.5,46.2-2.5,46.2
		s0.6,22.2,2.6,29.6s8,28.6,8,32s5.4,16.5,7.7,17.4s3.4,8.3,4,9.7s2.3,18.6,2.3,18.6s21.4-1.3,21.8-4.7S235,260,235,260
		s-3.8-6.8-4.3-12.3s-3.5-8-2.9-11.7s-1.7-5.7-1.7-8.1s-1.7-9.1-1.7-9.1s-3.6-2.9-3-6.3s-5.1-10.2-3.6-12.7s1.9-8.5,1.9-8.5
		s1.9-27.3,3.2-34.7s9.1-19.3,9.1-19.3S231.9,136.9,231.9,136.2z"/>
	<path class="st3" d="M196.7,188.7c0.6-0.6,11.4-12.5,14.8-8.2S196.7,188.7,196.7,188.7z"/>
	<path class="st3" d="M197.7,198c0.4-0.4,10.8-0.9,13.4-6.7S197.7,198,197.7,198z"/>
	<g class="st9">
		<path d="M185.9,93.2c0.3,0.3,0.5,0.6,0.6,1c0.4-1.3,0.2-2.7-0.6-3.9c-0.5-0.6-1.2-0.9-1.7-1.5l-0.1-0.2c-0.5,0.9-0.5,2.1,0.1,3
			C184.7,92.3,185.4,92.6,185.9,93.2z"/>
		<path d="M200.4,56.4c0-1.1,0-2.2,0-3.2c-0.2-3.9-0.9-7.8-1.1-11.7c-0.2,4.7,0.8,9.7,1.1,14.6C200.4,56.1,200.4,56.2,200.4,56.4z"
			/>
		<path d="M244.7,103.8c-2.6,3.1-4.7-5.8-5.1-9.3c-0.1,0.6-0.1,1.2-0.1,1.8c0.1,2.2,2.3,13.8,5.2,10.3c2-2.3,2.2-6.3,2.1-10
			C246.6,99.4,246.2,102.1,244.7,103.8z"/>
		<path d="M241.9,72c0.2,1.5,0.4,3,0.4,4.5c0.1-2.5,0-4.9-0.4-7.3c-0.1-1-0.3-1.9-0.4-2.9c-2.7,5.1-5.3,10.6-10.4,12.8
			c-4,1.7-8.7,1-12.8,2.5c-0.8,0.2-1.5,0.7-2.1,1.2c-0.6,0.9-1,2-1,3.1c-1.2,7.5-5.9,14-11.4,19.1c-3.3,3.7-8.1,5.6-13,5.2
			c-3.1,0-6.2-0.2-9.3-0.7c-0.5-0.1-0.9-0.2-1.4-0.4c-0.4,0.5-0.9,1-1.4,1.4c0.2,1.2,1.6,1.6,2.7,1.8c3.1,0.5,6.2,0.7,9.3,0.7
			c4.9,0.4,9.7-1.5,13-5.2c5.5-5.2,10.2-11.7,11.4-19.1c0-1.1,0.4-2.2,1-3.1c0.6-0.6,1.3-1,2.1-1.2c4.1-1.4,8.8-0.7,12.8-2.5
			c5.2-2.2,7.7-7.7,10.4-12.8C241.6,70.1,241.8,71.1,241.9,72z"/>
		<path d="M275.1,47.3c-0.3,1.4-0.7,3.3-2,4.3c-2.1,1.6-2.5-0.2-3.3-1.9c-2.1-4.3-7.5-2.2-11.4-0.1l-2.1,2.7c-1,1.1-1.8,2.4-2.4,3.7
			c-0.4,1.1-0.7,2.2-1,3.3c-0.5,1.9-1.3,3.8-2.1,5.6c-2.9,7.5-4.3,15.5-4.3,23.5c0,0.4,0,0.8,0,1.2c0.2-7.5,1.7-14.8,4.3-21.8
			c0.7-1.9,1.5-3.7,2.1-5.6c0.3-1.1,0.6-2.2,1-3.3c0.6-1.3,1.4-2.6,2.4-3.7l2.1-2.7c3.9-2.1,9.3-4.2,11.4,0.1
			c0.8,1.7,1.2,3.5,3.3,1.9c1.2-1,1.6-2.8,2-4.3c0.9-3.3,1.2-6.8,1.1-10.2C276,42.5,275.6,44.9,275.1,47.3z"/>
	</g>
	<path class="st19" d="M300.9,154.9l0.6,0.4c-1.1-0.7-1.3-2.2-0.6-3.3l0,0l26.3-38.2c0.7-1.1,2.2-1.3,3.3-0.6l-0.6-0.4
		c1.7,1.2,2.2,3.5,1,5.2l0,0l-24.8,35.8C305,155.6,302.6,156.1,300.9,154.9L300.9,154.9z"/>
	<path class="st28" d="M330,112.9l0.6,0.4l0,0l-29,42.1l0,0L301,155c-0.8-0.5-1-1.6-0.4-2.4l27-39.2
		C328.1,112.5,329.2,112.3,330,112.9z"/>
	<path class="st19" d="M326.8,118.7l0.1,0.1c0.1,0.1,0.1,0.2,0,0.2l-2.2,3.2c-0.1,0.1-0.2,0.1-0.2,0l-0.1-0.1
		c-0.1-0.1-0.1-0.2,0-0.2l2.2-3.2C326.6,118.6,326.8,118.6,326.8,118.7z"/>
</g>
</svg>
